<mxfile modified="2020-12-20T12:56:33.532Z" host="app.diagrams.net" agent="5.0 (Windows NT 10.0; Win64; x64) AppleWebKit/537.36 (KHTML, like Gecko) Chrome/87.0.4280.88 Safari/537.36" etag="dfTrghm-J9iCsFysevrt" version="14.1.1" type="github">
  <diagram id="WI9T0HZ2pTsCkuznbFz-" name="Page-1">
    <mxGraphModel dx="2190" dy="464" grid="1" gridSize="10" guides="1" tooltips="1" connect="1" arrows="1" fold="1" page="1" pageScale="1" pageWidth="1169" pageHeight="827" math="0" shadow="0">
      <root>
        <mxCell id="0" />
        <mxCell id="1" parent="0" />
        <mxCell id="AcxdMaKK0mU5kZiv2lnr-30" style="edgeStyle=orthogonalEdgeStyle;rounded=0;orthogonalLoop=1;jettySize=auto;html=1;strokeColor=#808080;exitX=0.155;exitY=0.997;exitDx=0;exitDy=0;exitPerimeter=0;" parent="1" target="bqVkadd0tKrhda9ODERW-5" edge="1" source="AcxdMaKK0mU5kZiv2lnr-14">
          <mxGeometry relative="1" as="geometry">
            <mxPoint x="1010" y="230" as="sourcePoint" />
            <mxPoint x="980" y="400" as="targetPoint" />
          </mxGeometry>
        </mxCell>
        <mxCell id="bqVkadd0tKrhda9ODERW-58" value="RETURN" style="edgeLabel;html=1;align=center;verticalAlign=middle;resizable=0;points=[];" vertex="1" connectable="0" parent="AcxdMaKK0mU5kZiv2lnr-30">
          <mxGeometry x="-0.1749" y="5" relative="1" as="geometry">
            <mxPoint as="offset" />
          </mxGeometry>
        </mxCell>
        <mxCell id="AcxdMaKK0mU5kZiv2lnr-28" style="edgeStyle=orthogonalEdgeStyle;rounded=0;orthogonalLoop=1;jettySize=auto;html=1;strokeColor=#808080;exitX=0.594;exitY=0;exitDx=0;exitDy=0;exitPerimeter=0;" parent="1" source="bqVkadd0tKrhda9ODERW-13" target="AcxdMaKK0mU5kZiv2lnr-14" edge="1">
          <mxGeometry relative="1" as="geometry">
            <mxPoint x="928.9499999999996" y="81.46249999999998" as="sourcePoint" />
            <Array as="points">
              <mxPoint x="1056" y="199" />
            </Array>
          </mxGeometry>
        </mxCell>
        <mxCell id="AcxdMaKK0mU5kZiv2lnr-27" style="edgeStyle=orthogonalEdgeStyle;rounded=0;orthogonalLoop=1;jettySize=auto;html=1;strokeColor=#808080;exitX=0;exitY=0.25;exitDx=0;exitDy=0;" parent="1" source="bqVkadd0tKrhda9ODERW-5" edge="1" target="AcxdMaKK0mU5kZiv2lnr-14">
          <mxGeometry relative="1" as="geometry">
            <mxPoint x="1020" y="230" as="targetPoint" />
            <Array as="points">
              <mxPoint x="1100" y="420" />
              <mxPoint x="1100" y="140" />
            </Array>
            <mxPoint x="985" y="430" as="sourcePoint" />
          </mxGeometry>
        </mxCell>
        <mxCell id="bqVkadd0tKrhda9ODERW-57" value="SEND" style="edgeLabel;html=1;align=center;verticalAlign=middle;resizable=0;points=[];" vertex="1" connectable="0" parent="AcxdMaKK0mU5kZiv2lnr-27">
          <mxGeometry x="-0.2023" y="-1" relative="1" as="geometry">
            <mxPoint as="offset" />
          </mxGeometry>
        </mxCell>
        <mxCell id="AcxdMaKK0mU5kZiv2lnr-14" value="AUTH0 2.0&lt;br&gt;" style="aspect=fixed;html=1;perimeter=none;align=center;shadow=0;dashed=0;image;fontSize=12;image=img/lib/mscae/KeyVault.svg;spacingTop=3;rotation=-1;" parent="1" vertex="1">
          <mxGeometry x="1020" y="100" width="72.45" height="80.5" as="geometry" />
        </mxCell>
        <mxCell id="AcxdMaKK0mU5kZiv2lnr-29" style="edgeStyle=orthogonalEdgeStyle;rounded=0;orthogonalLoop=1;jettySize=auto;html=1;exitX=0.364;exitY=0.004;exitDx=0;exitDy=0;exitPerimeter=0;strokeColor=#808080;entryX=0.213;entryY=0;entryDx=0;entryDy=0;entryPerimeter=0;" parent="1" source="AcxdMaKK0mU5kZiv2lnr-14" target="bqVkadd0tKrhda9ODERW-13" edge="1">
          <mxGeometry relative="1" as="geometry">
            <mxPoint x="1022.5517241379312" y="209.41379310344826" as="sourcePoint" />
            <mxPoint x="830" y="100" as="targetPoint" />
          </mxGeometry>
        </mxCell>
        <mxCell id="bqVkadd0tKrhda9ODERW-26" style="edgeStyle=orthogonalEdgeStyle;rounded=0;orthogonalLoop=1;jettySize=auto;html=1;strokeColor=#808080;" edge="1" parent="1" source="bqVkadd0tKrhda9ODERW-1" target="AcxdMaKK0mU5kZiv2lnr-4">
          <mxGeometry relative="1" as="geometry" />
        </mxCell>
        <mxCell id="bqVkadd0tKrhda9ODERW-1" value="" style="shape=image;verticalLabelPosition=bottom;labelBackgroundColor=#ffffff;verticalAlign=top;aspect=fixed;imageAspect=0;image=data:image/svg+xml,PHN2ZyB4bWxuczpkYz0iaHR0cDovL3B1cmwub3JnL2RjL2VsZW1lbnRzLzEuMS8iIHhtbG5zOmNjPSJodHRwOi8vY3JlYXRpdmVjb21tb25zLm9yZy9ucyMiIHhtbG5zOnJkZj0iaHR0cDovL3d3dy53My5vcmcvMTk5OS8wMi8yMi1yZGYtc3ludGF4LW5zIyIgeG1sbnM6c3ZnPSJodHRwOi8vd3d3LnczLm9yZy8yMDAwL3N2ZyIgeG1sbnM9Imh0dHA6Ly93d3cudzMub3JnLzIwMDAvc3ZnIiB4bWxuczpzb2RpcG9kaT0iaHR0cDovL3NvZGlwb2RpLnNvdXJjZWZvcmdlLm5ldC9EVEQvc29kaXBvZGktMC5kdGQiIHhtbG5zOmlua3NjYXBlPSJodHRwOi8vd3d3Lmlua3NjYXBlLm9yZy9uYW1lc3BhY2VzL2lua3NjYXBlIiB2ZXJzaW9uPSIxLjEiIGlkPSJzdmc2OTQ4IiBpbmtzY2FwZTp2ZXJzaW9uPSIwLjkyLjMgKDI0MDU1NDYsIDIwMTgtMDMtMTEpIiBzb2RpcG9kaTpkb2NuYW1lPSJhbWF6b25fd2ViX3NlcnZpY2VzLnN2ZyIgeD0iMHB4IiB5PSIwcHgiIHZpZXdCb3g9IjAgMCAxNTQuMzUgODIuOTkiIHN0eWxlPSJlbmFibGUtYmFja2dyb3VuZDpuZXcgMCAwIDE1NC4zNSA4Mi45OTsiIHhtbDpzcGFjZT0icHJlc2VydmUiPjxtZXRhZGF0YSBpZD0ibWV0YWRhdGE3OTU0MSI+PHJkZjpSREY+PGNjOldvcmsgcmRmOmFib3V0PSIiPjxkYzpmb3JtYXQ+aW1hZ2Uvc3ZnK3htbDwvZGM6Zm9ybWF0PjxkYzp0eXBlIHJkZjpyZXNvdXJjZT0iaHR0cDovL3B1cmwub3JnL2RjL2RjbWl0eXBlL1N0aWxsSW1hZ2UiLz48ZGM6dGl0bGUvPjwvY2M6V29yaz48L3JkZjpSREY+PC9tZXRhZGF0YT48ZGVmcyBpZD0iZGVmczc5NTM5Ij4mI3hhOwkmI3hhOwkmI3hhOyYjeGE7CQkmI3hhOwkJJiN4YTsJCSYjeGE7CSYjeGE7CQkJJiN4YTsJCQkmI3hhOwkJCSYjeGE7CQkmI3hhOwkJCSYjeGE7CQkJJiN4YTsJCSYjeGE7CQkJCSYjeGE7CQkJCSYjeGE7CQkJCSYjeGE7CQkJJiN4YTsJCQkJJiN4YTsJCQkJJiN4YTsJCQkJJiN4YTsJCQk8L2RlZnM+JiN4YTs8c29kaXBvZGk6bmFtZWR2aWV3IGJvcmRlcmNvbG9yPSIjNjY2NjY2IiBib3JkZXJvcGFjaXR5PSIxIiBmaXQtbWFyZ2luLWJvdHRvbT0iMCIgZml0LW1hcmdpbi1sZWZ0PSIwIiBmaXQtbWFyZ2luLXJpZ2h0PSIwIiBmaXQtbWFyZ2luLXRvcD0iMCIgZ3JpZHRvbGVyYW5jZT0iMTAiIGd1aWRldG9sZXJhbmNlPSIxMCIgaWQ9Im5hbWVkdmlldzY5NTAiIGlua3NjYXBlOmN1cnJlbnQtbGF5ZXI9InN2ZzY5NDgiIGlua3NjYXBlOmN4PSI5OC43NjMxNjUiIGlua3NjYXBlOmN5PSIyMy44Mzg4MSIgaW5rc2NhcGU6cGFnZW9wYWNpdHk9IjAiIGlua3NjYXBlOnBhZ2VzaGFkb3c9IjIiIGlua3NjYXBlOndpbmRvdy1oZWlnaHQ9IjEwMTciIGlua3NjYXBlOndpbmRvdy1tYXhpbWl6ZWQ9IjEiIGlua3NjYXBlOndpbmRvdy13aWR0aD0iMTkyMCIgaW5rc2NhcGU6d2luZG93LXg9Ii04IiBpbmtzY2FwZTp3aW5kb3cteT0iLTgiIGlua3NjYXBlOnpvb209IjQuOTAzNDk5IiBvYmplY3R0b2xlcmFuY2U9IjEwIiBwYWdlY29sb3I9IiNmZmZmZmYiIHNob3dncmlkPSJmYWxzZSI+JiN4YTsJPC9zb2RpcG9kaTpuYW1lZHZpZXc+JiN4YTs8cGF0aCBkPSJtIDEzNS44Mjk4NCw0MC44ODgyODggYyAwLDAgMTguNTIsMS45NCAxOC41MiwyMS42MyAwLDkuMjcgLTUuNCwyMC40NyAtMTguNTIsMjAuNDcgMCwwIC0xMDEuMDk5OTk1LDAgLTEwNy42NTk5OTUsMCAtMjAuODQwMDAwMiwwIC0yOC4xNzAwMDAyNSwtMTMuNTIgLTI4LjE3MDAwMDI1LC0yNy40MiAwLC0yMy4xNyAyNy4wMTAwMDAyNSwtMjMuOTQgMjcuMDEwMDAwMjUsLTIzLjk0IDAsMCAyLjMyLC0yNS40ODk5OTk2IDI2LjI0LC0zMC41MDk5OTk2IDIwLjg0LC00LjY0IDMyLjgsNi4xNyAzOC41OSwxMy44OTk5OTk2IDAsMCAxMi43Mjk5OTUsLTYuOTQ5OTk5NiAyNy4zODk5OTUsLTAuNzcgOC44OCwzLjg2IDE2Ljk4LDEyLjc0IDE2LjYsMjYuNjQgeiIgc3R5bGU9ImZpbGw6I2Y1ODUzNSIgaW5rc2NhcGU6Y29ubmVjdG9yLWN1cnZhdHVyZT0iMCIgaWQ9InBhdGg2OTIzIi8+PHBhdGggaWQ9InBhdGg2OTMzIiBpbmtzY2FwZTpjb25uZWN0b3ItY3VydmF0dXJlPSIwIiBzdHlsZT0iZmlsbDojZmZmZmZmIiBkPSJtIDU5LjA4OTg0NSw0Mi45MjIyODggYyAtMiwwIC00LjI0LDAuNzcgLTQuNywzLjMxIC0wLjA1LDAuMjcgMC4xMywwLjQgMC4zLDAuNDQgbCAyLjA1LDAuMjQgYyAwLjE5LDAgMC4zMiwtMC4yMSAwLjM1LC0wLjQxIDAuMTgsLTAuODcgMC45LC0xLjI4IDEuNywtMS4yOCAwLjQzLDAgMC45MiwwLjE1IDEuMTcsMC41NSAwLjMsMC40NCAwLjI4LDEuMDQgMC4yOCwxLjU1IHYgMC4zIGMgLTEuMjIsMC4xNSAtMi44MywwLjIzIC0zLjk3LDAuNzQgLTEuMzEsMC41OSAtMi4yNCwxLjc4IC0yLjI0LDMuNTMgMCwyLjI0IDEuMzcsMy4zNiAzLjE0LDMuMzYgMS41LDAgMi4zMiwtMC4zNSAzLjQ4LC0xLjU1IDAuMzgsMC41NiAwLjUsMC44MiAxLjIsMS40MiAwLjE2LDAuMDggMC4zNSwwLjA3IDAuNDksLTAuMDYgdiAwLjAzIGMgMC40MiwtMC4zOCAxLjE5LC0xLjA4IDEuNjIsLTEuNDUgMC4xNywtMC4xNCAwLjEzLC0wLjM4IDAsLTAuNTcgLTAuMzksLTAuNTUgLTAuOCwtMC45OSAtMC44LC0yIHYgLTMuMzYgYyAwLC0xLjQzIDAuMTIsLTIuNzQgLTAuOSwtMy43MiAtMC44MSwtMC43OSAtMi4xNSwtMS4wNyAtMy4xNywtMS4wNyB6IG0gMjcuNTYsMCBjIC0yLDAgLTQuMjMsMC43NyAtNC43LDMuMzEgLTAuMDUsMC4yNyAwLjEyLDAuNCAwLjMsMC40NCBsIDIuMDUsMC4yNCBjIDAuMTksMCAwLjMyLC0wLjIxIDAuMzUsLTAuNDEgMC4xOCwtMC44NyAwLjksLTEuMjggMS43LC0xLjI4IDAuNDMsMCAwLjkyLDAuMTUgMS4xNywwLjU1IDAuMjksMC40NCAwLjI1LDEuMDQgMC4yNSwxLjU1IHYgMC4zIGMgLTEuMjIsMC4xNSAtMi44LDAuMjMgLTMuOTQsMC43NCAtMS4zMiwwLjU5IC0yLjI0LDEuNzggLTIuMjQsMy41MyAwLDIuMjQgMS4zNywzLjM2IDMuMTQsMy4zNiAxLjUsMCAyLjMyLC0wLjM1IDMuNDgsLTEuNTUgMC4zOCwwLjU2IDAuNSwwLjgyIDEuMiwxLjQyIDAuMTYsMC4wOCAwLjM1LDAuMDcgMC40OSwtMC4wNiB2IDAuMDMgYyAwLjQyLC0wLjM4IDEuMTgsLTEuMDggMS42MSwtMS40NSAwLjE4LC0wLjE0IDAuMTQsLTAuMzggMCwtMC41NyAtMC4zOCwtMC41NSAtMC43OSwtMC45OSAtMC43OSwtMiB2IC0zLjM2IGMgMCwtMS40MyAwLjEsLTIuNzQgLTAuOTMsLTMuNzIgLTAuOCwtMC43OSAtMi4xMiwtMS4wNyAtMy4xNCwtMS4wNyB6IG0gLTE1LjUsMC4xMSBjIC0xLjMsMCAtMi4yNiwwLjY1IC0yLjc3LDIuMDUgaCAtMC4wMiB2IC0xLjQ1IGMgLTAuMDEsLTAuMiAtMC4xOCwtMC4zNyAtMC4zOCwtMC4zOCBoIC0xLjk3IGMgLTAuMjMsMCAtMC40MSwwLjE5IC0wLjQxLDAuNDEgdiAxMS4wNyBjIDAuMDEsMC4yIDAuMTgsMC4zNyAwLjM4LDAuMzkgaCAyLjEgYyAwLjIzLDAgMC40MSwtMC4xOSAwLjQxLC0wLjQxIHYgLTUuODggYyAwLC0xLjI4IC0wLjA2LC0zLjA0IDEuNDUsLTMuMDQgMS41LDAgMS4yOSwxLjgxIDEuMjksMy4wNCB2IDUuODggYyAwLDAuMjEgMC4xNywwLjM5IDAuMzgsMC40MSBoIDIuMTEgYyAwLjIyLDAgMC40MSwtMC4xOSAwLjQxLC0wLjQxIHYgLTUuODggYyAwLC0wLjYzIC0wLjAzLC0xLjU1IDAuMTksLTIuMTEgMC4yMSwtMC41NiAwLjc0LC0wLjkzIDEuMjYsLTAuOTMgMC42MSwwIDEuMDcsMC4yMiAxLjIzLDAuOTYgMC4wOSwwLjQ1IDAuMDUsMS42MSAwLjA1LDIuMDggdiA1Ljg4IGMgMCwwLjIxIDAuMTcsMC4zOSAwLjM4LDAuNDEgaCAyLjExIGMgMC4yMiwwIDAuNDEsLTAuMTkgMC40MSwtMC40MSB2IC03IGMgMCwtMS4xOSAwLjEyLC0yLjU0IC0wLjU1LC0zLjQ3IC0wLjU5LC0wLjg0IC0xLjU1LC0xLjIxIC0yLjQzLC0xLjIxIC0xLjI0LDAgLTIuMzksMC42NSAtMi45LDIuMDUgLTAuNTksLTEuNCAtMS40MiwtMi4wNSAtMi43MywtMi4wNSB6IG0gMzUuNzg5OTk1LDAgYyAtMy4wNDk5OSwwIC00LjcyOTk5LDIuNjggLTQuNzI5OTksNi4xMyAwLDMuNDIgMS42Njk5OSw2LjE3IDQuNzI5OTksNi4xNyAyLjk0LDAgNC44MSwtMi42OCA0LjgxLC02LjA2IDAsLTMuNSAtMS42OSwtNi4yNCAtNC44MSwtNi4yNCB6IG0gMTIsMCBjIC0xLjQ0OTk5LDAgLTIuMjgsMC43MyAtMi44Njk5OSwyLjI0IGggLTAuMDMgdiAtMS42OSBjIC0wLjA0LC0wLjE3IC0wLjIwMDAxLC0wLjI5IC0wLjM4MDAxLC0wLjMgaCAtMS45NCBjIC0wLjIwOTk5LDAgLTAuMzg5OTksMC4xNSAtMC40MSwwLjM1IHYgMTEuMDggYyAwLDAuMjEgMC4xNzAwMSwwLjM5IDAuMzgwMDEsMC40MSBoIDIuMDggYyAwLjIyLDAgMC40LC0wLjE5IDAuNDEsLTAuNDEgdiAtNS45NiBjIDAsLTAuNzUgMC4wNiwtMS40MyAwLjM0OTk5LC0yLjExIDAuMjQwMDEsLTAuNTMgMC42OSwtMC44NyAxLjIxMDAxLC0wLjg3IDEuNDQ5OTksMCAxLjMxLDEuNzcgMS4zMSwyLjk4IHYgNi4wMSBjIDAuMDIsMC4xOSAwLjE5LDAuMzUgMC4zOCwwLjM2IGggMi4xMDk5OSBjIDAuMjAwMDEsMCAwLjM4LC0wLjE2IDAuNDEsLTAuMzYgdiAtNi45NyBjIDAsLTEuMDcgMCwtMi41NiAtMC41NDk5OSwtMy40NCAtMC41OTAwMSwtMC45NiAtMS41MjAwMSwtMS4zMiAtMi40NjAwMSwtMS4zMiB6IG0gLTI1LjI1OTk5NSwwLjE5IGMgLTAuMjIsMCAtMC4zOSwwLjE3IC0wLjM5LDAuNDEgdiAxLjU5IGMgMCwwLjI0IDAuMTcsMC40MSAwLjM5LDAuNDEgaCAzLjYxIGwgLTQuMTMsNi4xIGMgLTAuMjYsMC4zOSAtMC4yOCwwLjgzIC0wLjI4LDEuMDkgdiAxLjYxIGMgMCwwLjI0IDAuMjYsMC40OSAwLjUsMC4zNiAyLjM1LC0xLjI5IDUuMTcsLTEuMTcgNy4yOTk5OTUsLTAuMDMgMC4yNSwwLjE0IDAuNTIsLTAuMTIgMC41MiwtMC4zNSB2IC0xLjcgYyAtMC4wMiwtMC4yMiAtMC4xMSwtMC40NCAtMC4zOSwtMC42IC0xLjE5OTk5NSwtMC42OSAtMi42MDk5OTUsLTAuOTEgLTMuOTI5OTk1LC0wLjg3IGwgMy41Nzk5OTUsLTUuMjUgYyAwLjMzLC0wLjQ4IDAuNTEsLTAuNzYgMC41MiwtMC45OSB2IC0xLjM3IGMgMCwtMC4yMyAtMC4xNiwtMC40MSAtMC4zOSwtMC40MSB6IG0gMTMuMjU5OTk1LDIuMDggYyAwLjY2LDAgMS4xNiwwLjMgMS4zOSwxLjA3IDAuMjgsMC44OCAwLjMsMS45OSAwLjMsMi45MiAwLDEuNDIgLTAuMDYsMy43OCAtMS42OSwzLjc4IC0xLjY1LDAgLTEuNjQsLTIuOTIgLTEuNjQsLTQuMjcgMCwtMS4zNSAwLjA5LC0zLjUgMS42NCwtMy41IHogbSAtNDYuNzI5OTk1LDQuMDUgdiAwLjQ2IGMgMCwwLjg0IDAuMDMsMS41NSAtMC4zOCwyLjMgLTAuMzQsMC42MSAtMC44NiwwLjk4IC0xLjQ1LDAuOTggLTAuODEsMCAtMS4yOSwtMC42NSAtMS4yOSwtMS41OCAwLC0xLjg0IDEuNiwtMi4xNiAzLjEyLC0yLjE2IHogbSAyNy41NiwwIHYgMC40NiBjIDAsMC44NCAwLjAzLDEuNTUgLTAuMzgsMi4zIC0wLjM0LDAuNjEgLTAuODYsMC45OCAtMS40NSwwLjk4IC0wLjgxLDAgLTEuMjksLTAuNjUgLTEuMjksLTEuNTggMCwtMS44NCAxLjYsLTIuMTYgMy4xMiwtMi4xNiB6IG0gMTMuNjM5OTk1LDYuMTIgdiAxLjU5IGggMS4wNyB2IC0xLjU5IHogbSAtMzAuOTE5OTk1LDAuMjggdiAxMS4yOSBoIDAuOTkgdiAtMS4wMSBjIDAuMjEsMC40IDAuNDQsMC43IDAuNzMsMC45IDAuMjksMC4yIDAuNjIsMC4zIDAuOTksMC4zIDAuNzIsMCAxLjM1LC0wLjM3IDEuODksLTEuMTIgMC41MywtMC43NSAwLjgxLC0xLjg0IDAuODEsLTMuMjMgMCwtMC45MSAtMC4xMSwtMS42NiAtMC4zNSwtMi4zIC0wLjI0LC0wLjYzIC0wLjU2LC0xLjEgLTAuOTYsLTEuNDIgLTAuNCwtMC4zMSAtMC44NSwtMC40OSAtMS4zNCwtMC40OSAtMC4zNSwwIC0wLjY3LDAuMDkgLTAuOTYsMC4yNyAtMC4yOCwwLjE5IC0wLjUxLDAuNDggLTAuNzMsMC44NSB2IC00LjA1IGggLTEuMDcgeiBtIDEwLjEyLDIuNjUgYyAtMC43NSwwIC0xLjMzLDAuMjIgLTEuNzUsMC42NSAtMC40MiwwLjQ0IC0wLjYzLDEgLTAuNjMsMS43IDAsMC40IDAuMDksMC43NSAwLjI0LDEuMDYgMC4xNiwwLjMyIDAuMzgsMC41OCAwLjY2LDAuNzcgMC4yOCwwLjE5IDAuODQsMC40NCAxLjY3LDAuNzEgMC41NywwLjE5IDAuOTEsMC4zNCAxLjA2LDAuNDcgMC4yMiwwLjE4IDAuMzMsMC40MSAwLjMzLDAuNzQgMCwwLjM3IC0wLjEzLDAuNjggLTAuMzgsMC45MiAtMC4yNSwwLjI1IC0wLjYsMC4zNiAtMS4wNywwLjM2IC0wLjQ2LDAgLTAuODQsLTAuMTMgLTEuMTIsLTAuNDEgLTAuMjgsLTAuMjggLTAuNDMsLTAuNzEgLTAuNDksLTEuMjggbCAtMS4wNywwLjIxIGMgMC4yNSwxLjc2IDEuMTIsMi42MyAyLjYzLDIuNjMgMC44MSwwIDEuNDIsLTAuMjMgMS44OSwtMC43MSAwLjQ2LC0wLjQ5IDAuNzEsLTEuMTMgMC43MSwtMS45MiAwLC0wLjQyIC0wLjA4LC0wLjc4IC0wLjIyLC0xLjA5IC0wLjE1LC0wLjMxIC0wLjM0LC0wLjUzIC0wLjYsLTAuNzEgLTAuMjYsLTAuMTggLTAuODQsLTAuNDEgLTEuNzMsLTAuNzEgLTAuNjQsLTAuMjMgLTEuMDEsLTAuMzkgLTEuMTQsLTAuNDkgLTAuMjIsLTAuMTggLTAuMzMsLTAuNDEgLTAuMzMsLTAuNzIgMCwtMC4zIDAuMSwtMC41NiAwLjMzLC0wLjc2IDAuMjIsLTAuMiAwLjU3LC0wLjMgMS4wMywtMC4zIDAuODIsMCAxLjI3LDAuNDUgMS4zNywxLjM0IGwgMS4wNCwtMC4xNyBjIC0wLjA3LC0wLjU2IC0wLjE5LC0xIC0wLjM4LC0xLjMxIC0wLjE5LC0wLjMgLTAuNDcsLTAuNTYgLTAuODIsLTAuNzQgLTAuMzYsLTAuMTcgLTAuNzcsLTAuMjQgLTEuMjMsLTAuMjQgeiBtIDYuNTMsMCBjIC0wLjg1LDAgLTEuNTgsMC4zNSAtMi4xMywxLjA5IC0wLjU2LDAuNzQgLTAuODIsMS44MiAtMC44MiwzLjIzIDAsMS4zNiAwLjI3LDIuNDIgMC44MiwzLjE0IDAuNTUsMC43MiAxLjI3LDEuMDcgMi4xNiwxLjA3IDAuNzEsMCAxLjMsLTAuMjEgMS43OCwtMC42NiAwLjQ4LC0wLjQ0IDAuODIsLTEuMDkgMS4wMSwtMS45NyBsIC0xLjEsLTAuMTkgYyAtMC4zMSwxLjEyIC0wLjg5LDEuNjcgLTEuNjksMS42NyAtMC41MSwwIC0wLjkzLC0wLjIyIC0xLjI5LC0wLjY4IC0wLjM1LC0wLjQ3IC0wLjU1LC0xLjE2IC0wLjYsLTIuMDggaCA0LjcgdiAtMC4zOCBjIDAsLTEuMzggLTAuMjcsLTIuNDIgLTAuODIsLTMuMTUgLTAuNTQsLTAuNzMgLTEuMiwtMS4wOSAtMi4wMiwtMS4wOSB6IG0gNi40OCwwIGMgLTAuMjUsMCAtMC40OCwwLjA4IC0wLjY4LDAuMjcgLTAuMjEsMC4xOSAtMC40NCwwLjU3IC0wLjY4LDEuMTUgdiAtMS4yNiBoIC0wLjk2IHYgOC4xOCBoIDEuMDYgdiAtNC4yNyBjIDAsLTAuNTkgMC4wNiwtMS4xNiAwLjIsLTEuNjkgMC4wNywtMC4zMSAwLjIyLC0wLjU1IDAuNDEsLTAuNzEgMC4xOCwtMC4xNyAwLjQsLTAuMjUgMC42MiwtMC4yNSAwLjI2LDAgMC41LDAuMSAwLjc3LDAuMyBsIDAuMzYsLTEuMjggYyAtMC4zOCwtMC4zIC0wLjc0LC0wLjQ0IC0xLjEsLTAuNDQgeiBtIDEzLjA2OTk5NSwwIGMgLTAuODQsMCAtMS41Mzk5OSwwLjM1IC0yLjA4LDEuMDYgLTAuNTMsMC43MSAtMC44MiwxLjc4IC0wLjgyLDMuMiAwLDEuNDEgMC4yOSwyLjQ4IDAuODIsMy4yIDAuNTQwMDEsMC43MiAxLjIsMS4wNyAyLjAzLDEuMDcgMC42OCwwIDEuMjYwMDEsLTAuMjYgMS43NSwtMC43NyAwLjQ4LC0wLjUxIDAuNzgsLTEuMjcgMC45LC0yLjI0IGwgLTEuMDQsLTAuMTYgYyAtMC4wOCwwLjY5IC0wLjI1OTk5LDEuMTkgLTAuNTUsMS41MyAtMC4yOCwwLjMzIC0wLjYzLDAuNDkgLTEuMDQsMC40OSAtMC41MDk5OSwwIC0wLjk0OTk5LC0wLjI0IC0xLjI4LC0wLjc0IC0wLjMyOTk5LC0wLjUgLTAuNDksLTEuMjkgLTAuNDksLTIuNDEgMCwtMS4wNyAwLjE3LC0xLjg1IDAuNTIsLTIuMzUgMC4zNCwtMC40OSAwLjc4LC0wLjc2IDEuMzEsLTAuNzYgMC4zNTAwMSwwIDAuNjUsMC4xMyAwLjksMC40MSAwLjI1LDAuMjcgMC40MjAwMSwwLjcgMC41MjAwMSwxLjI1IGwgMS4wNCwtMC4yMSBjIC0wLjEzLC0wLjg3IC0wLjQwMDAxLC0xLjUyIC0wLjg1LC0xLjk1IC0wLjQ1MDAxLC0wLjQyIC0wLjk5MDAxLC0wLjYyIC0xLjY0MDAxLC0wLjYyIHogbSA2LjEsMCBjIC0wLjg1OTk5LDAgLTEuNTc5OTksMC4zNSAtMi4xMzk5OSwxLjA5IC0wLjU1MDAxLDAuNzQgLTAuODEwMDEsMS44MiAtMC44MTAwMSwzLjIzIDAsMS4zNiAwLjI2LDIuNDIgMC44MTAwMSwzLjE0IDAuNTYsMC43MiAxLjI2OTk5LDEuMDcgMi4xNTk5OSwxLjA3IDAuNzEsMCAxLjMsLTAuMjEgMS43OCwtMC42NiAwLjQ4LC0wLjQ0IDAuODMsLTEuMDkgMS4wMSwtMS45NyBsIC0xLjA4OTk5LC0wLjE5IGMgLTAuMzIwMDEsMS4xMiAtMC44NywxLjY3IC0xLjY3MDAxLDEuNjcgLTAuNTA5OTksMCAtMC45NDk5OSwtMC4yMiAtMS4zMSwtMC42OCAtMC4zNTk5OSwtMC40NyAtMC41NiwtMS4xNiAtMC41OTk5OSwtMi4wOCBoIDQuNyB2IC0wLjM4IGMgMCwtMS4zOCAtMC4yOCwtMi40MiAtMC44MjAwMSwtMy4xNSAtMC41Mzk5OSwtMC43MyAtMS4yMDk5OSwtMS4wOSAtMi4wMiwtMS4wOSB6IG0gNi4zMSwwIGMgLTAuNzM5OTksMCAtMS4zMjk5OSwwLjIyIC0xLjc1LDAuNjUgLTAuNDE5OTksMC40NCAtMC42MywxIC0wLjYzLDEuNyAwLDAuNCAwLjA3LDAuNzUgMC4yMiwxLjA2IDAuMTYsMC4zMiAwLjM4LDAuNTggMC42NiwwLjc3IDAuMjgsMC4xOSAwLjg0LDAuNDQgMS42NywwLjcxIDAuNTcsMC4xOSAwLjk0LDAuMzQgMS4wOSwwLjQ3IDAuMjIsMC4xOCAwLjMzLDAuNDEgMC4zMywwLjc0IDAsMC4zNyAtMC4xMywwLjY4IC0wLjM4LDAuOTIgLTAuMjYsMC4yNSAtMC42MSwwLjM2IC0xLjA2OTk5LDAuMzYgLTAuNDYwMDEsMCAtMC44NCwtMC4xMyAtMS4xMjAwMSwtMC40MSAtMC4yOCwtMC4yOCAtMC40NiwtMC43MSAtMC41MiwtMS4yOCBsIC0xLjA2LDAuMjEgYyAwLjI0LDEuNzYgMS4xMSwyLjYzIDIuNjIsMi42MyAwLjgxLDAgMS40NSwtMC4yMyAxLjkxLC0wLjcxIDAuNDcsLTAuNDkgMC43MiwtMS4xMyAwLjcyLC0xLjkyIDAsLTAuNDIgLTAuMDgsLTAuNzggLTAuMjIsLTEuMDkgLTAuMTUsLTAuMzEgLTAuMzcsLTAuNTMgLTAuNjMsLTAuNzEgLTAuMjYsLTAuMTggLTAuODEsLTAuNDEgLTEuNywtMC43MSAtMC42NCwtMC4yMyAtMS4wNCwtMC4zOSAtMS4xNywtMC40OSAtMC4yMiwtMC4xOCAtMC4zMywtMC40MSAtMC4zMywtMC43MiAwLC0wLjMgMC4xMywtMC41NyAwLjM1LC0wLjc2IDAuMjMsLTAuMiAwLjU4LC0wLjMgMS4wNCwtMC4zIDAuODIsMCAxLjI3LDAuNDUgMS4zNywxLjM0IGwgMS4wNCwtMC4xNyBjIC0wLjA3LC0wLjU2IC0wLjE5LC0xIC0wLjM4LC0xLjMxIC0wLjE5LC0wLjMgLTAuNDcsLTAuNTYgLTAuODIsLTAuNzQgLTAuMzU5OTksLTAuMTcgLTAuNzY5OTksLTAuMjQgLTEuMjQsLTAuMjQgeiBtIC0yNC4zODk5OTUsMC4xNiAyLjM4LDguMTggaCAxLjAyIGwgMi4zNjk5OTUsLTguMTggaCAtMS4wODk5OTUgbCAtMS4zOSw1LjAxIGMgLTAuMTcsMC42IC0wLjMyLDEuMTIgLTAuNDEsMS41NSAtMC4xMiwtMC41NCAtMC4yMywtMS4xMSAtMC4zOSwtMS42NiBsIC0xLjM2LC00LjkgeiBtIDYuNjk5OTk1LDAgdiA4LjE4IGggMS4wNyB2IC04LjE4IHogbSAtMzUuMDQ5OTk1LDAuMTEgYyAtMC44NCwwIC0xLjUzLDAuMzggLTIuMDgsMS4xMiAtMC41NSwwLjc0IC0wLjg0LDEuODIgLTAuODQsMy4yMyAwLDEuMzYgMC4yNywyLjQgMC44MiwzLjEyIDAuNTQsMC43MiAxLjI3LDEuMDkgMi4xNiwxLjA5IDAuNywwIDEuMjcsLTAuMjQgMS43NSwtMC42OCAwLjQ3LC0wLjQ1IDAuOCwtMS4xIDAuOTgsLTEuOTcgbCAtMS4wNywtMC4xNiBjIC0wLjMxLDEuMTEgLTAuODcsMS42NiAtMS42NiwxLjY2IC0wLjUxLDAgLTAuOTMsLTAuMjEgLTEuMjksLTAuNjggLTAuMzUsLTAuNDcgLTAuNTYsLTEuMTYgLTAuNiwtMi4wOCBoIDQuNjUgbCAwLjAzLC0wLjM4IGMgMCwtMS4zOCAtMC4yOSwtMi40NCAtMC44MiwtMy4xNyAtMC41NCwtMC43MyAtMS4yMiwtMS4xIC0yLjAzLC0xLjEgeiBtIC0xMiwwLjE5IDEuOTEsOC4xOCBoIDEuMTIgbCAxLjI2LC02LjI5IDAuMjIsMS4zOSAxLjAxLDQuOSBoIDEuMSBsIDEuOTQsLTguMTggaCAtMS4wMSBsIC0xLjA3LDQuNzMgLTAuMzYsMS41OSAtMC4zMiwtMS41OSAtMC45MywtNC43MyBoIC0xLjEgbCAtMC45OCw0Ljc5IC0wLjMzLDEuNjkgLTAuMzgsLTEuNzUgLTAuOTksLTQuNzMgeiBtIDY4LjA0OTk5NSwwLjA4IHYgMC4zOSBoIDEuMDQwMDEgdiAyLjczIGggMC40MSB2IC0yLjczIGggMS4wNCB2IC0wLjM5IHogbSAyLjksMCB2IDMuMTIgaCAwLjM4IHYgLTIuNjUgbCAwLjksMi42NSBoIDAuMzkwMDEgbCAwLjksLTIuNiB2IDIuNiBoIDAuNDEgdiAtMy4xMiBoIC0wLjU4IGwgLTAuNzMsMi4xOSBjIC0wLjA4LDAuMjIgLTAuMTMsMC4zOCAtMC4xNzAwMSwwLjQ5IGwgLTAuMTU5OTksLTAuNDYgLTAuNzQsLTIuMjIgeiBtIC0zOC4xOTk5OTUsMC41OCBjIDAuNTMsMCAwLjk3LDAuMjYgMS4zMiwwLjc2IDAuMjMsMC4zNSAwLjM4LDAuODggMC40MywxLjU5IGggLTMuNTIgYyAwLjAzLC0wLjcyIDAuMjMsLTEuMjcgMC41NywtMS42OSAwLjM0LC0wLjQzIDAuNzMsLTAuNjYgMS4yLC0wLjY2IHogbSAyNS42NTAwMDUsMCBjIDAuNTMsMCAwLjk2OTk5LDAuMjYgMS4zMSwwLjc2IDAuMjM5OTksMC4zNSAwLjM5LDAuODggMC40NCwxLjU5IGggLTMuNTMwMDEgYyAwLjA0LC0wLjcyIDAuMjQsLTEuMjcgMC41OCwtMS42OSAwLjMzLC0wLjQzIDAuNzIsLTAuNjYgMS4yMDAwMSwtMC42NiB6IG0gLTQ2LjQwMDAwNSwwLjMgYyAwLjUzLDAgMC45NSwwLjI2IDEuMjksMC43NyAwLjIzLDAuMzQgMC4zOSwwLjg3IDAuNDMsMS41OCBoIC0zLjQ3IGMgMC4wNCwtMC43MiAwLjIxLC0xLjMgMC41NSwtMS43MiAwLjMzLC0wLjQyIDAuNzMsLTAuNjMgMS4yLC0wLjYzIHogbSA2Ljc4LDAgYyAwLjQ4LDAgMC44OCwwLjI2IDEuMjEsMC43NyAwLjMyLDAuNSAwLjQ2LDEuMjcgMC40NiwyLjM1IDAsMS4wNCAtMC4xNSwxLjgyIC0wLjQ5LDIuMzUgLTAuMzQsMC41MiAtMC43NCwwLjc5IC0xLjE4LDAuNzkgLTAuMzIsMCAtMC42MSwtMC4xMSAtMC44NywtMC4zMyAtMC4yNywtMC4yMiAtMC40NiwtMC41MyAtMC42LC0wLjk1IC0wLjE1LC0wLjQzIC0wLjIyLC0xLjA3IC0wLjIyLC0xLjkyIDAsLTAuOTkgMC4xOCwtMS43NCAwLjUyLC0yLjI3IDAuMzQsLTAuNTIgMC43NCwtMC43OSAxLjE3LC0wLjc5IHoiLz48cGF0aCBpZD0icGF0aDY5NDEiIGlua3NjYXBlOmNvbm5lY3Rvci1jdXJ2YXR1cmU9IjAiIHN0eWxlPSJmaWxsOiNmZmZmZmYiIGQ9Im0gMzkuMDI5NTQ1LDUxLjE1MDM4OCAtNC4wNywxLjc2IDMuNzcsMS42MSA0LjM4LC0xLjYxIHogbSAtNi4xMiwyLjE5IC0wLjE0LDcuODggNS45NiwyLjYyIHYgLTguMTcgeiBtIDEyLjI1LDAgLTUuMzksMi4wNSB2IDcuNzEgbCA1LjM5LC0yLjE4IHogbSA2LjQyLC0yNC41IC00LjEsMS43NSAzLjgsMS42MiA0LjM4LC0xLjYyIHogbSAtNS42OCwyLjMzIHYgNy44NyBsIDUuMDgsMS40OCAwLjE3LC03LjE2IHogbSAxMS4zNywwLjQ0IC00LjgxLDIuMDUgdiA3LjczIGwgNC44MSwtMi4xOCB6IG0gLTI0Ljk1LDguMzIgLTQuMDcsMS43NSAzLjc3LDEuNjEgNC4zOCwtMS42MSB6IG0gLTYuMTIsMi4xOCAtMC4xNCw3Ljg4IDUuOTYsMi42MiB2IC04LjE3IHogbSAxMi4yNSwwIC01LjM5LDIuMDUgdiA3LjcxIGwgNS4zOSwtMi4xOCB6IG0gNywtMi40NyAtNC4wOCwxLjc1IDMuNzgsMS42MSA0LjM3LC0xLjYxIHogbSAtNi4xMywyLjE4IC0wLjE0LDcuODggNS45NiwyLjYyIHYgLTguMTcgeiBtIDEyLjI1LDAgLTUuMzksMi4wNSB2IDcuNzEgbCA1LjM5LC0yLjE4IHogbSAxMi44MywtMTIuOTggLTQuMDcsMS43NSAzLjc3LDEuNjIgNC4zOCwtMS42MiB6IG0gLTYuMTIsMi4xOSAtMC4xNCw3Ljg4IDUuOTYsMi42MiB2IC04LjE3IHogbSAxMi4yNSwwIC01LjM5LDIuMDUgdiA3LjcxIGwgNS4zOSwtMi4xOCB6Ii8+JiN4YTs8L3N2Zz4=;" vertex="1" parent="1">
          <mxGeometry x="-142" width="154" height="83" as="geometry" />
        </mxCell>
        <mxCell id="bqVkadd0tKrhda9ODERW-76" style="edgeStyle=orthogonalEdgeStyle;rounded=0;orthogonalLoop=1;jettySize=auto;html=1;strokeColor=#808080;" edge="1" parent="1" source="bqVkadd0tKrhda9ODERW-3" target="bqVkadd0tKrhda9ODERW-70">
          <mxGeometry relative="1" as="geometry" />
        </mxCell>
        <mxCell id="bqVkadd0tKrhda9ODERW-3" value="" style="shape=image;verticalLabelPosition=bottom;labelBackgroundColor=#ffffff;verticalAlign=top;aspect=fixed;imageAspect=0;image=data:image/svg+xml,PHN2ZyB4bWxuczpjYz0iaHR0cDovL2NyZWF0aXZlY29tbW9ucy5vcmcvbnMjIiB4bWxuczpkYz0iaHR0cDovL3B1cmwub3JnL2RjL2VsZW1lbnRzLzEuMS8iIHhtbG5zOmlua3NjYXBlPSJodHRwOi8vd3d3Lmlua3NjYXBlLm9yZy9uYW1lc3BhY2VzL2lua3NjYXBlIiB4bWxuczpyZGY9Imh0dHA6Ly93d3cudzMub3JnLzE5OTkvMDIvMjItcmRmLXN5bnRheC1ucyMiIHhtbG5zOnNvZGlwb2RpPSJodHRwOi8vc29kaXBvZGkuc291cmNlZm9yZ2UubmV0L0RURC9zb2RpcG9kaS0wLmR0ZCIgeG1sbnM6c3ZnPSJodHRwOi8vd3d3LnczLm9yZy8yMDAwL3N2ZyIgeG1sbnM9Imh0dHA6Ly93d3cudzMub3JnLzIwMDAvc3ZnIiB4bWxuczp4bGluaz0iaHR0cDovL3d3dy53My5vcmcvMTk5OS94bGluayIgdmVyc2lvbj0iMS4xIiBpZD0ic3ZnODY3MzEiIGlua3NjYXBlOnZlcnNpb249IjAuOTIuMyAoMjQwNTU0NiwgMjAxOC0wMy0xMSkiIHNvZGlwb2RpOmRvY25hbWU9InNhcF9oYW5hLnN2ZyIgeD0iMHB4IiB5PSIwcHgiIHZpZXdCb3g9IjAgMCA3OC4wNCA2OS43NSIgc3R5bGU9ImVuYWJsZS1iYWNrZ3JvdW5kOm5ldyAwIDAgNzguMDQgNjkuNzU7IiB4bWw6c3BhY2U9InByZXNlcnZlIj4mI3hhOzxzb2RpcG9kaTpuYW1lZHZpZXcgYm9yZGVyY29sb3I9IiM2NjY2NjYiIGJvcmRlcm9wYWNpdHk9IjEiIGZpdC1tYXJnaW4tYm90dG9tPSIwIiBmaXQtbWFyZ2luLWxlZnQ9IjAiIGZpdC1tYXJnaW4tcmlnaHQ9IjAiIGZpdC1tYXJnaW4tdG9wPSIwIiBncmlkdG9sZXJhbmNlPSIxMCIgZ3VpZGV0b2xlcmFuY2U9IjEwIiBpZD0ibmFtZWR2aWV3ODY3MzMiIGlua3NjYXBlOmN1cnJlbnQtbGF5ZXI9InN2Zzg2NzMxIiBpbmtzY2FwZTpjeD0iNjMuNTYzOTc2IiBpbmtzY2FwZTpjeT0iOS43MTY4MzEiIGlua3NjYXBlOnBhZ2VvcGFjaXR5PSIwIiBpbmtzY2FwZTpwYWdlc2hhZG93PSIyIiBpbmtzY2FwZTp3aW5kb3ctaGVpZ2h0PSIxMDE3IiBpbmtzY2FwZTp3aW5kb3ctbWF4aW1pemVkPSIxIiBpbmtzY2FwZTp3aW5kb3ctd2lkdGg9IjE5MjAiIGlua3NjYXBlOndpbmRvdy14PSItOCIgaW5rc2NhcGU6d2luZG93LXk9Ii04IiBpbmtzY2FwZTp6b29tPSIzLjIyNjY0MDkiIG9iamVjdHRvbGVyYW5jZT0iMTAiIHBhZ2Vjb2xvcj0iI2ZmZmZmZiIgc2hvd2dyaWQ9ImZhbHNlIj4mI3hhOwk8L3NvZGlwb2RpOm5hbWVkdmlldz4mI3hhOzxnIGlkPSJnODY3MjkiIHRyYW5zZm9ybT0idHJhbnNsYXRlKC0wLjc1LC0wLjc1KSI+JiN4YTsJPHRpdGxlIGlkPSJ0aXRsZTg2NjEzIj5QYWdlLTE8L3RpdGxlPiYjeGE7CTxnIGlkPSJncm91cDI1NDQtMSIgdHJhbnNmb3JtPSJ0cmFuc2xhdGUoMS41LC0xLjUpIj4mI3hhOwkJPHRpdGxlIGlkPSJ0aXRsZTg2NjE1Ij5TQVAgSEFOQTwvdGl0bGU+JiN4YTsJCTxnIGlkPSJncm91cDI1NDUtMiI+JiN4YTsJCQk8dGl0bGUgaWQ9InRpdGxlODY2MTciPmcxNjQwODwvdGl0bGU+JiN4YTsJCQk8ZyBpZD0ic2hhcGUyNTQ2LTMiPiYjeGE7CQkJCTx0aXRsZSBpZD0idGl0bGU4NjYxOSI+cmVjdDE2MzgwPC90aXRsZT4mI3hhOwkJCQkmI3hhOwkJCQkJPHJlY3QgaWQ9InJlY3Q4NjYyMSIgeT0iMyIgc3R5bGU9ImZpbGw6I0ZGRkZGRjtzdHJva2U6IzU1NkE4QTtzdHJva2Utd2lkdGg6MS41O3N0cm9rZS1taXRlcmxpbWl0OjM7IiB3aWR0aD0iMzkuNzUiIGhlaWdodD0iNjguMjUiLz4mI3hhOwkJCTwvZz4mI3hhOwkJCTxnIGlkPSJncm91cDI1NDctNSIgdHJhbnNmb3JtPSJ0cmFuc2xhdGUoMS41LC0wLjc1KSI+JiN4YTsJCQkJPHRpdGxlIGlkPSJ0aXRsZTg2NjI0Ij5nMTY0MDA8L3RpdGxlPiYjeGE7CQkJCTxnIGlkPSJzaGFwZTI1NDgtNiIgdHJhbnNmb3JtPSJ0cmFuc2xhdGUoMTgpIj4mI3hhOwkJCQkJPHRpdGxlIGlkPSJ0aXRsZTg2NjI2Ij5yZWN0MTYzODI8L3RpdGxlPiYjeGE7CQkJCQk8cmVjdCBpZD0icmVjdDg2NjI4IiB5PSI0LjUiIHN0eWxlPSJmaWxsOiNFNUU1RTU7IiB3aWR0aD0iMTkuNSIgaGVpZ2h0PSI2Ni43NSIvPiYjeGE7CQkJCTwvZz4mI3hhOwkJCQk8ZyBpZD0ic2hhcGUyNTQ5LTgiIHRyYW5zZm9ybT0idHJhbnNsYXRlKDAsLTQ4KSI+JiN4YTsJCQkJCTx0aXRsZSBpZD0idGl0bGU4NjYzMSI+cmVjdDE2Mzg0PC90aXRsZT4mI3hhOwkJCQkJPHJlY3QgaWQ9InJlY3Q4NjYzMyIgeT0iNjkiIHN0eWxlPSJmaWxsOiMyQkM3RjQ7IiB3aWR0aD0iMTgiIGhlaWdodD0iMi4yNSIvPiYjeGE7CQkJCTwvZz4mI3hhOwkJCQk8ZyBpZD0ic2hhcGUyNTUwLTEwIiB0cmFuc2Zvcm09InRyYW5zbGF0ZSgwLC01OC41KSI+JiN4YTsJCQkJCTx0aXRsZSBpZD0idGl0bGU4NjYzNiI+cG9seWdvbjE2Mzg2PC90aXRsZT4mI3hhOwkJCQkJPHJlY3QgaWQ9InJlY3Q4NjYzOCIgeT0iNjkiIHN0eWxlPSJmaWxsOm5vbmU7IiB3aWR0aD0iMjciIGhlaWdodD0iMi4yNSIvPiYjeGE7CQkJCTwvZz4mI3hhOwkJCQk8ZyBpZD0ic2hhcGUyNTUxLTEyIiB0cmFuc2Zvcm09InRyYW5zbGF0ZSgwLC01OC41KSI+JiN4YTsJCQkJCTx0aXRsZSBpZD0idGl0bGU4NjY0MSI+cG9seWxpbmUxNjM4ODwvdGl0bGU+JiN4YTsJCQkJCTxyZWN0IGlkPSJyZWN0ODY2NDMiIHk9IjY5IiBzdHlsZT0iZmlsbDpub25lOyIgd2lkdGg9IjI3IiBoZWlnaHQ9IjIuMjUiLz4mI3hhOwkJCQk8L2c+JiN4YTsJCQkJPGcgaWQ9InNoYXBlMjU1Mi0xNCIgdHJhbnNmb3JtPSJ0cmFuc2xhdGUoMCwtNTMuMjUpIj4mI3hhOwkJCQkJPHRpdGxlIGlkPSJ0aXRsZTg2NjQ2Ij5yZWN0MTYzOTA8L3RpdGxlPiYjeGE7CQkJCQk8cmVjdCBpZD0icmVjdDg2NjQ4IiB5PSI2OSIgc3R5bGU9ImZpbGw6IzJCQzdGNDsiIHdpZHRoPSIxOCIgaGVpZ2h0PSIyLjI1Ii8+JiN4YTsJCQkJPC9nPiYjeGE7CQkJCTxnIGlkPSJzaGFwZTI1NTMtMTYiIHRyYW5zZm9ybT0idHJhbnNsYXRlKDAsLTU4LjUpIj4mI3hhOwkJCQkJPHRpdGxlIGlkPSJ0aXRsZTg2NjUxIj5yZWN0MTYzOTI8L3RpdGxlPiYjeGE7CQkJCQk8cmVjdCBpZD0icmVjdDg2NjUzIiB5PSI2OSIgc3R5bGU9ImZpbGw6IzJCQzdGNDsiIHdpZHRoPSIxOCIgaGVpZ2h0PSIyLjI1Ii8+JiN4YTsJCQkJPC9nPiYjeGE7CQkJCTxnIGlkPSJzaGFwZTI1NTQtMTgiIHRyYW5zZm9ybT0idHJhbnNsYXRlKDE4LC00OCkiPiYjeGE7CQkJCQk8dGl0bGUgaWQ9InRpdGxlODY2NTYiPnJlY3QxNjM5NDwvdGl0bGU+JiN4YTsJCQkJCTxyZWN0IGlkPSJyZWN0ODY2NTgiIHk9IjY5IiBzdHlsZT0iZmlsbDojNTU2QThBOyIgd2lkdGg9IjE5LjUiIGhlaWdodD0iMi4yNSIvPiYjeGE7CQkJCTwvZz4mI3hhOwkJCQk8ZyBpZD0ic2hhcGUyNTU1LTIwIiB0cmFuc2Zvcm09InRyYW5zbGF0ZSgxOCwtNTMuMjUpIj4mI3hhOwkJCQkJPHRpdGxlIGlkPSJ0aXRsZTg2NjYxIj5yZWN0MTYzOTY8L3RpdGxlPiYjeGE7CQkJCQk8cmVjdCBpZD0icmVjdDg2NjYzIiB5PSI2OSIgc3R5bGU9ImZpbGw6IzU1NkE4QTsiIHdpZHRoPSIxOS41IiBoZWlnaHQ9IjIuMjUiLz4mI3hhOwkJCQk8L2c+JiN4YTsJCQkJPGcgaWQ9InNoYXBlMjU1Ni0yMiIgdHJhbnNmb3JtPSJ0cmFuc2xhdGUoMTgsLTU4LjUpIj4mI3hhOwkJCQkJPHRpdGxlIGlkPSJ0aXRsZTg2NjY2Ij5yZWN0MTYzOTg8L3RpdGxlPiYjeGE7CQkJCQk8cmVjdCBpZD0icmVjdDg2NjY4IiB5PSI2OSIgc3R5bGU9ImZpbGw6IzU1NkE4QTsiIHdpZHRoPSIxOS41IiBoZWlnaHQ9IjIuMjUiLz4mI3hhOwkJCQk8L2c+JiN4YTsJCQk8L2c+JiN4YTsJCQk8ZyBpZD0ic2hhcGUyNTU3LTI0IiB0cmFuc2Zvcm09InRyYW5zbGF0ZSgwLjc1LC01OS4yNSkiPiYjeGE7CQkJCTx0aXRsZSBpZD0idGl0bGU4NjY3MiI+cmVjdDE2NDAyPC90aXRsZT4mI3hhOwkJCQk8cmVjdCBpZD0icmVjdDg2Njc0IiB5PSI2OSIgc3R5bGU9ImZpbGw6IzU1NkE4QTsiIHdpZHRoPSIyLjI1IiBoZWlnaHQ9IjIuMjUiLz4mI3hhOwkJCTwvZz4mI3hhOwkJCTxnIGlkPSJzaGFwZTI1NTgtMjYiIHRyYW5zZm9ybT0idHJhbnNsYXRlKDAuNzUsLTU0KSI+JiN4YTsJCQkJPHRpdGxlIGlkPSJ0aXRsZTg2Njc3Ij5yZWN0MTY0MDQ8L3RpdGxlPiYjeGE7CQkJCTxyZWN0IGlkPSJyZWN0ODY2NzkiIHk9IjY5IiBzdHlsZT0iZmlsbDojNTU2QThBOyIgd2lkdGg9IjIuMjUiIGhlaWdodD0iMi4yNSIvPiYjeGE7CQkJPC9nPiYjeGE7CQkJPGcgaWQ9InNoYXBlMjU1OS0yOCIgdHJhbnNmb3JtPSJ0cmFuc2xhdGUoMC43NSwtNDguNzUpIj4mI3hhOwkJCQk8dGl0bGUgaWQ9InRpdGxlODY2ODIiPnJlY3QxNjQwNjwvdGl0bGU+JiN4YTsJCQkJPHJlY3QgaWQ9InJlY3Q4NjY4NCIgeT0iNjkiIHN0eWxlPSJmaWxsOiM1NTZBOEE7IiB3aWR0aD0iMi4yNSIgaGVpZ2h0PSIyLjI1Ii8+JiN4YTsJCQk8L2c+JiN4YTsJCTwvZz4mI3hhOwkJPGcgaWQ9Imdyb3VwMjU2MC0zMCIgdHJhbnNmb3JtPSJ0cmFuc2xhdGUoNy44NDEwNywtMTEuNTgyNikiPiYjeGE7CQkJPHRpdGxlIGlkPSJ0aXRsZTg2Njg4Ij5TaGVldC4yNTYwPC90aXRsZT4mI3hhOwkJCTxnIGlkPSJzaGFwZTI1NjEtMzEiIHRyYW5zZm9ybT0idHJhbnNsYXRlKDMzLjAyMjkpIj4mI3hhOwkJCQk8dGl0bGUgaWQ9InRpdGxlODY2OTAiPnBhdGgxMTc3PC90aXRsZT4mI3hhOwkJCQk8cGF0aCBpZD0icGF0aDg2NjkyIiBpbmtzY2FwZTpjb25uZWN0b3ItY3VydmF0dXJlPSIwIiBzdHlsZT0iZmlsbDojMDE0MTg1OyIgZD0iTTAsNzEuMjRWNjAuNTFoMS45NHY0LjFoMy42NXYtNC4xaDEuOTV2MTAuNzMgICAgICBINS42di00Ljc4SDEuOTR2NC43OUgwVjcxLjI0eiIvPiYjeGE7CQkJPC9nPiYjeGE7CQkJPGcgaWQ9InNoYXBlMjU2Mi0zMyIgdHJhbnNmb3JtPSJ0cmFuc2xhdGUoNDEuNzc2NiwtMC4wMDYzMTM1MykiPiYjeGE7CQkJCTx0aXRsZSBpZD0idGl0bGU4NjY5NSI+cGF0aDExNzk8L3RpdGxlPiYjeGE7CQkJCTxwYXRoIGlkPSJwYXRoODY2OTciIGlua3NjYXBlOmNvbm5lY3Rvci1jdXJ2YXR1cmU9IjAiIHN0eWxlPSJmaWxsOiMwMTQxODU7IiBkPSJNMy4zNCw2MC41MmgyLjIxbDMuMzIsMTAuNzNINi43NGwtMC42My0yLjIxICAgICAgSDIuNjhsLTAuNjMsMi4yMUgwTDMuMzQsNjAuNTJ6IE0zLjIxLDY3LjE5aDIuNGwtMS4xOS00LjIyTDMuMjEsNjcuMTl6Ii8+JiN4YTsJCQk8L2c+JiN4YTsJCQk8ZyBpZD0ic2hhcGUyNTYzLTM1IiB0cmFuc2Zvcm09InRyYW5zbGF0ZSg1MS44MTIsLTAuMDA2MzEzNTMpIj4mI3hhOwkJCQk8dGl0bGUgaWQ9InRpdGxlODY3MDAiPnBhdGgxMTgxPC90aXRsZT4mI3hhOwkJCQk8cGF0aCBpZD0icGF0aDg2NzAyIiBpbmtzY2FwZTpjb25uZWN0b3ItY3VydmF0dXJlPSIwIiBzdHlsZT0iZmlsbDojMDE0MTg1OyIgZD0iTTAsNjAuNTJoMi4wNUw1Ljc3LDY4di03LjQ4SDcuNnYxMC43M0g1LjY0ICAgICAgbC0zLjgyLTcuNjJ2Ny42MUgwVjYwLjVWNjAuNTJ6Ii8+JiN4YTsJCQk8L2c+JiN4YTsJCQk8ZyBpZD0ic2hhcGUyNTY0LTM3IiB0cmFuc2Zvcm09InRyYW5zbGF0ZSg2MC41ODQ3LC0wLjAwNjMxMzUzKSI+JiN4YTsJCQkJPHRpdGxlIGlkPSJ0aXRsZTg2NzA1Ij5wYXRoMTE4MzwvdGl0bGU+JiN4YTsJCQkJPHBhdGggaWQ9InBhdGg4NjcwNyIgaW5rc2NhcGU6Y29ubmVjdG9yLWN1cnZhdHVyZT0iMCIgc3R5bGU9ImZpbGw6IzAxNDE4NTsiIGQ9Ik0zLjM0LDYwLjUyaDIuMjFsMy4zMSwxMC43M0g2Ljc1bC0wLjYzLTIuMjEgICAgICBIMi42OGwtMC42MywyLjIxSDBMMy4zNCw2MC41MnogTTMuMjEsNjcuMTloMi40bC0xLjE4LTQuMjJMMy4yMSw2Ny4xOXoiLz4mI3hhOwkJCTwvZz4mI3hhOwkJCTxnIGlkPSJzaGFwZTI1NjUtMzkiIHRyYW5zZm9ybT0idHJhbnNsYXRlKDAsLTQuNDczMTQpIj4mI3hhOwkJCQk8dGl0bGUgaWQ9InRpdGxlODY3MTAiPnBhdGgzMDYwPC90aXRsZT4mI3hhOwkJCQk8cGF0aCBpZD0icGF0aDg2NzEyIiBpbmtzY2FwZTpjb25uZWN0b3ItY3VydmF0dXJlPSIwIiBzdHlsZT0iZmlsbDojMDE0MTg1OyIgZD0iTTAsNTEuMDV2MjAuMmgyMC42NmwyMC4yMi0yMC4ySDB6Ii8+JiN4YTsJCQk8L2c+JiN4YTsJCQk8ZyBpZD0ic2hhcGUyNTY2LTQxIiB0cmFuc2Zvcm09InRyYW5zbGF0ZSgyNS41NzkzLC00LjgzNzkzKSI+JiN4YTsJCQkJPHRpdGxlIGlkPSJ0aXRsZTg2NzE1Ij5wYXRoNTM4NDwvdGl0bGU+JiN4YTsJCQkJPHBhdGggaWQ9InBhdGg4NjcxNyIgaW5rc2NhcGU6Y29ubmVjdG9yLWN1cnZhdHVyZT0iMCIgc3R5bGU9ImZpbGw6IzAxNDE4NTsiIGQ9Ik0wLjU5LDY5LjU2djEuNTFoMC4yMnYtMC42NWgwLjI2bDAuNDEsMC42NSAgICAgIGgwLjI1bC0wLjQ1LTAuNjVjMC4yMi0wLjAxLDAuNC0wLjE5LDAuNC0wLjQyYzAsMCwwLDAsMCwwYzAtMC4zLTAuMTgtMC40My0wLjU0LTAuNDNIMC41N0wwLjU5LDY5LjU2eiBNMC44MSw2OS43NmgwLjMyICAgICAgYzAuMTUsMCwwLjMyLDAuMDMsMC4zMiwwLjIyYzAsMC4yMy0wLjE5LDAuMjUtMC4zNywwLjI1SDAuODFMMC44MSw2OS43NnogTTEuMSw2OS4wMWMtMC43MywwLTEuMzIsMC41OC0xLjMyLDEuMzEgICAgICBzMC41OCwxLjMyLDEuMzEsMS4zMmMwLjczLDAsMS4zMi0wLjU4LDEuMzItMS4zMWMwLDAsMCwwLDAsMGwwLDBjMC4wMS0wLjcxLTAuNTYtMS4zLTEuMjctMS4zMUwxLjEsNjkuMDFMMS4xLDY5LjAxeiAgICAgICBNMS4xLDY5LjIyYzAuNiwwLDEuMDksMC41LDEuMDksMS4xYzAsMC42LTAuNSwxLjA5LTEuMSwxLjA5Yy0wLjYsMC0xLjA5LTAuNDktMS4wOS0xLjA5QzAsNjkuNzIsMC40OSw2OS4yMiwxLjEsNjkuMjIgICAgICBDMS4wOSw2OS4yMiwxLjEsNjkuMjIsMS4xLDY5LjIyeiIvPiYjeGE7CQkJPC9nPiYjeGE7CQkJPGcgaWQ9InNoYXBlMjU2Ny00MyIgdHJhbnNmb3JtPSJ0cmFuc2xhdGUoMC41Nzc2ODgsLTguMTM4MTQpIj4mI3hhOwkJCQk8dGl0bGUgaWQ9InRpdGxlODY3MjAiPnBhdGgzMTAwPC90aXRsZT4mI3hhOwkJCQk8cGF0aCBpZD0icGF0aDg2NzIyIiBpbmtzY2FwZTpjb25uZWN0b3ItY3VydmF0dXJlPSIwIiBzdHlsZT0iZmlsbDojRkZGRkZGOyIgZD0iTTIzLjkyLDY0LjM4aC0wLjg5di0zLjI0aDAuODkgICAgICBjMS4xOCwwLDIuMTIsMC4zOSwyLjEyLDEuNlMyNS4xLDY0LjM4LDIzLjkyLDY0LjM4eiBNMTQuMzgsNjYuNzFjLTAuNDQsMC0wLjg4LTAuMDgtMS4yOS0wLjIzbDEuMjYtNC4wMmgwLjA3bDEuMjYsNC4wMyAgICAgIGMtMC40LDAuMTQtMC44MywwLjIyLTEuMjYsMC4yMkgxNC4zOHogTTIzLjY4LDU4LjVoLTQuMDJ2OS41OGwtMy41Mi05LjU4aC0zLjQ3bC0zLjAxLDguMDFjLTAuMzItMi4wMi0yLjQxLTIuNzEtNC4wNS0zLjIzICAgICAgYy0xLjA4LTAuMzYtMi4yNC0wLjg3LTIuMjQtMS40M2MwLTAuNDcsMC42My0wLjksMS44Mi0wLjgzYzEuMDMsMC4wMywyLjA0LDAuMywyLjk1LDAuNzlsMS40LTIuNDQgICAgICBjLTEuNDItMC42OS0yLjk4LTEuMDYtNC41Ni0xLjA4Yy0xLjcxLDAtMy4xNCwwLjU2LTQuMDMsMS40OGMtMC42LDAuNjMtMC45NCwxLjQ3LTAuOTQsMi4zNWMtMC4wNywxLjExLDAuNDYsMi4xOCwxLjM4LDIuODEgICAgICBjMC44NCwwLjU2LDEuNzcsMC45OSwyLjc0LDEuMjZjMS4xMSwwLjM0LDIuMDIsMC42MywyLjAyLDEuMjljLTAuMDEsMC4yNC0wLjEsMC40Ni0wLjI3LDAuNjNjLTAuMjcsMC4yOS0wLjcsMC40LTEuMjgsMC40MSAgICAgIGMtMS4xNCwwLjAyLTEuOTktMC4xNS0zLjM0LTAuOTRMMCw3MC4wNGMxLjM5LDAuNzksMi45NiwxLjIxLDQuNTYsMS4yMWgwLjJjMS4yNSwwLjAyLDIuNDgtMC4zOSwzLjQ3LTEuMTZsMC4xNS0wLjEzbC0wLjQsMS4wOCAgICAgIGgzLjY0bDAuNjEtMS44NmMxLjM4LDAuNDQsMi44NiwwLjQ1LDQuMjQsMC4wMWwwLjU5LDEuODVoNS45N3YtMy45aDEuM2MzLjEzLDAsNS0xLjYsNS00LjI4QzI5LjMzLDU5Ljg3LDI3LjUyLDU4LjUsMjMuNjgsNTguNSAgICAgIHoiLz4mI3hhOwkJCQk8cGF0aCBpZD0icGF0aDg2NzI0IiBpbmtzY2FwZTpjb25uZWN0b3ItY3VydmF0dXJlPSIwIiBzdHlsZT0iZmlsbDpub25lOyIgZD0iTTIzLjkyLDY0LjM4aC0wLjg5di0zLjI0aDAuODkgICAgICBjMS4xOCwwLDIuMTIsMC4zOSwyLjEyLDEuNlMyNS4xLDY0LjM4LDIzLjkyLDY0LjM4IE0xNC4zOCw2Ni43MWMtMC40NCwwLTAuODgtMC4wOC0xLjI5LTAuMjNsMS4yNi00LjAyaDAuMDdsMS4yNiw0LjAzICAgICAgYy0wLjQsMC4xNC0wLjgzLDAuMjItMS4yNiwwLjIyIE0yMy42OCw1OC41aC00LjAydjkuNThsLTMuNTItOS41OGgtMy40N2wtMy4wMSw4LjAxYy0wLjMyLTIuMDItMi40MS0yLjcxLTQuMDUtMy4yMyAgICAgIGMtMS4wOC0wLjM2LTIuMjQtMC44Ny0yLjI0LTEuNDNjMC0wLjQ3LDAuNjMtMC45LDEuODItMC44M2MxLjAzLDAuMDMsMi4wNCwwLjMsMi45NSwwLjc5bDEuNC0yLjQ0ICAgICAgYy0xLjQyLTAuNjktMi45OC0xLjA2LTQuNTYtMS4wOGMtMS43MSwwLTMuMTQsMC41Ni00LjAzLDEuNDhjLTAuNiwwLjYzLTAuOTQsMS40Ny0wLjk0LDIuMzVjLTAuMDcsMS4xMSwwLjQ2LDIuMTgsMS4zOCwyLjgxICAgICAgYzAuODQsMC41NiwxLjc3LDAuOTksMi43NCwxLjI2YzEuMTEsMC4zNCwyLjAyLDAuNjMsMi4wMiwxLjI5Yy0wLjAxLDAuMjQtMC4xLDAuNDYtMC4yNywwLjYzYy0wLjI3LDAuMjktMC43LDAuNC0xLjI4LDAuNDEgICAgICBjLTEuMTQsMC4wMi0xLjk5LTAuMTUtMy4zNC0wLjk0TDAsNzAuMDRjMS4zOSwwLjc5LDIuOTYsMS4yMSw0LjU2LDEuMjFoMC4yYzEuMjUsMC4wMiwyLjQ4LTAuMzksMy40Ny0xLjE2bDAuMTUtMC4xM2wtMC40LDEuMDggICAgICBoMy42NGwwLjYxLTEuODZjMS4zOCwwLjQ0LDIuODYsMC40NSw0LjI0LDAuMDFsMC41OSwxLjg1aDUuOTd2LTMuOWgxLjNjMy4xMywwLDUtMS42LDUtNC4yOEMyOS4zMyw1OS44NywyNy41Miw1OC41LDIzLjY4LDU4LjUgICAgICAiLz4mI3hhOwkJCTwvZz4mI3hhOwkJPC9nPiYjeGE7CTwvZz4mI3hhOzwvZz4mI3hhOzwvc3ZnPg==;" vertex="1" parent="1">
          <mxGeometry x="140" y="403.36" width="149.07" height="133.78" as="geometry" />
        </mxCell>
        <mxCell id="bqVkadd0tKrhda9ODERW-83" style="edgeStyle=orthogonalEdgeStyle;rounded=0;orthogonalLoop=1;jettySize=auto;html=1;entryX=0.5;entryY=0;entryDx=0;entryDy=0;strokeColor=#808080;" edge="1" parent="1" source="bqVkadd0tKrhda9ODERW-5" target="bqVkadd0tKrhda9ODERW-53">
          <mxGeometry relative="1" as="geometry" />
        </mxCell>
        <mxCell id="bqVkadd0tKrhda9ODERW-5" value="FC-CORP&#xa;" style="shape=image;verticalLabelPosition=bottom;labelBackgroundColor=#ffffff;verticalAlign=top;aspect=fixed;imageAspect=0;image=data:image/svg+xml,PHN2ZyB4bWxuczpjYz0iaHR0cDovL2NyZWF0aXZlY29tbW9ucy5vcmcvbnMjIiB4bWxuczpkYz0iaHR0cDovL3B1cmwub3JnL2RjL2VsZW1lbnRzLzEuMS8iIHhtbG5zOmlua3NjYXBlPSJodHRwOi8vd3d3Lmlua3NjYXBlLm9yZy9uYW1lc3BhY2VzL2lua3NjYXBlIiB4bWxuczpyZGY9Imh0dHA6Ly93d3cudzMub3JnLzE5OTkvMDIvMjItcmRmLXN5bnRheC1ucyMiIHhtbG5zOnNvZGlwb2RpPSJodHRwOi8vc29kaXBvZGkuc291cmNlZm9yZ2UubmV0L0RURC9zb2RpcG9kaS0wLmR0ZCIgeG1sbnM6c3ZnPSJodHRwOi8vd3d3LnczLm9yZy8yMDAwL3N2ZyIgeG1sbnM9Imh0dHA6Ly93d3cudzMub3JnLzIwMDAvc3ZnIiB4bWxuczp4bGluaz0iaHR0cDovL3d3dy53My5vcmcvMTk5OS94bGluayIgdmVyc2lvbj0iMS4xIiBpZD0ic3ZnODI4MTMiIGlua3NjYXBlOnZlcnNpb249IjAuOTIuMyAoMjQwNTU0NiwgMjAxOC0wMy0xMSkiIHNvZGlwb2RpOmRvY25hbWU9Im9yYWNsZV9zZXJ2ZXJfMS5zdmciIHg9IjBweCIgeT0iMHB4IiB2aWV3Qm94PSIwIDAgNjQuNTMgNjkuNzUiIHN0eWxlPSJlbmFibGUtYmFja2dyb3VuZDpuZXcgMCAwIDY0LjUzIDY5Ljc1OyIgeG1sOnNwYWNlPSJwcmVzZXJ2ZSI+JiN4YTs8c29kaXBvZGk6bmFtZWR2aWV3IGJvcmRlcmNvbG9yPSIjNjY2NjY2IiBib3JkZXJvcGFjaXR5PSIxIiBmaXQtbWFyZ2luLWJvdHRvbT0iMCIgZml0LW1hcmdpbi1sZWZ0PSIwIiBmaXQtbWFyZ2luLXJpZ2h0PSIwIiBmaXQtbWFyZ2luLXRvcD0iMCIgZ3JpZHRvbGVyYW5jZT0iMTAiIGd1aWRldG9sZXJhbmNlPSIxMCIgaWQ9Im5hbWVkdmlldzgyODE1IiBpbmtzY2FwZTpjdXJyZW50LWxheWVyPSJzdmc4MjgxMyIgaW5rc2NhcGU6Y3g9IjUzLjQ3NDg5MyIgaW5rc2NhcGU6Y3k9IjI5LjE2NzQ4MSIgaW5rc2NhcGU6cGFnZW9wYWNpdHk9IjAiIGlua3NjYXBlOnBhZ2VzaGFkb3c9IjIiIGlua3NjYXBlOndpbmRvdy1oZWlnaHQ9IjEwMTciIGlua3NjYXBlOndpbmRvdy1tYXhpbWl6ZWQ9IjEiIGlua3NjYXBlOndpbmRvdy13aWR0aD0iMTkyMCIgaW5rc2NhcGU6d2luZG93LXg9Ii04IiBpbmtzY2FwZTp3aW5kb3cteT0iLTgiIGlua3NjYXBlOnpvb209IjYuNDUzMjgxOSIgb2JqZWN0dG9sZXJhbmNlPSIxMCIgcGFnZWNvbG9yPSIjZmZmZmZmIiBzaG93Z3JpZD0iZmFsc2UiPiYjeGE7CTwvc29kaXBvZGk6bmFtZWR2aWV3PiYjeGE7PGcgaWQ9Imc4MjgxMSIgdHJhbnNmb3JtPSJ0cmFuc2xhdGUoLTAuNzUsLTAuNzUpIj4mI3hhOwk8dGl0bGUgaWQ9InRpdGxlODI3MTQiPlBhZ2UtMTwvdGl0bGU+JiN4YTsJPGcgaWQ9Imdyb3VwMjU5Mi0xIiB0cmFuc2Zvcm09InRyYW5zbGF0ZSgxLjUsLTEuNSkiPiYjeGE7CQk8dGl0bGUgaWQ9InRpdGxlODI3MTYiPk9yYWNsZSBTZXJ2ZXIgIzE8L3RpdGxlPiYjeGE7CQk8ZyBpZD0iZ3JvdXAyNTkzLTIiPiYjeGE7CQkJPHRpdGxlIGlkPSJ0aXRsZTgyNzE4Ij5TaGVldC4yNTkzPC90aXRsZT4mI3hhOwkJCTxnIGlkPSJncm91cDI1OTQtMyI+JiN4YTsJCQkJPHRpdGxlIGlkPSJ0aXRsZTgyNzIwIj5nMTY0MDg8L3RpdGxlPiYjeGE7CQkJCTxnIGlkPSJzaGFwZTI1OTUtNCI+JiN4YTsJCQkJCTx0aXRsZSBpZD0idGl0bGU4MjcyMiI+cmVjdDE2MzgwPC90aXRsZT4mI3hhOwkJCQkJJiN4YTsJCQkJCQk8cmVjdCBpZD0icmVjdDgyNzI0IiB4PSIwIiB5PSIzIiBzdHlsZT0iZmlsbDojRkZGRkZGO3N0cm9rZTojNTU2QThBO3N0cm9rZS13aWR0aDoxLjU7c3Ryb2tlLW1pdGVybGltaXQ6MzsiIHdpZHRoPSIzOS43NSIgaGVpZ2h0PSI2OC4yNSIvPiYjeGE7CQkJCTwvZz4mI3hhOwkJCQk8ZyBpZD0iZ3JvdXAyNTk2LTYiIHRyYW5zZm9ybT0idHJhbnNsYXRlKDEuNSwtMC43NSkiPiYjeGE7CQkJCQk8dGl0bGUgaWQ9InRpdGxlODI3MjciPmcxNjQwMDwvdGl0bGU+JiN4YTsJCQkJCTxnIGlkPSJzaGFwZTI1OTctNyIgdHJhbnNmb3JtPSJ0cmFuc2xhdGUoMTgpIj4mI3hhOwkJCQkJCTx0aXRsZSBpZD0idGl0bGU4MjcyOSI+cmVjdDE2MzgyPC90aXRsZT4mI3hhOwkJCQkJCTxyZWN0IGlkPSJyZWN0ODI3MzEiIHg9IjAiIHk9IjQuNSIgc3R5bGU9ImZpbGw6I0U1RTVFNTsiIHdpZHRoPSIxOS41IiBoZWlnaHQ9IjY2Ljc1Ii8+JiN4YTsJCQkJCTwvZz4mI3hhOwkJCQkJPGcgaWQ9InNoYXBlMjU5OC05IiB0cmFuc2Zvcm09InRyYW5zbGF0ZSgwLC00OCkiPiYjeGE7CQkJCQkJPHRpdGxlIGlkPSJ0aXRsZTgyNzM0Ij5yZWN0MTYzODQ8L3RpdGxlPiYjeGE7CQkJCQkJPHJlY3QgaWQ9InJlY3Q4MjczNiIgeD0iMCIgeT0iNjkiIHN0eWxlPSJmaWxsOiMyQkM3RjQ7IiB3aWR0aD0iMTgiIGhlaWdodD0iMi4yNSIvPiYjeGE7CQkJCQk8L2c+JiN4YTsJCQkJCTxnIGlkPSJzaGFwZTI1OTktMTEiIHRyYW5zZm9ybT0idHJhbnNsYXRlKDAsLTU4LjUpIj4mI3hhOwkJCQkJCTx0aXRsZSBpZD0idGl0bGU4MjczOSI+cG9seWdvbjE2Mzg2PC90aXRsZT4mI3hhOwkJCQkJCTxyZWN0IGlkPSJyZWN0ODI3NDEiIHg9IjAiIHk9IjY5IiBzdHlsZT0iZmlsbDpub25lOyIgd2lkdGg9IjI3IiBoZWlnaHQ9IjIuMjUiLz4mI3hhOwkJCQkJPC9nPiYjeGE7CQkJCQk8ZyBpZD0ic2hhcGUyNjAwLTEzIiB0cmFuc2Zvcm09InRyYW5zbGF0ZSgwLC01OC41KSI+JiN4YTsJCQkJCQk8dGl0bGUgaWQ9InRpdGxlODI3NDQiPnBvbHlsaW5lMTYzODg8L3RpdGxlPiYjeGE7CQkJCQkJPHJlY3QgaWQ9InJlY3Q4Mjc0NiIgeD0iMCIgeT0iNjkiIHN0eWxlPSJmaWxsOm5vbmU7IiB3aWR0aD0iMjciIGhlaWdodD0iMi4yNSIvPiYjeGE7CQkJCQk8L2c+JiN4YTsJCQkJCTxnIGlkPSJzaGFwZTI2MDEtMTUiIHRyYW5zZm9ybT0idHJhbnNsYXRlKDAsLTUzLjI1KSI+JiN4YTsJCQkJCQk8dGl0bGUgaWQ9InRpdGxlODI3NDkiPnJlY3QxNjM5MDwvdGl0bGU+JiN4YTsJCQkJCQk8cmVjdCBpZD0icmVjdDgyNzUxIiB4PSIwIiB5PSI2OSIgc3R5bGU9ImZpbGw6IzJCQzdGNDsiIHdpZHRoPSIxOCIgaGVpZ2h0PSIyLjI1Ii8+JiN4YTsJCQkJCTwvZz4mI3hhOwkJCQkJPGcgaWQ9InNoYXBlMjYwMi0xNyIgdHJhbnNmb3JtPSJ0cmFuc2xhdGUoMCwtNTguNSkiPiYjeGE7CQkJCQkJPHRpdGxlIGlkPSJ0aXRsZTgyNzU0Ij5yZWN0MTYzOTI8L3RpdGxlPiYjeGE7CQkJCQkJPHJlY3QgaWQ9InJlY3Q4Mjc1NiIgeD0iMCIgeT0iNjkiIHN0eWxlPSJmaWxsOiMyQkM3RjQ7IiB3aWR0aD0iMTgiIGhlaWdodD0iMi4yNSIvPiYjeGE7CQkJCQk8L2c+JiN4YTsJCQkJCTxnIGlkPSJzaGFwZTI2MDMtMTkiIHRyYW5zZm9ybT0idHJhbnNsYXRlKDE4LC00OCkiPiYjeGE7CQkJCQkJPHRpdGxlIGlkPSJ0aXRsZTgyNzU5Ij5yZWN0MTYzOTQ8L3RpdGxlPiYjeGE7CQkJCQkJPHJlY3QgaWQ9InJlY3Q4Mjc2MSIgeD0iMCIgeT0iNjkiIHN0eWxlPSJmaWxsOiM1NTZBOEE7IiB3aWR0aD0iMTkuNSIgaGVpZ2h0PSIyLjI1Ii8+JiN4YTsJCQkJCTwvZz4mI3hhOwkJCQkJPGcgaWQ9InNoYXBlMjYwNC0yMSIgdHJhbnNmb3JtPSJ0cmFuc2xhdGUoMTgsLTUzLjI1KSI+JiN4YTsJCQkJCQk8dGl0bGUgaWQ9InRpdGxlODI3NjQiPnJlY3QxNjM5NjwvdGl0bGU+JiN4YTsJCQkJCQk8cmVjdCBpZD0icmVjdDgyNzY2IiB4PSIwIiB5PSI2OSIgc3R5bGU9ImZpbGw6IzU1NkE4QTsiIHdpZHRoPSIxOS41IiBoZWlnaHQ9IjIuMjUiLz4mI3hhOwkJCQkJPC9nPiYjeGE7CQkJCQk8ZyBpZD0ic2hhcGUyNjA1LTIzIiB0cmFuc2Zvcm09InRyYW5zbGF0ZSgxOCwtNTguNSkiPiYjeGE7CQkJCQkJPHRpdGxlIGlkPSJ0aXRsZTgyNzY5Ij5yZWN0MTYzOTg8L3RpdGxlPiYjeGE7CQkJCQkJPHJlY3QgaWQ9InJlY3Q4Mjc3MSIgeD0iMCIgeT0iNjkiIHN0eWxlPSJmaWxsOiM1NTZBOEE7IiB3aWR0aD0iMTkuNSIgaGVpZ2h0PSIyLjI1Ii8+JiN4YTsJCQkJCTwvZz4mI3hhOwkJCQk8L2c+JiN4YTsJCQkJPGcgaWQ9InNoYXBlMjYwNi0yNSIgdHJhbnNmb3JtPSJ0cmFuc2xhdGUoMC43NSwtNTkuMjUpIj4mI3hhOwkJCQkJPHRpdGxlIGlkPSJ0aXRsZTgyNzc1Ij5yZWN0MTY0MDI8L3RpdGxlPiYjeGE7CQkJCQk8cmVjdCBpZD0icmVjdDgyNzc3IiB4PSIwIiB5PSI2OSIgc3R5bGU9ImZpbGw6IzU1NkE4QTsiIHdpZHRoPSIyLjI1IiBoZWlnaHQ9IjIuMjUiLz4mI3hhOwkJCQk8L2c+JiN4YTsJCQkJPGcgaWQ9InNoYXBlMjYwNy0yNyIgdHJhbnNmb3JtPSJ0cmFuc2xhdGUoMC43NSwtNTQpIj4mI3hhOwkJCQkJPHRpdGxlIGlkPSJ0aXRsZTgyNzgwIj5yZWN0MTY0MDQ8L3RpdGxlPiYjeGE7CQkJCQk8cmVjdCBpZD0icmVjdDgyNzgyIiB4PSIwIiB5PSI2OSIgc3R5bGU9ImZpbGw6IzU1NkE4QTsiIHdpZHRoPSIyLjI1IiBoZWlnaHQ9IjIuMjUiLz4mI3hhOwkJCQk8L2c+JiN4YTsJCQkJPGcgaWQ9InNoYXBlMjYwOC0yOSIgdHJhbnNmb3JtPSJ0cmFuc2xhdGUoMC43NSwtNDguNzUpIj4mI3hhOwkJCQkJPHRpdGxlIGlkPSJ0aXRsZTgyNzg1Ij5yZWN0MTY0MDY8L3RpdGxlPiYjeGE7CQkJCQk8cmVjdCBpZD0icmVjdDgyNzg3IiB4PSIwIiB5PSI2OSIgc3R5bGU9ImZpbGw6IzU1NkE4QTsiIHdpZHRoPSIyLjI1IiBoZWlnaHQ9IjIuMjUiLz4mI3hhOwkJCQk8L2c+JiN4YTsJCQk8L2c+JiN4YTsJCTwvZz4mI3hhOwkJPGcgaWQ9Imdyb3VwMjYwOS0zMSIgdHJhbnNmb3JtPSJ0cmFuc2xhdGUoMTQuMTczMiwtMTEuODcwNSkiPiYjeGE7CQkJPHRpdGxlIGlkPSJ0aXRsZTgyNzkyIj5PcmFjbGUgIzIuMTQwOTg8L3RpdGxlPiYjeGE7CQkJPGcgaWQ9Imdyb3VwMjYxMC0zMiI+JiN4YTsJCQkJPHRpdGxlIGlkPSJ0aXRsZTgyNzk0Ij5TaGVldC4yNjEwPC90aXRsZT4mI3hhOwkJCQk8ZyBpZD0ic2hhcGUyNjExLTMzIj4mI3hhOwkJCQkJPHRpdGxlIGlkPSJ0aXRsZTgyNzk2Ij5TaGVldC4yNjExPC90aXRsZT4mI3hhOwkJCQkJJiN4YTsJCQkJCQk8bGluZWFyR3JhZGllbnQgaWQ9InJlY3Q4Mjc5OF8xXyIgZ3JhZGllbnRVbml0cz0idXNlclNwYWNlT25Vc2UiIHgxPSItMTIyLjc3NDgiIHkxPSItMjUxLjc1NjYiIHgyPSItOTIuNzY2IiB5Mj0iLTI1MS43NTY2IiBncmFkaWVudFRyYW5zZm9ybT0ibWF0cml4KDEuNjUzMSAwIDAgLTAuNjA0OSAyMDIuOTUzOSAtOTAuMTI0MikiPiYjeGE7CQkJCQkJPHN0b3Agb2Zmc2V0PSIwIiBzdHlsZT0ic3RvcC1jb2xvcjojRUMyMjI3Ii8+JiN4YTsJCQkJCQk8c3RvcCBvZmZzZXQ9IjAuNDQ1IiBzdHlsZT0ic3RvcC1jb2xvcjojRTkyMjI3Ii8+JiN4YTsJCQkJCQk8c3RvcCBvZmZzZXQ9IjAuNjg1IiBzdHlsZT0ic3RvcC1jb2xvcjojREYyMjI3Ii8+JiN4YTsJCQkJCQk8c3RvcCBvZmZzZXQ9IjAuODgiIHN0eWxlPSJzdG9wLWNvbG9yOiNEMjIxMjciLz4mI3hhOwkJCQkJCTxzdG9wIG9mZnNldD0iMSIgc3R5bGU9InN0b3AtY29sb3I6I0M3MjEyOCIvPiYjeGE7CQkJCQk8L2xpbmVhckdyYWRpZW50PiYjeGE7CQkJCQk8cmVjdCBpZD0icmVjdDgyNzk4IiB4PSIwIiB5PSI1My4xIiBzdHlsZT0iZmlsbDp1cmwoI3JlY3Q4Mjc5OF8xXyk7IiB3aWR0aD0iNDkuNjEiIGhlaWdodD0iMTguMTUiLz4mI3hhOwkJCQk8L2c+JiN4YTsJCQk8L2c+JiN4YTsJCQk8ZyBpZD0ic2hhcGUyNjEyLTM3IiB0cmFuc2Zvcm09InRyYW5zbGF0ZSg3LjE4MTYxLC02LjcxNjEzKSI+JiN4YTsJCQkJPHRpdGxlIGlkPSJ0aXRsZTgyODAyIj5TaGVldC4yNjEyPC90aXRsZT4mI3hhOwkJCQk8cGF0aCBpZD0icGF0aDgyODA0IiBpbmtzY2FwZTpjb25uZWN0b3ItY3VydmF0dXJlPSIwIiBzdHlsZT0iZmlsbDojRkZGRkZGOyIgZD0iTTE1LjE2LDY5LjU5aDIuMzNsLTEuMi0ybC0yLjI2LDMuNTloLTEgICAgICBsMi43My00LjMyYzAuMTMtMC4yLDAuMzMtMC4yNiwwLjUzLTAuMjZzMC40LDAuMTMsMC41MywwLjI2bDIuNzMsNC4zMmgtMS4wNmwtMC40LTAuNzloLTIuMzNMMTUuMTYsNjkuNTl6IE0yNS44Nyw3MC4zOXYtMy43MyAgICAgIEgyNXY0LjEyYzAsMC4xNCwwLjA3LDAuMiwwLjE0LDAuMzRjMC4wNiwwLjA2LDAuMiwwLjEzLDAuMzMsMC4xM2gzLjk5bDAuNTMtMC44aC00LjEyTDI1Ljg3LDcwLjM5eiBNMTEuNDQsNjkuNzIgICAgICBjMC44NiwwLDEuNTMtMC42NiwxLjUzLTEuNTNjMC0wLjg2LTAuNjctMS41My0xLjUzLTEuNTNINy42NXY0LjUyaDAuODZ2LTMuNzJoMi44NmMwLjQsMCwwLjczLDAuMzMsMC43MywwLjczICAgICAgcy0wLjMzLDAuNzMtMC43MywwLjczSDguOTFsMi41OSwyLjI2aDEuMjdsLTEuNzMtMS40NkgxMS40NHogTTIuMjYsNzEuMThDMSw3MS4xOCwwLDcwLjE5LDAsNjguOTJjMC0xLjI2LDEtMi4yNiwyLjI2LTIuMjYgICAgICBoMi42NmMxLjI2LDAsMi4yNiwxLDIuMjYsMi4yNmMwLDEuMjctMSwyLjI2LTIuMjYsMi4yNkwyLjI2LDcxLjE4eiBNNC44NSw3MC4zOWMwLjgsMCwxLjQ3LTAuNjcsMS40Ny0xLjQ3ICAgICAgcy0wLjY3LTEuNDYtMS40Ny0xLjQ2SDIuMzNjLTAuOCwwLTEuNDcsMC42Ni0xLjQ3LDEuNDZjMCwwLjgsMC42NywxLjQ3LDEuNDcsMS40N0g0Ljg1eiBNMjEuNDEsNzEuMTggICAgICBjLTEuMjYsMC0yLjI2LTAuOTktMi4yNi0yLjI2YzAtMS4yNiwxLTIuMjYsMi4yNi0yLjI2aDMuMTNsLTAuNTMsMC44aC0yLjZjLTAuOCwwLTEuNDYsMC42Ni0xLjQ2LDEuNDYgICAgICBjMCwwLjgsMC42NiwxLjQ3LDEuNDYsMS40N2gzLjEzbC0wLjQ3LDAuNzlIMjEuNDF6IE0zMi4wNSw3MC4zOWMtMC42NiwwLTEuMjYtMC40Ny0xLjQtMS4wN2gzLjczbDAuNTMtMC44aC00LjI2ICAgICAgYzAuMi0wLjU5LDAuNzQtMS4wNiwxLjQtMS4wNmgyLjU5bDAuNTQtMC44aC0zLjEzYy0xLjI2LDAtMi4yNiwxLTIuMjYsMi4yNmMwLDEuMjcsMSwyLjI2LDIuMjYsMi4yNmgyLjY2bDAuNTMtMC43OUgzMi4wNXoiLz4mI3hhOwkJCQk8cGF0aCBpZD0icGF0aDgyODA2IiBpbmtzY2FwZTpjb25uZWN0b3ItY3VydmF0dXJlPSIwIiBzdHlsZT0iZmlsbDpub25lOyIgZD0iTTE1LjE2LDY5LjU5aDIuMzNsLTEuMi0ybC0yLjI2LDMuNTloLTFsMi43My00LjMyICAgICAgYzAuMTMtMC4yLDAuMzMtMC4yNiwwLjUzLTAuMjZzMC40LDAuMTMsMC41MywwLjI2bDIuNzMsNC4zMmgtMS4wNmwtMC40LTAuNzloLTIuMzNMMTUuMTYsNjkuNTkgTTI1Ljg3LDcwLjM5di0zLjczSDI1djQuMTIgICAgICBjMCwwLjE0LDAuMDcsMC4yLDAuMTQsMC4zNGMwLjA2LDAuMDYsMC4yLDAuMTMsMC4zMywwLjEzaDMuOTlsMC41My0wLjhoLTQuMTIgTTExLjQ0LDY5LjcyYzAuODYsMCwxLjUzLTAuNjYsMS41My0xLjUzICAgICAgYzAtMC44Ni0wLjY3LTEuNTMtMS41My0xLjUzSDcuNjV2NC41MmgwLjg2di0zLjcyaDIuODZjMC40LDAsMC43MywwLjMzLDAuNzMsMC43M3MtMC4zMywwLjczLTAuNzMsMC43M0g4LjkxbDIuNTksMi4yNmgxLjI3ICAgICAgbC0xLjczLTEuNDZMMTEuNDQsNjkuNzIgTTIuMjYsNzEuMThDMSw3MS4xOCwwLDcwLjE5LDAsNjguOTJjMC0xLjI2LDEtMi4yNiwyLjI2LTIuMjZoMi42NmMxLjI2LDAsMi4yNiwxLDIuMjYsMi4yNiAgICAgIGMwLDEuMjctMSwyLjI2LTIuMjYsMi4yNkwyLjI2LDcxLjE4IE00Ljg1LDcwLjM5YzAuOCwwLDEuNDctMC42NywxLjQ3LTEuNDdzLTAuNjctMS40Ni0xLjQ3LTEuNDZIMi4zMyAgICAgIGMtMC44LDAtMS40NywwLjY2LTEuNDcsMS40NmMwLDAuOCwwLjY3LDEuNDcsMS40NywxLjQ3SDQuODUgTTIxLjQxLDcxLjE4Yy0xLjI2LDAtMi4yNi0wLjk5LTIuMjYtMi4yNmMwLTEuMjYsMS0yLjI2LDIuMjYtMi4yNiAgICAgIGgzLjEzbC0wLjUzLDAuOGgtMi42Yy0wLjgsMC0xLjQ2LDAuNjYtMS40NiwxLjQ2YzAsMC44LDAuNjYsMS40NywxLjQ2LDEuNDdoMy4xM2wtMC40NywwLjc5SDIxLjQxIE0zMi4wNSw3MC4zOSAgICAgIGMtMC42NiwwLTEuMjYtMC40Ny0xLjQtMS4wN2gzLjczbDAuNTMtMC44aC00LjI2YzAuMi0wLjU5LDAuNzQtMS4wNiwxLjQtMS4wNmgyLjU5bDAuNTQtMC44aC0zLjEzYy0xLjI2LDAtMi4yNiwxLTIuMjYsMi4yNiAgICAgIGMwLDEuMjcsMSwyLjI2LDIuMjYsMi4yNmgyLjY2bDAuNTMtMC43OUgzMi4wNSIvPiYjeGE7CQkJPC9nPiYjeGE7CQk8L2c+JiN4YTsJPC9nPiYjeGE7PC9nPiYjeGE7PC9zdmc+;direction=south;" vertex="1" parent="1">
          <mxGeometry x="930" y="420" width="207.5" height="192.69" as="geometry" />
        </mxCell>
        <mxCell id="bqVkadd0tKrhda9ODERW-56" style="edgeStyle=orthogonalEdgeStyle;rounded=0;orthogonalLoop=1;jettySize=auto;html=1;strokeColor=#808080;entryX=1;entryY=0.5;entryDx=0;entryDy=0;" edge="1" parent="1" source="bqVkadd0tKrhda9ODERW-7" target="bqVkadd0tKrhda9ODERW-53">
          <mxGeometry relative="1" as="geometry">
            <Array as="points">
              <mxPoint x="1077" y="828" />
              <mxPoint x="871" y="828" />
            </Array>
          </mxGeometry>
        </mxCell>
        <mxCell id="bqVkadd0tKrhda9ODERW-7" value="" style="shape=image;verticalLabelPosition=bottom;labelBackgroundColor=#ffffff;verticalAlign=top;aspect=fixed;imageAspect=0;image=data:image/svg+xml,PHN2ZyB4bWxuczpjYz0iaHR0cDovL2NyZWF0aXZlY29tbW9ucy5vcmcvbnMjIiB4bWxuczpkYz0iaHR0cDovL3B1cmwub3JnL2RjL2VsZW1lbnRzLzEuMS8iIHhtbG5zOmlua3NjYXBlPSJodHRwOi8vd3d3Lmlua3NjYXBlLm9yZy9uYW1lc3BhY2VzL2lua3NjYXBlIiB4bWxuczpyZGY9Imh0dHA6Ly93d3cudzMub3JnLzE5OTkvMDIvMjItcmRmLXN5bnRheC1ucyMiIHhtbG5zOnNvZGlwb2RpPSJodHRwOi8vc29kaXBvZGkuc291cmNlZm9yZ2UubmV0L0RURC9zb2RpcG9kaS0wLmR0ZCIgeG1sbnM6c3ZnPSJodHRwOi8vd3d3LnczLm9yZy8yMDAwL3N2ZyIgeG1sbnM9Imh0dHA6Ly93d3cudzMub3JnLzIwMDAvc3ZnIiB4bWxuczp4bGluaz0iaHR0cDovL3d3dy53My5vcmcvMTk5OS94bGluayIgdmVyc2lvbj0iMS4xIiBpZD0ic3ZnODIzMDkiIGlua3NjYXBlOnZlcnNpb249IjAuOTIuMyAoMjQwNTU0NiwgMjAxOC0wMy0xMSkiIHNvZGlwb2RpOmRvY25hbWU9Im9yYWNsZV9kYXRhYmFzZS5zdmciIHg9IjBweCIgeT0iMHB4IiB2aWV3Qm94PSIwIDAgMzAuNjIgMzQuOTMiIHN0eWxlPSJlbmFibGUtYmFja2dyb3VuZDpuZXcgMCAwIDMwLjYyIDM0LjkzOyIgeG1sOnNwYWNlPSJwcmVzZXJ2ZSI+JiN4YTs8c29kaXBvZGk6bmFtZWR2aWV3IGJvcmRlcmNvbG9yPSIjNjY2NjY2IiBib3JkZXJvcGFjaXR5PSIxIiBmaXQtbWFyZ2luLWJvdHRvbT0iMCIgZml0LW1hcmdpbi1sZWZ0PSIwIiBmaXQtbWFyZ2luLXJpZ2h0PSIwIiBmaXQtbWFyZ2luLXRvcD0iMCIgZ3JpZHRvbGVyYW5jZT0iMTAiIGd1aWRldG9sZXJhbmNlPSIxMCIgaWQ9Im5hbWVkdmlldzgyMzExIiBpbmtzY2FwZTpjdXJyZW50LWxheWVyPSJzdmc4MjMwOSIgaW5rc2NhcGU6Y3g9IjIwLjQxMzUzMyIgaW5rc2NhcGU6Y3k9IjIzLjI4Njg2NiIgaW5rc2NhcGU6cGFnZW9wYWNpdHk9IjAiIGlua3NjYXBlOnBhZ2VzaGFkb3c9IjIiIGlua3NjYXBlOndpbmRvdy1oZWlnaHQ9IjEwMTciIGlua3NjYXBlOndpbmRvdy1tYXhpbWl6ZWQ9IjEiIGlua3NjYXBlOndpbmRvdy13aWR0aD0iMTkyMCIgaW5rc2NhcGU6d2luZG93LXg9Ii04IiBpbmtzY2FwZTp3aW5kb3cteT0iLTgiIGlua3NjYXBlOnpvb209IjE2LjgyODE1NiIgb2JqZWN0dG9sZXJhbmNlPSIxMCIgcGFnZWNvbG9yPSIjZmZmZmZmIiBzaG93Z3JpZD0iZmFsc2UiPiYjeGE7CTwvc29kaXBvZGk6bmFtZWR2aWV3PiYjeGE7PGcgaWQ9Imc4MjMwNyIgdHJhbnNmb3JtPSJ0cmFuc2xhdGUoLTEuODU0NTc4LC0xLjg1MTA1KSI+JiN4YTsJPHRpdGxlIGlkPSJ0aXRsZTgyMjcyIj5QYWdlLTE8L3RpdGxlPiYjeGE7CTxnIGlkPSJncm91cDQzODktMSIgdHJhbnNmb3JtPSJ0cmFuc2xhdGUoMS44NTQ1NSwtMS44NTQ1NSkiPiYjeGE7CQk8dGl0bGUgaWQ9InRpdGxlODIyNzQiPk9yYWNsZSBEYXRhYmFzZTwvdGl0bGU+JiN4YTsJCTxnIGlkPSJzaGFwZTQzOTAtMiIgdHJhbnNmb3JtPSJ0cmFuc2xhdGUoMCwtMC4xMTA1NDMpIj4mI3hhOwkJCTx0aXRsZSBpZD0idGl0bGU4MjI3NiI+U2hlZXQuNDM5MDwvdGl0bGU+JiN4YTsJCQk8cGF0aCBpZD0icGF0aDgyMjc4IiBpbmtzY2FwZTpjb25uZWN0b3ItY3VydmF0dXJlPSIwIiBzdHlsZT0iZmlsbDojRUIyMjI3OyIgZD0iTTE1LjI1LDkuMjRDNi44NSw5LjI0LDAsOC4wMiwwLDYuNDd2MjkuNDEgICAgIGMwLDEuNTQsNi44NSwyLjc2LDE1LjI1LDIuNzZjOC40MSwwLDE1LjI2LTEuMjIsMTUuMjYtMi43NlY2LjQ3QzMwLjYyLDguMDIsMjMuNzcsOS4yNCwxNS4yNSw5LjI0eiIvPiYjeGE7CQk8L2c+JiN4YTsJCTxnIGlkPSJzaGFwZTQzOTEtNCI+JiN4YTsJCQk8dGl0bGUgaWQ9InRpdGxlODIyODEiPlNoZWV0LjQzOTE8L3RpdGxlPiYjeGE7CQkJPHBhdGggaWQ9InBhdGg4MjI4MyIgaW5rc2NhcGU6Y29ubmVjdG9yLWN1cnZhdHVyZT0iMCIgc3R5bGU9ImZpbGw6I0Q4MjMyODsiIGQ9Ik0wLDYuNDd2MjkuNDFjMCwxLjU0LDYuODUsMi43NiwxNS4yNSwyLjc2VjkuMjQgICAgIEM2Ljg1LDkuMTMsMCw3LjkxLDAsNi40N3oiLz4mI3hhOwkJPC9nPiYjeGE7CQk8ZyBpZD0ic2hhcGU0MzkyLTYiIHRyYW5zZm9ybT0idHJhbnNsYXRlKDI4LjUyLC0xLjQzNzA2KSI+JiN4YTsJCQk8dGl0bGUgaWQ9InRpdGxlODIyODYiPlNoZWV0LjQzOTI8L3RpdGxlPiYjeGE7CQkJPHBhdGggaWQ9InBhdGg4MjI4OCIgaW5rc2NhcGU6Y29ubmVjdG9yLWN1cnZhdHVyZT0iMCIgc3R5bGU9ImZpbGw6I0Q4MjMyODsiIGQ9Ik0wLDkuMjR2MjkuNGMxLjMzLTAuNDQsMi4xLTAuODgsMi4xLTEuMzNWNy45MSAgICAgQzIuMSw4LjM1LDEuMzMsOC45LDAsOS4yNHoiLz4mI3hhOwkJPC9nPiYjeGE7CQk8ZyBpZD0ic2hhcGU0MzkzLTgiIHRyYW5zZm9ybT0idHJhbnNsYXRlKDAuMTEwNTQzLC0yOS40MDQ0KSI+JiN4YTsJCQk8dGl0bGUgaWQ9InRpdGxlODIyOTEiPlNoZWV0LjQzOTM8L3RpdGxlPiYjeGE7CQkJPHBhdGggaWQ9InBhdGg4MjI5MyIgaW5rc2NhcGU6Y29ubmVjdG9yLWN1cnZhdHVyZT0iMCIgc3R5bGU9ImZpbGw6I0I5MjMyNzsiIGQ9Ik0zMC41MSwzNS44OGMwLDEuNTQtNi44NSwyLjc2LTE1LjI2LDIuNzYgICAgIEM2Ljg1LDM4LjY0LDAsMzcuNDIsMCwzNS44OGMwLTEuNTUsNi44NS0yLjc3LDE1LjI1LTIuNzdDMjMuNjYsMzMuMTEsMzAuNTEsMzQuMzMsMzAuNTEsMzUuODh6Ii8+JiN4YTsJCTwvZz4mI3hhOwkJPGcgaWQ9InNoYXBlNDM5NC0xMCIgdHJhbnNmb3JtPSJ0cmFuc2xhdGUoMCwtOC43MzI4OCkiPiYjeGE7CQkJPHRpdGxlIGlkPSJ0aXRsZTgyMjk2Ij5TaGVldC40Mzk0PC90aXRsZT4mI3hhOwkJCTxwYXRoIGlkPSJwYXRoODIyOTgiIGlua3NjYXBlOmNvbm5lY3Rvci1jdXJ2YXR1cmU9IjAiIHN0eWxlPSJmaWxsOiM5QTFDMjE7IiBkPSJNMCwzMy42N2MwLDEuNTQsNi44NSwyLjc2LDE1LjI1LDIuNzYgICAgIGM4LjQxLDAsMTUuMjYtMS4yMiwxNS4yNi0yLjc2djIuMjFjMCwxLjU0LTYuODUsMi43Ni0xNS4yNiwyLjc2QzYuODUsMzguNjQsMCwzNy40MiwwLDM1Ljg4VjMzLjY3eiIvPiYjeGE7CQk8L2c+JiN4YTsJCTxnIGlkPSJzaGFwZTQzOTUtMTIiIHRyYW5zZm9ybT0idHJhbnNsYXRlKDAuMTEwNTQzLC0xOC40NjA2KSI+JiN4YTsJCQk8dGl0bGUgaWQ9InRpdGxlODIzMDEiPlNoZWV0LjQzOTU8L3RpdGxlPiYjeGE7CQkJPHBhdGggaWQ9InBhdGg4MjMwMyIgaW5rc2NhcGU6Y29ubmVjdG9yLWN1cnZhdHVyZT0iMCIgc3R5bGU9ImZpbGw6IzlBMUMyMTsiIGQ9Ik0zMC41MSwzMy42N2MwLDEuNTQtNi44NSwyLjc2LTE1LjI2LDIuNzYgICAgIEM2Ljg1LDM2LjQzLDAsMzUuMjEsMCwzMy42N3YyLjIxYzAsMS41NCw2Ljg1LDIuNzYsMTUuMjUsMi43NmM4LjQxLDAsMTUuMjYtMS4yMiwxNS4yNi0yLjc2VjMzLjY3eiIvPiYjeGE7CQk8L2c+JiN4YTsJPC9nPiYjeGE7PC9nPiYjeGE7PC9zdmc+;" vertex="1" parent="1">
          <mxGeometry x="1061.45" y="810" width="31" height="35" as="geometry" />
        </mxCell>
        <mxCell id="bqVkadd0tKrhda9ODERW-8" value="" style="group" vertex="1" connectable="0" parent="1">
          <mxGeometry x="-180" y="150" width="230" height="151" as="geometry" />
        </mxCell>
        <mxCell id="AcxdMaKK0mU5kZiv2lnr-4" value="AWS" style="rounded=0;whiteSpace=wrap;html=1;fillColor=#f5f5f5;strokeColor=none;fontColor=#333333;verticalAlign=top;" parent="bqVkadd0tKrhda9ODERW-8" vertex="1">
          <mxGeometry width="230" height="151" as="geometry" />
        </mxCell>
        <mxCell id="bqVkadd0tKrhda9ODERW-2" value="" style="shape=image;verticalLabelPosition=bottom;labelBackgroundColor=#ffffff;verticalAlign=top;aspect=fixed;imageAspect=0;image=data:image/svg+xml,PHN2ZyB4bWxuczpkYz0iaHR0cDovL3B1cmwub3JnL2RjL2VsZW1lbnRzLzEuMS8iIHhtbG5zOmNjPSJodHRwOi8vY3JlYXRpdmVjb21tb25zLm9yZy9ucyMiIHhtbG5zOnJkZj0iaHR0cDovL3d3dy53My5vcmcvMTk5OS8wMi8yMi1yZGYtc3ludGF4LW5zIyIgeG1sbnM6c3ZnPSJodHRwOi8vd3d3LnczLm9yZy8yMDAwL3N2ZyIgeG1sbnM9Imh0dHA6Ly93d3cudzMub3JnLzIwMDAvc3ZnIiB4bWxuczpzb2RpcG9kaT0iaHR0cDovL3NvZGlwb2RpLnNvdXJjZWZvcmdlLm5ldC9EVEQvc29kaXBvZGktMC5kdGQiIHhtbG5zOmlua3NjYXBlPSJodHRwOi8vd3d3Lmlua3NjYXBlLm9yZy9uYW1lc3BhY2VzL2lua3NjYXBlIiB2ZXJzaW9uPSIxLjEiIGlkPSJzdmc4NTkwMyIgaW5rc2NhcGU6dmVyc2lvbj0iMC45Mi4zICgyNDA1NTQ2LCAyMDE4LTAzLTExKSIgc29kaXBvZGk6ZG9jbmFtZT0icmVzdC5zdmciIHg9IjBweCIgeT0iMHB4IiB2aWV3Qm94PSIwIDAgMjkuNzIwMDAxIDI5LjcyMDAwMyIgeG1sOnNwYWNlPSJwcmVzZXJ2ZSIgd2lkdGg9IjI5LjcxOTk5OSIgaGVpZ2h0PSIyOS43MjAwMDEiPjxtZXRhZGF0YSBpZD0ibWV0YWRhdGE4ODIwIj48cmRmOlJERj48Y2M6V29yayByZGY6YWJvdXQ9IiI+PGRjOmZvcm1hdD5pbWFnZS9zdmcreG1sPC9kYzpmb3JtYXQ+PGRjOnR5cGUgcmRmOnJlc291cmNlPSJodHRwOi8vcHVybC5vcmcvZGMvZGNtaXR5cGUvU3RpbGxJbWFnZSIvPjxkYzp0aXRsZS8+PC9jYzpXb3JrPjwvcmRmOlJERj48L21ldGFkYXRhPjxkZWZzIGlkPSJkZWZzODgxOCI+JiN4YTsJJiN4YTsJJiN4YTsmI3hhOwkJJiN4YTsJCSYjeGE7CQkmI3hhOwkJJiN4YTsJJiN4YTsJCQkmI3hhOwkJCSYjeGE7CQkJJiN4YTsJCQkmI3hhOwkJCSYjeGE7CQkmI3hhOwkJCSYjeGE7CQkJJiN4YTsJCQkmI3hhOwkJJiN4YTsJCQkmI3hhOwkJCSYjeGE7CQkJJiN4YTsJCSYjeGE7CQkJCSYjeGE7CQkJJiN4YTsJCQkJJiN4YTsJCQkmI3hhOwkJCQkmI3hhOwkJCQkmI3hhOwkJCQkmI3hhOwkJCSYjeGE7CQkJCSYjeGE7CQkJCSYjeGE7CQkJCSYjeGE7CQkJJiN4YTsJCQkJJiN4YTsJCQkJJiN4YTsJCQkJJiN4YTsJCQkmI3hhOwkJCQkmI3hhOwkJCQkmI3hhOwkJCQkmI3hhOwkJCSYjeGE7CQkJCQkmI3hhOwkJCQkmI3hhOwkJCQkJJiN4YTsJCQkJJiN4YTsJCQkJCSYjeGE7CQkJCSYjeGE7CQkJCQkmI3hhOwkJCQkmI3hhOwkJCQkJJiN4YTsJCQkJJiN4YTsJCQkJCSYjeGE7CQkJCSYjeGE7CQkJCQkJJiN4YTsJCQkJCSYjeGE7CQkJCQkJJiN4YTsJCQkJCSYjeGE7CQkJCQkJJiN4YTsJCQkJCTwvZGVmcz4mI3hhOzxmaWx0ZXIgaWQ9ImZpbHRlcl8yIj4mI3hhOwk8ZmVHYXVzc2lhbkJsdXIgaWQ9ImZlR2F1c3NpYW5CbHVyODU4NDEiIHN0ZERldmlhdGlvbj0iMiIvPiYjeGE7PC9maWx0ZXI+JiN4YTs8c29kaXBvZGk6bmFtZWR2aWV3IGJvcmRlcmNvbG9yPSIjNjY2NjY2IiBib3JkZXJvcGFjaXR5PSIxIiBmaXQtbWFyZ2luLWJvdHRvbT0iMCIgZml0LW1hcmdpbi1sZWZ0PSIwIiBmaXQtbWFyZ2luLXJpZ2h0PSIwIiBmaXQtbWFyZ2luLXRvcD0iMCIgZ3JpZHRvbGVyYW5jZT0iMTAiIGd1aWRldG9sZXJhbmNlPSIxMCIgaWQ9Im5hbWVkdmlldzg1OTA1IiBpbmtzY2FwZTpjdXJyZW50LWxheWVyPSJzdmc4NTkwMyIgaW5rc2NhcGU6Y3g9IjEzLjk2NzQ5NCIgaW5rc2NhcGU6Y3k9IjguODczMTQ4IiBpbmtzY2FwZTpwYWdlb3BhY2l0eT0iMCIgaW5rc2NhcGU6cGFnZXNoYWRvdz0iMiIgaW5rc2NhcGU6d2luZG93LWhlaWdodD0iMTAxNyIgaW5rc2NhcGU6d2luZG93LW1heGltaXplZD0iMSIgaW5rc2NhcGU6d2luZG93LXdpZHRoPSIxOTIwIiBpbmtzY2FwZTp3aW5kb3cteD0iLTgiIGlua3NjYXBlOndpbmRvdy15PSItOCIgaW5rc2NhcGU6em9vbT0iMTMuNzQwOTg4IiBvYmplY3R0b2xlcmFuY2U9IjEwIiBwYWdlY29sb3I9IiNmZmZmZmYiIHNob3dncmlkPSJmYWxzZSI+JiN4YTsJPC9zb2RpcG9kaTpuYW1lZHZpZXc+JiN4YTs8Y2lyY2xlIHI9IjE0Ljg2IiBjeT0iMTQuODYiIGN4PSIxNC44NiIgc3R5bGU9ImZpbGw6IzEwN2MxMCIgaWQ9ImVsbGlwc2U4NTg1NCIvPjxwYXRoIGQ9Ik0gNC41NzAwMDAxLDQuMTYwMDAwOSBDIDEuNzUwMDAwMSw2Ljg3MDAwMDkgOS4wNjM3MjA5ZS04LDEwLjY2MDAwMSA5LjA2MzcyMDllLTgsMTQuODYwMDAxIGMgMCw4LjIxIDYuNjUwMDAwMDA5MzYyNzkxLDE0Ljg2IDE0Ljg1OTk5OTkwOTM2Mjc4OSwxNC44NiA0LjIsMCA3Ljk5LC0xLjc0IDEwLjcsLTQuNTcgeiIgc3R5bGU9ImZpbGw6IzAwNGIxYyIgaW5rc2NhcGU6Y29ubmVjdG9yLWN1cnZhdHVyZT0iMCIgaWQ9InBhdGg4NTg2MiIvPjxwYXRoIGlkPSJwYXRoODU4NzIiIGlua3NjYXBlOmNvbm5lY3Rvci1jdXJ2YXR1cmU9IjAiIHN0eWxlPSJmaWxsOiNmZmZmZmYiIGQ9Im0gOS4wNDA4MjAxLDE4Ljc1OTQ5IGggLTEuMDkgbCAtMS4zMSwtMi4xOSBjIC0wLjEyLC0wLjIgLTAuMjQsLTAuMzcgLTAuMzUsLTAuNTIgLTAuMTEsLTAuMTQgLTAuMjMsLTAuMjYgLTAuMzQsLTAuMzUgLTAuMTIsLTAuMDkgLTAuMjUsLTAuMTUgLTAuMzgsLTAuMiAtMC4xNCwtMC4wNCAtMC4yOSwtMC4wNiAtMC40NiwtMC4wNiBoIC0wLjc2IHYgMy4zMiBoIC0wLjkxIHYgLTcuOCBoIDIuMzMgYyAwLjM0LDAgMC42NiwwLjA0IDAuOTQsMC4xMiAwLjI5LDAuMDkgMC41NCwwLjIyIDAuNzYsMC4zOSAwLjIxLDAuMTggMC4zNywwLjM5IDAuNDksMC42NSAwLjEyLDAuMjYgMC4xOCwwLjU3IDAuMTgsMC45MiAwLDAuMjcgLTAuMDQsMC41MiAtMC4xMiwwLjc0IC0wLjA4LDAuMjMgLTAuMiwwLjQzIC0wLjM1LDAuNjEgLTAuMTUsMC4xOCAtMC4zMywwLjMzIC0wLjU0LDAuNDYgLTAuMjEsMC4xMiAtMC40NSwwLjIyIC0wLjcyLDAuMjkgdiAwLjAyIGMgMC4xMywwLjA2IDAuMjUsMC4xMiAwLjM0LDAuMiAwLjEsMC4wNyAwLjE5LDAuMTYgMC4yOCwwLjI2IDAuMDgsMC4xIDAuMTcsMC4yMiAwLjI2LDAuMzUgMC4wOCwwLjEzIDAuMTgsMC4yOCAwLjI4LDAuNDUgeiBtIC00LjY5LC02Ljk4IHYgMi44MyBoIDEuMjUgYyAwLjIyLDAgMC40NCwtMC4wMyAwLjYzLC0wLjEgMC4xOSwtMC4wNyAwLjM2LC0wLjE3IDAuNSwtMC4zIDAuMTQsLTAuMTIgMC4yNiwtMC4yOCAwLjM0LC0wLjQ3IDAuMDgsLTAuMTkgMC4xMiwtMC40IDAuMTIsLTAuNjMgMCwtMC40MiAtMC4xNCwtMC43NCAtMC40MSwtMC45NyAtMC4yNywtMC4yNCAtMC42NiwtMC4zNiAtMS4xNywtMC4zNiB6Ii8+PHBhdGggaWQ9InBhdGg4NTg4MCIgaW5rc2NhcGU6Y29ubmVjdG9yLWN1cnZhdHVyZT0iMCIgc3R5bGU9ImZpbGw6I2ZmZmZmZiIgZD0ibSAxNC4yNDg4MSwxOC43NTk0OSBoIC00LjE0IHYgLTcuOCBoIDMuOTYgdiAwLjgyIGggLTMuMDUgdiAyLjYgaCAyLjgyIHYgMC44MiBoIC0yLjgyIHYgMi43MyBoIDMuMjMgeiIvPjxwYXRoIGlkPSJwYXRoODU4ODgiIGlua3NjYXBlOmNvbm5lY3Rvci1jdXJ2YXR1cmU9IjAiIHN0eWxlPSJmaWxsOiNmZmZmZmYiIGQ9Im0gMTUuMzgzMDIsMTguNDQxNDAxIHYgLTEuMDcgYyAwLjEyLDAuMTEgMC4yNywwLjIgMC40NCwwLjI5IDAuMTgsMC4wOSAwLjM2LDAuMTYgMC41NSwwLjIyIDAuMTksMC4wNiAwLjM4LDAuMTEgMC41NywwLjE0IDAuMTksMC4wMyAwLjM3LDAuMDUgMC41NCwwLjA1IDAuNTYsMCAwLjk4LC0wLjExIDEuMjYsLTAuMzEgMC4yNywtMC4yMSAwLjQxLC0wLjUxIDAuNDEsLTAuOSAwLC0wLjIyIC0wLjA0LC0wLjQgLTAuMTQsLTAuNTUgLTAuMDksLTAuMTYgLTAuMjIsLTAuMyAtMC4zOCwtMC40MyAtMC4xNiwtMC4xMyAtMC4zNiwtMC4yNSAtMC41OCwtMC4zNyAtMC4yMiwtMC4xMiAtMC40NiwtMC4yNCAtMC43MiwtMC4zNyAtMC4yNywtMC4xNCAtMC41MywtMC4yOCAtMC43NiwtMC40MiAtMC4yNCwtMC4xNSAtMC40NCwtMC4zIC0wLjYyLC0wLjQ3IC0wLjE3LC0wLjE3IC0wLjMxLC0wLjM3IC0wLjQxLC0wLjU4IC0wLjEsLTAuMjIgLTAuMTUsLTAuNDcgLTAuMTUsLTAuNzYgMCwtMC4zNiAwLjA4LC0wLjY3IDAuMjMsLTAuOTMgMC4xNiwtMC4yNiAwLjM3LC0wLjQ4IDAuNjIsLTAuNjUgMC4yNSwtMC4xNyAwLjU0LC0wLjMgMC44NywtMC4zOCAwLjMyLC0wLjA4IDAuNjUsLTAuMTMgMC45OSwtMC4xMyAwLjc3LDAgMS4zMywwLjEgMS42OCwwLjI4IHYgMS4wMyBjIC0wLjQ2LC0wLjMyIC0xLjA1LC0wLjQ4IC0xLjc3LC0wLjQ4IC0wLjIsMCAtMC40LDAuMDIgLTAuNiwwLjA2IC0wLjIsMC4wNSAtMC4zOCwwLjExIC0wLjUzLDAuMjEgLTAuMTYsMC4wOSAtMC4yOSwwLjIxIC0wLjM4LDAuMzYgLTAuMSwwLjE1IC0wLjE1LDAuMzMgLTAuMTUsMC41NSAwLDAuMiAwLjA0LDAuMzcgMC4xMSwwLjUxIDAuMDcsMC4xNSAwLjE4LDAuMjggMC4zMywwLjQgMC4xNCwwLjEyIDAuMzIsMC4yNCAwLjUzLDAuMzUgMC4yMSwwLjExIDAuNDUsMC4yNCAwLjcyLDAuMzcgMC4yOCwwLjE0IDAuNTUsMC4yOCAwLjgsMC40NCAwLjI1LDAuMTUgMC40NywwLjMyIDAuNjUsMC41IDAuMTksMC4xOSAwLjM0LDAuMzkgMC40NSwwLjYyIDAuMTEsMC4yMiAwLjE3LDAuNDggMC4xNywwLjc3IDAsMC4zOSAtMC4wOCwwLjcxIC0wLjIzLDAuOTggLTAuMTUsMC4yNiAtMC4zNSwwLjQ4IC0wLjYxLDAuNjUgLTAuMjUsMC4xNiAtMC41NSwwLjI5IC0wLjg4LDAuMzYgLTAuMzMsMC4wNyAtMC42OSwwLjExIC0xLjA2LDAuMTEgLTAuMTIsMCAtMC4yNywtMC4wMSAtMC40NSwtMC4wMyAtMC4xOSwtMC4wMiAtMC4zNywtMC4wNSAtMC41NiwtMC4wOSAtMC4xOSwtMC4wMyAtMC4zNywtMC4wOCAtMC41NCwtMC4xNCAtMC4xNiwtMC4wNSAtMC4zLC0wLjEyIC0wLjQsLTAuMTkgeiIvPjxwYXRoIGlkPSJwYXRoODU4OTYiIGlua3NjYXBlOmNvbm5lY3Rvci1jdXJ2YXR1cmU9IjAiIHN0eWxlPSJmaWxsOiNmZmZmZmYiIGQ9Im0gMjYuMjg5NzIsMTEuNzc5NDkgaCAtMi4yNiB2IDYuOTggaCAtMC45MSB2IC02Ljk4IGggLTIuMjUgdiAtMC44MiBoIDUuNDIgeiIvPiYjeGE7PC9zdmc+;" vertex="1" parent="bqVkadd0tKrhda9ODERW-8">
          <mxGeometry x="177" y="35" width="30" height="30" as="geometry" />
        </mxCell>
        <mxCell id="bqVkadd0tKrhda9ODERW-86" style="edgeStyle=orthogonalEdgeStyle;rounded=0;orthogonalLoop=1;jettySize=auto;html=1;entryX=0.5;entryY=1;entryDx=0;entryDy=0;strokeColor=#808080;" edge="1" parent="bqVkadd0tKrhda9ODERW-8" source="bqVkadd0tKrhda9ODERW-4" target="bqVkadd0tKrhda9ODERW-2">
          <mxGeometry relative="1" as="geometry">
            <Array as="points">
              <mxPoint x="192" y="123" />
            </Array>
          </mxGeometry>
        </mxCell>
        <mxCell id="bqVkadd0tKrhda9ODERW-87" style="edgeStyle=orthogonalEdgeStyle;rounded=0;orthogonalLoop=1;jettySize=auto;html=1;strokeColor=#808080;" edge="1" parent="bqVkadd0tKrhda9ODERW-8" source="bqVkadd0tKrhda9ODERW-4" target="bqVkadd0tKrhda9ODERW-10">
          <mxGeometry relative="1" as="geometry" />
        </mxCell>
        <mxCell id="bqVkadd0tKrhda9ODERW-4" value="" style="shape=image;verticalLabelPosition=bottom;labelBackgroundColor=#ffffff;verticalAlign=top;aspect=fixed;imageAspect=0;image=data:image/svg+xml,PHN2ZyB4bWxuczpjYz0iaHR0cDovL2NyZWF0aXZlY29tbW9ucy5vcmcvbnMjIiB4bWxuczpkYz0iaHR0cDovL3B1cmwub3JnL2RjL2VsZW1lbnRzLzEuMS8iIHhtbG5zOmlua3NjYXBlPSJodHRwOi8vd3d3Lmlua3NjYXBlLm9yZy9uYW1lc3BhY2VzL2lua3NjYXBlIiB4bWxuczpyZGY9Imh0dHA6Ly93d3cudzMub3JnLzE5OTkvMDIvMjItcmRmLXN5bnRheC1ucyMiIHhtbG5zOnNvZGlwb2RpPSJodHRwOi8vc29kaXBvZGkuc291cmNlZm9yZ2UubmV0L0RURC9zb2RpcG9kaS0wLmR0ZCIgeG1sbnM6c3ZnPSJodHRwOi8vd3d3LnczLm9yZy8yMDAwL3N2ZyIgeG1sbnM9Imh0dHA6Ly93d3cudzMub3JnLzIwMDAvc3ZnIiB4bWxuczp4bGluaz0iaHR0cDovL3d3dy53My5vcmcvMTk5OS94bGluayIgdmVyc2lvbj0iMS4xIiBpZD0ic3ZnOTAxOTEiIGlua3NjYXBlOnZlcnNpb249IjAuOTIuMyAoMjQwNTU0NiwgMjAxOC0wMy0xMSkiIHNvZGlwb2RpOmRvY25hbWU9InNlcnZpY2VzLnN2ZyIgeD0iMHB4IiB5PSIwcHgiIHZpZXdCb3g9IjAgMCA1Ni4yNiA0NS42OCIgc3R5bGU9ImVuYWJsZS1iYWNrZ3JvdW5kOm5ldyAwIDAgNTYuMjYgNDUuNjg7IiB4bWw6c3BhY2U9InByZXNlcnZlIj4mI3hhOzxzb2RpcG9kaTpuYW1lZHZpZXcgYm9yZGVyY29sb3I9IiM2NjY2NjYiIGJvcmRlcm9wYWNpdHk9IjEiIGZpdC1tYXJnaW4tYm90dG9tPSIwIiBmaXQtbWFyZ2luLWxlZnQ9IjAiIGZpdC1tYXJnaW4tcmlnaHQ9IjAiIGZpdC1tYXJnaW4tdG9wPSIwIiBncmlkdG9sZXJhbmNlPSIxMCIgZ3VpZGV0b2xlcmFuY2U9IjEwIiBpZD0ibmFtZWR2aWV3OTAxOTMiIGlua3NjYXBlOmN1cnJlbnQtbGF5ZXI9InN2ZzkwMTkxIiBpbmtzY2FwZTpjeD0iMzIuNzA3NDM1IiBpbmtzY2FwZTpjeT0iMTIuNzc0NzU4IiBpbmtzY2FwZTpwYWdlb3BhY2l0eT0iMCIgaW5rc2NhcGU6cGFnZXNoYWRvdz0iMiIgaW5rc2NhcGU6d2luZG93LWhlaWdodD0iMTAxNyIgaW5rc2NhcGU6d2luZG93LW1heGltaXplZD0iMSIgaW5rc2NhcGU6d2luZG93LXdpZHRoPSIxOTIwIiBpbmtzY2FwZTp3aW5kb3cteD0iLTgiIGlua3NjYXBlOndpbmRvdy15PSItOCIgaW5rc2NhcGU6em9vbT0iNi44OTEyMjIyIiBvYmplY3R0b2xlcmFuY2U9IjEwIiBwYWdlY29sb3I9IiNmZmZmZmYiIHNob3dncmlkPSJmYWxzZSI+JiN4YTsJPC9zb2RpcG9kaTpuYW1lZHZpZXc+JiN4YTs8ZyBpZD0iZzkwMTg5IiB0cmFuc2Zvcm09InRyYW5zbGF0ZSgtMC43NSwtMC43NTI0KSI+JiN4YTsJPHRpdGxlIGlkPSJ0aXRsZTkwMTY5Ij5QYWdlLTE8L3RpdGxlPiYjeGE7CTxnIGlkPSJncm91cDQzNzUtMSIgdHJhbnNmb3JtPSJ0cmFuc2xhdGUoMC43NSwtMC43NSkiPiYjeGE7CQk8dGl0bGUgaWQ9InRpdGxlOTAxNzEiPlNlcnZpY2VzPC90aXRsZT4mI3hhOwkJPGcgaWQ9InNoYXBlNDM3Ni0yIj4mI3hhOwkJCTx0aXRsZSBpZD0idGl0bGU5MDE3MyI+U2hlZXQuNDM3NjwvdGl0bGU+JiN4YTsJCQk8cGF0aCBpZD0icGF0aDkwMTc1IiBpbmtzY2FwZTpjb25uZWN0b3ItY3VydmF0dXJlPSIwIiBzdHlsZT0iZmlsbDojM0Y1NzY1OyIgZD0iTTQxLjEyLDI1LjY2Yy0wLjctMy43OS0wLjctMy43OS0wLjctMy43OSAgICAgYy0wLjE0LTAuNDItMC40Mi0wLjctMC45OS0wLjg0Yy01Ljc3LTAuMjgtNS43Ny0wLjI4LTUuNzctMC4yOGMtMC4yOC0wLjQyLTAuNTYtMC45OS0wLjg1LTEuNGMyLjY4LTUuMiwyLjY4LTUuMiwyLjY4LTUuMiAgICAgYzAuMjktMC40MSwwLjE1LTAuOTgtMC4yOC0xLjI2Yy0yLjk1LTIuMzgtMi45NS0yLjM4LTIuOTUtMi4zOGMtMC4yOS0wLjQyLTAuODUtMC40Mi0xLjI4LTAuMTRjLTQuNjQsMy42NC00LjY0LDMuNjQtNC42NCwzLjY0ICAgICBjLTAuNDMtMC4yNy0wLjg0LTAuNDEtMS40MS0wLjU2Yy0xLjQxLTYuNTktMS40MS02LjU5LTEuNDEtNi41OWMtMC4xNC0wLjQyLTAuNTYtMC44NS0wLjk5LTAuODVjLTMuOTMsMC0zLjkzLDAtMy45MywwICAgICBjLTAuNDMsMC0wLjg1LDAuNDMtMC45OSwwLjg1Yy0xLjQxLDYuNTktMS40MSw2LjU5LTEuNDEsNi41OWMtMC41NywwLjE1LTAuOTgsMC4yOS0xLjQxLDAuNTZjLTQuNjQtMy42NC00LjY0LTMuNjQtNC42NC0zLjY0ICAgICBjLTAuNDMtMC4yOC0wLjk5LTAuMjgtMS4yOCwwYy0yLjk1LDIuNTItMi45NSwyLjUyLTIuOTUsMi41MmMtMC40MywwLjI4LTAuNDMsMC44NS0wLjI4LDEuMjZjMi42Nyw1LjIsMi42Nyw1LjIsMi42Nyw1LjIgICAgIGMtMC4yOCwwLjQxLTAuNTYsMC45OC0wLjg0LDEuNGMtNS43OCwwLjI4LTUuNzgsMC4yOC01Ljc4LDAuMjhjLTAuNTYsMC0wLjg0LDAuNDItMC45OCwwLjg0QzAsMjUuNjYsMCwyNS42NiwwLDI1LjY2ICAgICBjMCwwLjQyLDAuMTQsMC45OCwwLjU3LDEuMTJjNS40OSwyLjI1LDUuNDksMi4yNSw1LjQ5LDIuMjVjMC4xNCwwLjU2LDAuMTQsMS4xMiwwLjI4LDEuNjhjLTQuMzcsMy45My00LjM3LDMuOTMtNC4zNywzLjkzICAgICBjLTAuMjgsMC4yOC0wLjQyLDAuODQtMC4xNCwxLjI2YzEuOTcsMy4zNywxLjk3LDMuMzcsMS45NywzLjM3YzAuMTUsMC4yOCwwLjcxLDAuNTYsMS4xMywwLjQyYzUuNjMtMS44Miw1LjYzLTEuODIsNS42My0xLjgyICAgICBjMC40MywwLjQyLDAuODUsMC44NCwxLjI4LDEuMTJjLTAuNzEsNS43NS0wLjcxLDUuNzUtMC43MSw1Ljc1Yy0wLjE0LDAuNTYsMC4xNCwwLjk5LDAuNTYsMS4xM2MzLjY3LDEuMjYsMy42NywxLjI2LDMuNjcsMS4yNiAgICAgYzAuNDEsMC4xMywwLjk4LDAsMS4yNi0wLjI4YzMuMS01LjA2LDMuMS01LjA2LDMuMS01LjA2YzAuMjgsMCwwLjU3LDAuMTUsMC44NCwwLjE1YzAuMjgsMCwwLjU3LTAuMTUsMC44NS0wLjE1ICAgICBjMy4xLDUuMDYsMy4xLDUuMDYsMy4xLDUuMDZjMC4yOCwwLjI4LDAuODQsMC40MSwxLjI2LDAuMjhjMy42Ni0xLjI2LDMuNjYtMS4yNiwzLjY2LTEuMjZjMC40My0wLjE0LDAuNzEtMC41NywwLjU3LTEuMTMgICAgIGMtMC43MS01Ljc1LTAuNzEtNS43NS0wLjcxLTUuNzVjMC40My0wLjQyLDAuODUtMC43LDEuMjgtMS4xMmM1LjYyLDEuODIsNS42MiwxLjgyLDUuNjIsMS44MmMwLjQzLDAuMTQsMC45OS0wLjE0LDEuMTQtMC40MiAgICAgYzEuOTctMy4zNywxLjk3LTMuMzcsMS45Ny0zLjM3YzAuMjctMC40MiwwLjEzLTAuOTgtMC4xNC0xLjI2Yy00LjM3LTMuOTMtNC4zNy0zLjkzLTQuMzctMy45M2MwLjE0LTAuNTYsMC4xNC0xLjEyLDAuMjgtMS42OCAgICAgYzUuNDktMi4yNSw1LjQ5LTIuMjUsNS40OS0yLjI1QzQwLjk5LDI2LjY0LDQxLjEyLDI2LjIyLDQxLjEyLDI1LjY2eiBNMjguNzMsMjcuMzVjMCwyLjI0LTAuOTksNC4yLTIuMzksNS43NSAgICAgYy0xLjU1LDEuNC0zLjUyLDIuMzgtNS43OCwyLjM4Yy0yLjI1LDAtNC4yMi0wLjk4LTUuNzctMi4zOGMtMS40MS0xLjU1LTIuNC0zLjUxLTIuNC01Ljc1YzAtMi4yNSwwLjk5LTQuMzUsMi40LTUuNzYgICAgIGMxLjU1LTEuNTQsMy41Mi0yLjM4LDUuNzctMi4zOGMyLjI2LDAsNC4yMywwLjg0LDUuNzgsMi4zOEMyNy43NCwyMywyOC43MywyNS4xLDI4LjczLDI3LjM1eiIvPiYjeGE7CQk8L2c+JiN4YTsJCTxnIGlkPSJzaGFwZTQzNzctNCIgdHJhbnNmb3JtPSJ0cmFuc2xhdGUoMTYuNzU3NSwtMTYuMDI0OCkiPiYjeGE7CQkJPHRpdGxlIGlkPSJ0aXRsZTkwMTc4Ij5TaGVldC40Mzc3PC90aXRsZT4mI3hhOwkJCTxwYXRoIGlkPSJwYXRoOTAxODAiIGlua3NjYXBlOmNvbm5lY3Rvci1jdXJ2YXR1cmU9IjAiIHN0eWxlPSJmaWxsOiMzRjU3NjU7IiBkPSJNMCw0My4zOGMwLTIuMDksMS43MS0zLjc5LDMuOC0zLjc5ICAgICBjMi4xLDAsMy44MSwxLjcsMy44MSwzLjc5YzAsMi4xLTEuNzEsMy44LTMuODEsMy44QzEuNzEsNDcuMTgsMCw0NS40OCwwLDQzLjM4eiIvPiYjeGE7CQk8L2c+JiN4YTsJCTxnIGlkPSJzaGFwZTQzNzgtNiIgdHJhbnNmb3JtPSJ0cmFuc2xhdGUoMzUuNDY4MiwtMjMuMjA3NikiPiYjeGE7CQkJPHRpdGxlIGlkPSJ0aXRsZTkwMTgzIj5TaGVldC40Mzc4PC90aXRsZT4mI3hhOwkJCTxwYXRoIGlkPSJwYXRoOTAxODUiIGlua3NjYXBlOmNvbm5lY3Rvci1jdXJ2YXR1cmU9IjAiIHN0eWxlPSJmaWxsOiMzRjU3NjU7IiBkPSJNMTguMTksMzcuNDljMC4xNC0wLjQyLDAuMjgtMC45OCwwLjI4LTEuNTUgICAgIGMwLTAuNDEtMC4xNC0wLjk4LTAuMjgtMS40YzIuMjYtMi4xLDIuMjYtMi4xLDIuMjYtMi4xYzAuMjgtMC4xNSwwLjI4LTAuNDMsMC4yOC0wLjcxYzAtMC4xMywwLTAuNDIsMC0wLjU2ICAgICBjLTAuOTgtMS42OC0wLjk4LTEuNjgtMC45OC0xLjY4Yy0wLjI5LTAuMjktMC41Ny0wLjQzLTAuOTktMC40M2MwLDAtMC4xNSwwLTAuMjksMGMtMi44MiwwLjg1LTIuODIsMC44NS0yLjgyLDAuODUgICAgIGMtMC44NC0wLjU3LTEuNjktMS4xMi0yLjY4LTEuNDFjLTAuNTYtMi45NS0wLjU2LTIuOTUtMC41Ni0yLjk1Yy0wLjE0LTAuNDItMC41Ni0wLjg0LTAuOTktMC44NGMtMS45NywwLTEuOTcsMC0xLjk3LDAgICAgIGMtMC41NiwwLTAuODUsMC40Mi0wLjk5LDAuODRjLTAuNywyLjk1LTAuNywyLjk1LTAuNywyLjk1Yy0wLjk5LDAuMjktMS44NCwwLjg0LTIuNTQsMS41NWMtMi45Ni0wLjk5LTIuOTYtMC45OS0yLjk2LTAuOTkgICAgIGMtMC4xNCwwLTAuMTQsMC0wLjI4LDBjLTAuMjgsMC0wLjcxLDAuMTQtMC44NSwwLjQzYy0wLjk5LDEuNjgtMC45OSwxLjY4LTAuOTksMS42OEMwLDMxLjMxLDAsMzEuNiwwLDMxLjczICAgICBjMCwwLjI4LDAuMTQsMC41NiwwLjI4LDAuNzFjMi40LDIuMSwyLjQsMi4xLDIuNCwyLjFjLTAuMTQsMC40Mi0wLjI4LDAuOTktMC4yOCwxLjRjMCwwLjU3LDAuMTQsMC45OSwwLjI4LDEuNTUgICAgIGMtMi40LDIuMTEtMi40LDIuMTEtMi40LDIuMTFDMC4xNCwzOS43NCwwLDQwLjAyLDAsNDAuM2MwLDAuMTQsMCwwLjI4LDAuMTQsMC40MmMwLjk5LDEuNjksMC45OSwxLjY5LDAuOTksMS42OSAgICAgYzAuMTQsMC40MiwwLjU3LDAuNTYsMC44NSwwLjU2YzAuMTQsMCwwLjE0LDAsMC4yOCwwYzIuOTYtMC45OSwyLjk2LTAuOTksMi45Ni0wLjk5YzAuNywwLjU3LDEuNTUsMS4xMywyLjU0LDEuNDEgICAgIGMwLjcsMy4wOSwwLjcsMy4wOSwwLjcsMy4wOWMwLjE0LDAuNDIsMC40MywwLjcsMC45OSwwLjdjMS45NywwLDEuOTcsMCwxLjk3LDBjMC40MywwLDAuODUtMC4yOCwwLjk5LTAuNyAgICAgYzAuNTYtMi45NSwwLjU2LTIuOTUsMC41Ni0yLjk1YzAuOTktMC40MiwxLjg0LTAuODQsMi42OC0xLjU1YzIuODIsMC45OSwyLjgyLDAuOTksMi44MiwwLjk5YzAuMTQsMCwwLjI5LDAsMC4yOSwwICAgICBjMC40MiwwLDAuNy0wLjE0LDAuOTktMC41NmMwLjk4LTEuNjksMC45OC0xLjY5LDAuOTgtMS42OWMwLTAuMTQsMC4xNC0wLjI4LDAtMC40MmMwLjE0LTAuMjgsMC0wLjU2LTAuMjgtMC43TDE4LjE5LDM3LjQ5eiAgICAgIE0xMy41NCwzNS45NGMwLDEuNjktMS40MSwzLjA5LTMuMTEsMy4wOWMtMS42OSwwLTMuMDktMS40LTMuMDktMy4wOWMwLTEuNjgsMS40LTMuMDgsMy4wOS0zLjA4ICAgICBDMTIuMTMsMzIuODYsMTMuNTQsMzQuMjYsMTMuNTQsMzUuOTR6Ii8+JiN4YTsJCTwvZz4mI3hhOwk8L2c+JiN4YTs8L2c+JiN4YTs8L3N2Zz4=;" vertex="1" parent="bqVkadd0tKrhda9ODERW-8">
          <mxGeometry x="100" y="100" width="56" height="46" as="geometry" />
        </mxCell>
        <mxCell id="bqVkadd0tKrhda9ODERW-10" value="" style="shape=image;verticalLabelPosition=bottom;labelBackgroundColor=#ffffff;verticalAlign=top;aspect=fixed;imageAspect=0;image=data:image/svg+xml,PHN2ZyB4bWxuczpjYz0iaHR0cDovL2NyZWF0aXZlY29tbW9ucy5vcmcvbnMjIiB4bWxuczpkYz0iaHR0cDovL3B1cmwub3JnL2RjL2VsZW1lbnRzLzEuMS8iIHhtbG5zOmlua3NjYXBlPSJodHRwOi8vd3d3Lmlua3NjYXBlLm9yZy9uYW1lc3BhY2VzL2lua3NjYXBlIiB4bWxuczpyZGY9Imh0dHA6Ly93d3cudzMub3JnLzE5OTkvMDIvMjItcmRmLXN5bnRheC1ucyMiIHhtbG5zOnNvZGlwb2RpPSJodHRwOi8vc29kaXBvZGkuc291cmNlZm9yZ2UubmV0L0RURC9zb2RpcG9kaS0wLmR0ZCIgeG1sbnM6c3ZnPSJodHRwOi8vd3d3LnczLm9yZy8yMDAwL3N2ZyIgeG1sbnM9Imh0dHA6Ly93d3cudzMub3JnLzIwMDAvc3ZnIiB4bWxuczp4bGluaz0iaHR0cDovL3d3dy53My5vcmcvMTk5OS94bGluayIgdmVyc2lvbj0iMS4xIiBpZD0ic3ZnMTAxMjg5IiBpbmtzY2FwZTp2ZXJzaW9uPSIwLjkyLjMgKDI0MDU1NDYsIDIwMTgtMDMtMTEpIiBzb2RpcG9kaTpkb2NuYW1lPSJtb25nb2RiLnN2ZyIgeD0iMHB4IiB5PSIwcHgiIHZpZXdCb3g9IjAgMCAxMDEuMjggNjQuNDYiIHN0eWxlPSJlbmFibGUtYmFja2dyb3VuZDpuZXcgMCAwIDEwMS4yOCA2NC40NjsiIHhtbDpzcGFjZT0icHJlc2VydmUiPiYjeGE7PHNvZGlwb2RpOm5hbWVkdmlldyBib3JkZXJjb2xvcj0iIzY2NjY2NiIgYm9yZGVyb3BhY2l0eT0iMSIgZml0LW1hcmdpbi1ib3R0b209IjAiIGZpdC1tYXJnaW4tbGVmdD0iMCIgZml0LW1hcmdpbi1yaWdodD0iMCIgZml0LW1hcmdpbi10b3A9IjAiIGdyaWR0b2xlcmFuY2U9IjEwIiBndWlkZXRvbGVyYW5jZT0iMTAiIGlkPSJuYW1lZHZpZXcxMDEyOTEiIGlua3NjYXBlOmN1cnJlbnQtbGF5ZXI9InN2ZzEwMTI4OSIgaW5rc2NhcGU6Y3g9IjY3LjUyMzY1MyIgaW5rc2NhcGU6Y3k9IjQzLjE3NTI0NCIgaW5rc2NhcGU6cGFnZW9wYWNpdHk9IjAiIGlua3NjYXBlOnBhZ2VzaGFkb3c9IjIiIGlua3NjYXBlOndpbmRvdy1oZWlnaHQ9IjEwMTciIGlua3NjYXBlOndpbmRvdy1tYXhpbWl6ZWQ9IjEiIGlua3NjYXBlOndpbmRvdy13aWR0aD0iMTkyMCIgaW5rc2NhcGU6d2luZG93LXg9Ii04IiBpbmtzY2FwZTp3aW5kb3cteT0iLTgiIGlua3NjYXBlOnpvb209IjkuODQ1NDgxNCIgb2JqZWN0dG9sZXJhbmNlPSIxMCIgcGFnZWNvbG9yPSIjZmZmZmZmIiBzaG93Z3JpZD0iZmFsc2UiPiYjeGE7CTwvc29kaXBvZGk6bmFtZWR2aWV3PiYjeGE7PGcgaWQ9ImcxMDEyODciIHRyYW5zZm9ybT0idHJhbnNsYXRlKC0wLjY0NTM3OTIxLC0wLjk0MzY1ODU5KSI+JiN4YTsJPHRpdGxlIGlkPSJ0aXRsZTEwMTIxNyI+UGFnZS0xPC90aXRsZT4mI3hhOwk8ZyBpZD0iZ3JvdXAzOTM5LTEiIHRyYW5zZm9ybT0idHJhbnNsYXRlKDAuNTc1NTk0LC0wLjU4MDQ2NikiPiYjeGE7CQk8dGl0bGUgaWQ9InRpdGxlMTAxMjE5Ij5Nb25nb0RCPC90aXRsZT4mI3hhOwkJPGcgaWQ9Imdyb3VwMzk0MC0yIj4mI3hhOwkJCTx0aXRsZSBpZD0idGl0bGUxMDEyMjEiPkxheWVyIDE8L3RpdGxlPiYjeGE7CQkJPGcgaWQ9Imdyb3VwMzk0MS0zIj4mI3hhOwkJCQk8dGl0bGUgaWQ9InRpdGxlMTAxMjIzIj5zdmdfMTwvdGl0bGU+JiN4YTsJCQkJPGcgaWQ9Imdyb3VwMzk0Mi00IiB0cmFuc2Zvcm09InRyYW5zbGF0ZSgzOS4zOTksLTIwLjUxMTUpIj4mI3hhOwkJCQkJPHRpdGxlIGlkPSJ0aXRsZTEwMTIyNSI+Zzg2MjwvdGl0bGU+JiN4YTsJCQkJCTxnIGlkPSJzaGFwZTM5NDMtNSIgdHJhbnNmb3JtPSJ0cmFuc2xhdGUoOS43MDgzNywtNS44MDEwNykiPiYjeGE7CQkJCQkJPHRpdGxlIGlkPSJ0aXRsZTEwMTIyNyI+cGF0aDI8L3RpdGxlPiYjeGE7CQkJCQkJPHBhdGggaWQ9InBhdGgxMDEyMjkiIGlua3NjYXBlOmNvbm5lY3Rvci1jdXJ2YXR1cmU9IjAiIHN0eWxlPSJmaWxsOiM1OTk2MzY7IiBkPSJNMC4xNCwyNy45NmMwLjM0LDAuNjIsMC43OSwxLjYsMS4xOCwyLjIgICAgICAgIGMwLjI2LDAuNDEsMC41NSwwLjc3LDAuODksMS4xYzAuOTgsMC45OSwxLjkxLDIuMDIsMi43NSwzLjEyYzEuOTksMi42MSwzLjMzLDUuNTEsNC4yOSw4LjY1YzAuNTgsMS45MiwwLjg5LDMuODksMC45MSw1Ljg4ICAgICAgICBjMC4xLDUuOTQtMS45NCwxMS4wNS02LjA2LDE1LjI5Yy0wLjY3LDAuNjctMS4zOSwxLjI5LTIuMTYsMS44NWMtMC40MSwwLTAuNi0wLjMyLTAuNzctMC42Yy0wLjMxLTAuNTMtMC41LTEuMTMtMC41OS0xLjczICAgICAgICBjLTAuMTUtMC43Mi0wLjI0LTEuNDQtMC4yLTIuMThjMC0wLjEyLDAtMC4yMiwwLTAuMzRDMC4zNiw2MS4xMywwLDI4LjEyLDAuMTQsMjcuOTZ6Ii8+JiN4YTsJCQkJCTwvZz4mI3hhOwkJCQkJPGcgaWQ9InNoYXBlMzk0NC03IiB0cmFuc2Zvcm09InRyYW5zbGF0ZSgwLC01LjM5MzU3KSI+JiN4YTsJCQkJCQk8dGl0bGUgaWQ9InRpdGxlMTAxMjMyIj5wYXRoODwvdGl0bGU+JiN4YTsJCQkJCQk8cGF0aCBpZD0icGF0aDEwMTIzNCIgaW5rc2NhcGU6Y29ubmVjdG9yLWN1cnZhdHVyZT0iMCIgc3R5bGU9ImZpbGw6IzZDQUM0ODsiIGQ9Ik05Ljg1LDI3LjQ4Yy0wLjA1LTAuMS0wLjA5LTAuMDMtMC4xNCwwLjAyICAgICAgICBjMC4wMiwwLjQ4LTAuMTUsMC45MS0wLjQxLDEuMzJjLTAuMjksMC40MS0wLjY3LDAuNzItMS4wNSwxLjA1Yy0yLjE0LDEuODUtMy44Miw0LjA4LTUuMTYsNi41NyAgICAgICAgYy0xLjc3LDMuMzYtMi43MSw2Ljk1LTIuOTcsMTAuNzRDMCw0OC41NSwwLjU1LDUzLjM2LDAuOTgsNTQuNzZjMS4xOCwzLjY5LDMuMjksNi43OCw2LjAyLDkuNDYgICAgICAgIGMwLjY3LDAuNjUsMS4zOSwxLjI1LDIuMTMsMS44M2MwLjIyLDAsMC4yNC0wLjIsMC4yOS0wLjM0YzAuMS0wLjMxLDAuMTctMC42MiwwLjIyLTAuOTNjMC4yMS0xLjIsMC4zMy0yLjQsMC40OC0zLjYgICAgICAgIEMxMC4xMiw2MS4wNCw5LjkyLDI3LjYsOS44NSwyNy40OHoiLz4mI3hhOwkJCQkJPC9nPiYjeGE7CQkJCQk8ZyBpZD0ic2hhcGUzOTQ1LTkiIHRyYW5zZm9ybT0idHJhbnNsYXRlKDkuMTMzMDcpIj4mI3hhOwkJCQkJCTx0aXRsZSBpZD0idGl0bGUxMDEyMzciPnBhdGgxMDwvdGl0bGU+JiN4YTsJCQkJCQk8cGF0aCBpZD0icGF0aDEwMTIzOSIgaW5rc2NhcGU6Y29ubmVjdG9yLWN1cnZhdHVyZT0iMCIgc3R5bGU9ImZpbGw6I0MyQkZCRjsiIGQ9Ik0xLjg5LDYxLjcxYzAuMDUtMC41NSwwLjMyLTEuMDEsMC42LTEuNDcgICAgICAgIGMtMC4yOC0wLjEyLTAuNS0wLjM2LTAuNjctMC42MmMtMC4xNC0wLjI0LTAuMjYtMC41My0wLjM2LTAuNzljLTAuMzMtMS4wMS0wLjQxLTIuMDYtMC41LTMuMDlsMCwwYzAtMC4xLDAtMC4yMiwwLTAuMzFsMCwwICAgICAgICBjMC0wLjEsMC0wLjIyLDAtMC4zMmMtMC4xMiwwLjEtMC4xNCwwLjkyLTAuMTQsMS4wNGMtMC4wOCwxLjEtMC4yMiwyLjE4LTAuNDQsMy4yM0MwLjMxLDU5LjgxLDAuMjYsNjAuMjQsMCw2MC42MyAgICAgICAgYzAsMC4wNSwwLDAuMDksMC4wMiwwLjE3YzAuNDQsMS4yNywwLjU2LDIuNTYsMC42MywzLjg4YzAsMC4xNywwLDAuMzEsMCwwLjQ4YzAsMC41Ny0wLjAzLDAuNDUsMC40NSwwLjY1ICAgICAgICBjMC4xOSwwLjA3LDAuNDEsMC4wOSwwLjYsMC4yNGMwLjE1LDAsMC4xNy0wLjEyLDAuMTctMC4yMkMxLjg1LDY1LjU3LDEuOCw2NS4zLDEuOCw2NS4wNGMwLTAuNzQtMC4wMy0xLjQ2LDAtMi4yMSAgICAgICAgQzEuNzcsNjIuNDUsMS44NSw2Mi4wNywxLjg5LDYxLjcxeiIvPiYjeGE7CQkJCQk8L2c+JiN4YTsJCQkJPC9nPiYjeGE7CQkJCTxnIGlkPSJncm91cDM5NDYtMTEiPiYjeGE7CQkJCQk8dGl0bGUgaWQ9InRpdGxlMTAxMjQzIj5nODgwPC90aXRsZT4mI3hhOwkJCQkJPGcgaWQ9InNoYXBlMzk0Ny0xMiIgdHJhbnNmb3JtPSJ0cmFuc2xhdGUoMCwtNi4xMTU1NikiPiYjeGE7CQkJCQkJPHRpdGxlIGlkPSJ0aXRsZTEwMTI0NSI+cGF0aDQ8L3RpdGxlPiYjeGE7CQkJCQkJPHBhdGggaWQ9InBhdGgxMDEyNDciIGlua3NjYXBlOmNvbm5lY3Rvci1jdXJ2YXR1cmU9IjAiIHN0eWxlPSJmaWxsOiM0NzQ3NEE7IiBkPSJNMy44NSw2MS40N2MwLDAuODgsMCwxLjc2LDAsMi42MiAgICAgICAgYzAsMC4xMSwwLDAuMjEsMC4wMiwwLjMxYzAuMDMsMC4zMiwwLjIyLDAuNTEsMC41MiwwLjU5YzAuMjYsMC4wNywwLjUzLDAuMTIsMC43OSwwLjE2YzAuMTYsMC4wMSwwLjIxLDAuMDgsMC4yMywwLjI0ICAgICAgICBjMC4wMSwwLjU5LTAuMDQsMC42Ni0wLjYxLDAuNjJjLTEuMzMtMC4wNy0yLjY2LTAuMDktMy45OSwwYy0wLjA1LDAtMC4xLDAtMC4xNCwwYy0wLjQxLDAuMDItMC40NS0wLjAyLTAuNDUtMC40MyAgICAgICAgYzAtMC4wNywwLjAyLTAuMTYsMC4wMi0wLjIzYzAtMC4xMywwLjA5LTAuMTksMC4yMS0wLjE5YzAuMjgtMC4wMywwLjUzLTAuMSwwLjc5LTAuMTVjMC4zNy0wLjA5LDAuNTctMC4zMSwwLjYxLTAuNjcgICAgICAgIGMwLjA1LTAuNCwwLjA1LTAuODIsMC4wNS0xLjIxYzAuMDUtMS41NCwwLjAzLTMuMSwwLjAyLTQuNjNjMC0wLjMtMC4xMi0wLjUyLTAuMzgtMC42NmMtMC4zMS0wLjE3LTAuNjQtMC4zMS0wLjk5LTAuNDIgICAgICAgIGMtMC4xLTAuMDMtMC4yLTAuMDUtMC4yOS0wLjFDMC4wMiw1Ny4yLDAsNTYuOTgsMC4yNCw1Ni44NGMwLjA5LTAuMDUsMC4xOS0wLjA5LDAuMy0wLjExYzEuMDUtMC4xNSwyLjA3LTAuNDEsMy4wNy0wLjc3ICAgICAgICBjMC4yMS0wLjA3LDAuMjYtMC4wNiwwLjI4LDAuMTVjMC4wMSwwLjE0LDAsMC4yOC0wLjAyLDAuNGMtMC4wMywwLjIyLTAuMDMsMC40NS0wLjAzLDAuNjZjMCwwLjA4LDAuMDEsMC4xNywwLjEsMC4yMiAgICAgICAgYzAuMDksMC4wNSwwLjE3LDAsMC4yNC0wLjA1YzAuMzYtMC4yOCwwLjczLTAuNTQsMS4xMi0wLjc2YzAuNTctMC4zMSwxLjE4LTAuNTksMS44My0wLjY4YzAuOC0wLjEsMS40OSwwLjExLDIuMSwwLjYzICAgICAgICBjMC4yNSwwLjIyLDAuNDYsMC40OCwwLjY1LDAuNzZjMC4xNywwLjI0LDAuMTksMC4yNiwwLjQyLDAuMDhjMC42NS0wLjQ4LDEuMzQtMC45MSwyLjA5LTEuMjJjMC43Ny0wLjMzLDEuNTctMC4zOCwyLjM2LTAuMTEgICAgICAgIGMwLjgyLDAuMywxLjM3LDAuODcsMS43LDEuNjRjMC4yNywwLjYzLDAuMzksMS4yOCwwLjM5LDEuOTRjMCwxLjAyLDAsMi4wNCwwLDMuMDdjMCwwLjUyLDAsMS4wNCwwLDEuNTYgICAgICAgIGMwLDAuMzEsMC4xNCwwLjUyLDAuNDQsMC42NmMwLjMyLDAuMTMsMC42OSwwLjE5LDEuMDMsMC4yNWMwLjIzLDAuMDYsMC4yMywwLjA2LDAuMjMsMC4yOGMtMC4wNCwwLjU3LTAuMDksMC42MS0wLjY0LDAuNTcgICAgICAgIGMtMS4zOC0wLjA5LTIuNzgtMC4wNy00LjE3LDBjLTAuMjcsMC4wMi0wLjI3LDAuMDItMC4yOS0wLjI2YzAtMC4wMywwLTAuMDUsMC0wLjA4Yy0wLjAyLTAuNDctMC4wMi0wLjQ3LDAuNDMtMC41NyAgICAgICAgYzAuMTYtMC4wNCwwLjMtMC4wNywwLjQ1LTAuMTNjMC4zNS0wLjEsMC41Mi0wLjMyLDAuNTQtMC42N2MwLjAxLTAuNDMsMC4wMy0wLjg2LDAuMDUtMS4yOWMwLTEuMTMsMC4wMy0yLjI3LTAuMDQtMy4zOSAgICAgICAgYy0wLjAxLTAuMjktMC4wNi0wLjU5LTAuMTktMC44OGMtMC40My0xLjA2LTEuMzgtMS40NC0yLjI5LTEuMzNjLTAuNjksMC4wNy0xLjMsMC4zNC0xLjg3LDAuNzQgICAgICAgIGMtMC4xMiwwLjA5LTAuMjEsMC4xOS0wLjE5LDAuMzZjMC4xNiwxLjExLDAuMDUsMi4yMSwwLjA3LDMuMzJjMC4wMiwwLjc5LDAsMS42MSwwLDIuNGMwLDAuNDMsMC4xNywwLjY0LDAuNTksMC43NCAgICAgICAgYzAuMjYsMC4wNywwLjUyLDAuMTMsMC43OSwwLjE4YzAuMTIsMC4wMSwwLjE5LDAuMDcsMC4xOSwwLjJjMCwwLjA2LDAsMC4xMSwwLDAuMTRjLTAuMDIsMC40OS0wLjA1LDAuNTItMC41MywwLjUgICAgICAgIGMtMS4zOS0wLjA3LTIuNzctMC4wNS00LjEzLDBjLTAuNDcsMC4wMi0wLjUyLTAuMDMtMC40OS0wLjUxYzAuMDItMC4yOCwwLjA2LTAuMywwLjMxLTAuMzVjMC4xOS0wLjAzLDAuMzgtMC4wNywwLjU3LTAuMSAgICAgICAgYzAuNTItMC4xMSwwLjctMC4zLDAuNzMtMC44M2MwLjAyLTAuMzgsMC4wNS0wLjc4LDAuMDUtMS4xNmMwLjAyLTEuMTYsMC4wNS0yLjMyLTAuMDMtMy40N2MtMC4wNC0wLjQzLTAuMTQtMC44NS0wLjM3LTEuMjUgICAgICAgIGMtMC4zNC0wLjY0LTAuODktMC45Ni0xLjYyLTFjLTAuNzQtMC4wNS0xLjQsMC4yMy0yLjAyLDAuNTdjLTAuNDMsMC4yNC0wLjYyLDAuNTUtMC41OSwxLjA2ICAgICAgICBDMy44Nyw1OS44MSwzLjg0LDYwLjY0LDMuODUsNjEuNDdDMy44NCw2MS40NywzLjg1LDYxLjQ3LDMuODUsNjEuNDdDMy44NSw2MS40NywzLjg1LDYxLjQ3LDMuODUsNjEuNDd6Ii8+JiN4YTsJCQkJCTwvZz4mI3hhOwkJCQkJPGcgaWQ9Imdyb3VwMzk0OC0xNCIgdHJhbnNmb3JtPSJ0cmFuc2xhdGUoMjAuMzY3OSkiPiYjeGE7CQkJCQkJPHRpdGxlIGlkPSJ0aXRsZTEwMTI1MCI+Zzg3MDwvdGl0bGU+JiN4YTsJCQkJCQk8ZyBpZD0ic2hhcGUzOTQ5LTE1IiB0cmFuc2Zvcm09InRyYW5zbGF0ZSgxMS45NzIsLTUuOTYwMDYpIj4mI3hhOwkJCQkJCQk8dGl0bGUgaWQ9InRpdGxlMTAxMjUyIj5wYXRoNjwvdGl0bGU+JiN4YTsJCQkJCQkJPHBhdGggaWQ9InBhdGgxMDEyNTQiIGlua3NjYXBlOmNvbm5lY3Rvci1jdXJ2YXR1cmU9IjAiIHN0eWxlPSJmaWxsOiM0NzQ3NEE7IiBkPSJNNC4wNiw2MS40MmMwLDAuODEsMCwxLjYyLDAsMi40MyAgICAgICAgIGMwLDAuMTcsMC4wMiwwLjM1LDAuMDMsMC41MmMwLjA0LDAuMjYsMC4xOCwwLjQxLDAuNDIsMC40OGMwLjI5LDAuMDksMC42LDAuMTQsMC45MSwwLjE2YzAuMTgsMC4wMiwwLjIxLDAuMDksMC4yMywwLjIyICAgICAgICAgYzAsMC4wNCwwLDAuMDcsMCwwLjEyYy0wLjAyLDAuNjEtMC4wOSwwLjY4LTAuNjcsMC42NGMtMS4zMi0wLjA4LTIuNjMtMC4wNy0zLjk0LDBjLTAuMTgsMC0wLjM1LDAuMDItMC41MiwwLjAyICAgICAgICAgYy0wLjExLDAtMC4xNC0wLjA1LTAuMTYtMC4xMmMtMC4wNS0wLjI0LTAuMDUtMC40OCwwLTAuNzNjMC4wMi0wLjEsMC4wOS0wLjEzLDAuMTktMC4xNWMwLjI0LTAuMDQsMC40Ny0wLjA5LDAuNzEtMC4xNCAgICAgICAgIGMwLjQzLTAuMSwwLjU5LTAuMjgsMC42MS0wLjcyYzAuMDMtMC40OSwwLjA1LTAuOTcsMC4wNS0xLjQ2YzAtMS40MSwwLTIuODMsMC00LjI1YzAtMC4zMS0wLjEyLTAuNS0wLjQtMC42NCAgICAgICAgIGMtMC4zMS0wLjE3LTAuNjQtMC4yOS0wLjk4LTAuNDFjLTAuMTEtMC4wMy0wLjIxLTAuMDctMC4zLTAuMTJDMC4wMiw1Ny4xMSwwLDU2Ljg5LDAuMjEsNTYuNzJjMC4xLTAuMDksMC4yLTAuMTIsMC4zNC0wLjE0ICAgICAgICAgYzEuMTEtMC4xNywyLjE4LTAuNDIsMy4yMi0wLjgzYzAuMTItMC4wNSwwLjE3LTAuMDIsMC4yMiwwLjA5YzAuMDUsMC4xLDAuMDcsMC4yMiwwLjA1LDAuMzRjLTAuMDEsMC4yOC0wLjAzLDAuNTQtMC4wNSwwLjgxICAgICAgICAgYzAsMC4xMS0wLjA1LDAuMjQsMC4wNCwwLjNjMC4xLDAuMDcsMC4xNy0wLjA5LDAuMjUtMC4xNGMwLjUyLTAuNDIsMS4wOC0wLjgsMS42OC0xLjA3YzAuNTQtMC4yNCwxLjA5LTAuNDIsMS43MS0wLjM4ICAgICAgICAgYzEuMTYsMC4wNywxLjk5LDAuNjUsMi41MiwxLjY3YzAuMjgsMC41NCwwLjQsMS4xMywwLjQ1LDEuNzNjMC4wNCwwLjQyLDAuMDUsMC44NSwwLjA1LDEuMjhjMCwxLjE5LDAuMDIsMi4zNywwLjAyLDMuNTYgICAgICAgICBjMCwwLjA4LDAsMC4xNywwLDAuMjZjMC4wMiwwLjI5LDAuMTIsMC40OCwwLjQyLDAuNThjMC4zMSwwLjExLDAuNiwwLjE4LDAuOTMsMC4yM2MwLjI3LDAuMDMsMC4yOSwwLjA5LDAuMzEsMC4zNCAgICAgICAgIGMwLDAuMDQsMCwwLjA2LDAsMC4wOWMtMC4wNCwwLjU5LTAuMDcsMC42MS0wLjY2LDAuNTdjLTEuMjktMC4wNy0yLjU5LTAuMDctMy44NywwYy0wLjE3LDAuMDItMC4zNCwwLTAuNTIsMC4wMiAgICAgICAgIGMtMC4xLDAtMC4xNy0wLjAyLTAuMTktMC4xMmMtMC4wMy0wLjIzLTAuMDYtMC40NS0wLjAxLTAuNjljMC4wMS0wLjExLDAuMDctMC4xNiwwLjE5LTAuMThjMC4yNi0wLjAzLDAuNTMtMC4wNywwLjc5LTAuMTMgICAgICAgICBjMC4yOC0wLjA3LDAuNDMtMC4yNSwwLjQ3LTAuNTJjMC4wMi0wLjE2LDAuMDMtMC4zMywwLjAzLTAuNDljMC0xLjIxLDAtMi40Mi0wLjAxLTMuNjFjMC0wLjQxLTAuMDItMC44My0wLjExLTEuMjQgICAgICAgICBjLTAuMi0wLjktMC44OC0xLjUtMS43OS0xLjYxYy0wLjgtMC4wOC0xLjUxLDAuMTItMi4xOCwwLjU2Yy0wLjMzLDAuMi0wLjQ3LDAuNS0wLjQ3LDAuODZjMCwwLjYsMCwxLjIxLDAsMS44MyAgICAgICAgIGMwLDAuMjYsMCwwLjUyLDAsMC43OEM0LjA0LDYxLjQyLDQuMDQsNjEuNDIsNC4wNiw2MS40MkM0LjA2LDYxLjQyLDQuMDYsNjEuNDIsNC4wNiw2MS40MnoiLz4mI3hhOwkJCQkJCTwvZz4mI3hhOwkJCQkJCTxnIGlkPSJzaGFwZTM5NTAtMTciIHRyYW5zZm9ybT0idHJhbnNsYXRlKDUwLjgwNzYsLTYuMTE1NTIpIj4mI3hhOwkJCQkJCQk8dGl0bGUgaWQ9InRpdGxlMTAxMjU3Ij5wYXRoMTI8L3RpdGxlPiYjeGE7CQkJCQkJCTxwYXRoIGlkPSJwYXRoMTAxMjU5IiBpbmtzY2FwZTpjb25uZWN0b3ItY3VydmF0dXJlPSIwIiBzdHlsZT0iZmlsbDojQzJCRkJGOyIgZD0iTTE1LjgyLDU2LjY4ICAgICAgICAgYy0wLjE5LTEuMjYtMC42NS0yLjM4LTEuNDYtMy4zN2MtMC43My0wLjg4LTEuNjEtMS41My0yLjY2LTEuOTdjLTEuMDktMC40NS0yLjI1LTAuNTgtMy40Mi0wLjYyICAgICAgICAgYy0wLjQ5LTAuMDItNy4wOSwwLjA5LTcuNTcsMGMtMC4xMi0wLjAyLTAuMjEsMC4wMi0wLjI4LDAuMTJjLTAuMDgsMC4xNC0wLjE3LDAuMjYtMC4yMiwwLjRDMCw1MS43MSwwLDUxLjY3LDAuNSw1MS43NCAgICAgICAgIGMwLjQyLDAuMDcsMC44MSwwLjEsMS4yMSwwLjIzYzAuMzYsMC4xMiwwLjYyLDAuMzIsMC43MSwwLjcyYzAuMDMsMC4xOSwwLjA3LDYuMjcsMC4wNyw5LjExYzAsMC42Ny0wLjAyLDEuMzQtMC4wNywyLjAyICAgICAgICAgYy0wLjAyLDAuMTUtMC4wNCwwLjMxLTAuMDksMC40NWMtMC4wNywwLjItMC4xOSwwLjM4LTAuNCwwLjQ2Yy0wLjIyLDAuMTEtMC40NiwwLjE4LTAuNzIsMC4xOSAgICAgICAgIGMtMC40NywwLjA1LTAuNTQsMC4wNy0wLjY5LDAuNTljLTAuMDIsMC4wNy0wLjA0LDAuMTQtMC4wNSwwLjE5Yy0wLjA0LDAuMjItMC4wMiwwLjI2LDAuMiwwLjI2ICAgICAgICAgYzEuMDQsMC4wMiw0LjMxLDAuMDUsNS4xNywwLjA1YzAuNDgtMC4wMiwxLjI2LDAuMDQsMi4wMi0wLjAzYzAuNDctMC4wNiwwLjkzLTAuMDksMS40LTAuMThjMS41OS0wLjI5LDMuMDEtMC45NSw0LjIyLTIgICAgICAgICBjMC43LTAuNjIsMS4yNC0xLjM1LDEuNjUtMi4xOGMwLjQ5LTAuOTYsMC42OS0yLjAyLDAuNzUtMy4wOUMxNS45Niw1Ny45MywxNS45Myw1Ny4zLDE1LjgyLDU2LjY4TDE1LjgyLDU2LjY4eiBNMTMuMzIsNTkuMTQgICAgICAgICBjLTAuMDcsMS4xLTAuMjksMi4xNy0wLjg2LDMuMTRjLTAuNzMsMS4yNi0xLjc3LDIuMTQtMy4yLDIuNDVjLTAuNjIsMC4xNC0xLjI0LDAuMTktMS44OCwwLjExICAgICAgICAgYy0wLjQ3LTAuMDYtMC45Mi0wLjExLTEuMzUtMC4yNmMtMC43OC0wLjI4LTEuMDUtMC43Ni0xLjA3LTEuNTFjLTAuMDQtMS4wOCwwLTguNy0wLjAyLTEwLjQxYzAtMC42MywwLjI4LTAuNzYsMC43My0wLjc4ICAgICAgICAgYzAuNjctMC4wNSwxLjM2LTAuMDQsMi4wMywwLjAzYzAuNzMsMC4wNywxLjQyLDAuMjUsMi4xLDAuNTJjMC41LDAuMjEsMC45NiwwLjUsMS4zNiwwLjg1YzAuOTMsMC43OSwxLjU1LDEuOCwxLjg4LDIuOTcgICAgICAgICBDMTMuMzIsNTcuMiwxMy4zNyw1OC4xNywxMy4zMiw1OS4xNHoiLz4mI3hhOwkJCQkJCTwvZz4mI3hhOwkJCQkJCTxnIGlkPSJzaGFwZTM5NTEtMTkiIHRyYW5zZm9ybT0idHJhbnNsYXRlKDY3Ljg5MzIsLTYuMDExOSkiPiYjeGE7CQkJCQkJCTx0aXRsZSBpZD0idGl0bGUxMDEyNjIiPnBhdGgxNDwvdGl0bGU+JiN4YTsJCQkJCQkJPHBhdGggaWQ9InBhdGgxMDEyNjQiIGlua3NjYXBlOmNvbm5lY3Rvci1jdXJ2YXR1cmU9IjAiIHN0eWxlPSJmaWxsOiNDMkJGQkY7IiBkPSJNMTMuMDksNjAuNzJjMC0wLjEsMC0wLjE5LTAuMDEtMC4yOSAgICAgICAgIGMtMC4xNi0wLjk1LTAuNjYtMS42Ny0xLjQ0LTIuMjNjLTAuNS0wLjM2LTEuMDctMC42LTEuNjUtMC43OGMtMC4xMS0wLjAzLTAuMTktMC4wNi0wLjMtMC4wOGMwLjAyLTAuMDksMC4wNy0wLjExLDAuMTItMC4xMiAgICAgICAgIGMwLjM1LTAuMTgsMC42OC0wLjM3LDAuOTctMC42MmMwLjU0LTAuNDUsMC45LTEuMDEsMS4wNy0xLjY4YzAuMS0wLjM2LDAuMS0wLjczLDAuMDctMS4xMWMtMC4wOS0wLjk1LTAuNS0xLjY5LTEuMjYtMi4yNCAgICAgICAgIGMtMC44LTAuNTktMS43My0wLjgzLTIuNy0wLjg1Yy0xLjg2LTAuMDMtMy43NCwwLTUuNjEsMGMtMC41NCwwLTEuMDcsMC4wNC0xLjYyLTAuMDVjLTAuMTEtMC4wMi0wLjI1LTAuMDUtMC4zMywwLjA3ICAgICAgICAgYy0wLjE0LDAuMjItMC4yOCwwLjQ1LTAuMzMsMC43MWMtMC4wMiwwLjEyLDAuMDIsMC4xOSwwLjE1LDAuMmMwLjQsMC4wNiwwLjgsMC4xMywxLjIsMC4xOGMwLjQ2LDAuMDcsMC43OSwwLjMzLDAuODMsMC43NCAgICAgICAgIGMwLjAzLDAuMjksMC4wNSwwLjU3LDAuMDUsMC44NmMwLDEuMDgtMC4wMiwyLjE2LTAuMDQsMy4yM2MtMC4wMywyLjEzLTAuMDEsNC4yNy0wLjAxLDYuNGMwLDAuMzgtMC4wNiwwLjc0LTAuMTMsMS4xMiAgICAgICAgIGMtMC4wNSwwLjI2LTAuMTksMC40My0wLjQ0LDAuNTJDMS4zMyw2NC44LDEsNjQuOTEsMC42NCw2NC45MWMtMC4yMywwLTAuMzYsMC4wOC0wLjQ1LDAuMjljLTAuMDcsMC4xNS0wLjE0LDAuMzMtMC4xNiwwLjQ4ICAgICAgICAgQzAsNjUuODksMC4wNSw2NS45NiwwLjI2LDY1LjkyYzAuMTUtMC4wMSw1Ljg2LDAuMTMsNi45MywwLjAyYzAuNjQtMC4wNywxLjI4LTAuMTUsMS45LTAuMzRjMS4wOS0wLjM1LDIuMDktMC44NSwyLjg4LTEuNyAgICAgICAgIGMwLjY2LTAuNjksMS4wNC0xLjUyLDEuMDctMi40OEMxMy4wOSw2MS4xOSwxMy4wOSw2MC45NywxMy4wOSw2MC43MnogTTQuNzIsNTMuNjZjMC4wMy0wLjQ3LDAuMDMtMC45MiwwLjA1LTEuMzggICAgICAgICBjMC0wLjI2LDAuMS0wLjM4LDAuMzYtMC40NGMwLjQyLTAuMDgsMC44My0wLjA1LDEuMjQtMC4wM2MwLjQyLDAuMDMsMC44MiwwLjA5LDEuMjMsMC4yMWMwLjc2LDAuMjIsMS4zNSwwLjY1LDEuNjksMS4zOCAgICAgICAgIGMwLjE2LDAuMzMsMC4yNSwwLjY5LDAuMjUsMS4wNWMwLjAxLDAuNDktMC4wMiwwLjk1LTAuMjEsMS40MmMtMC4yOSwwLjY0LTAuNzYsMS4wNS0xLjQ0LDEuMTcgICAgICAgICBjLTAuNjcsMC4xMy0yLjU5LDAuMDctMi44OCwwLjA3Yy0wLjI2LDAtMC4yOC0wLjAzLTAuMjgtMC4yOWMwLTAuNTUsMC0xLjExLDAtMS42NGwwLDBDNC43LDU0LjcsNC42OCw1NC4xOCw0LjcyLDUzLjY2eiAgICAgICAgICBNMTAuMzMsNjIuOTVjLTAuMjksMC43OC0wLjgzLDEuMzItMS41OSwxLjYxYy0wLjQxLDAuMTYtMC44MywwLjI0LTEuMjgsMC4yMmMtMC41My0wLjAxLTEuMDcsMC0xLjYtMC4xICAgICAgICAgYy0wLjczLTAuMTUtMS4wNi0wLjg1LTEuMTEtMS4zNWMtMC4wOS0wLjg4LTAuMDMtMS43OC0wLjA1LTIuNDNjMC0wLjkyLDAtMS41OSwwLTIuMjhjMC0wLjI4LDAuMDMtMC4zNywwLjMzLTAuMzcgICAgICAgICBjMC41My0wLjAxLDEuMDctMC4wMywxLjYyLDAuMDJjMC4zOCwwLjA0LDAuNzQsMC4wNywxLjExLDAuMTRjMC43NywwLjE3LDEuNDgsMC40NywyLjA0LDEuMDdjMC40NCwwLjQ4LDAuNjksMS4wNywwLjc0LDEuNzEgICAgICAgICBDMTAuNTksNjEuOCwxMC41Niw2Mi4zOCwxMC4zMyw2Mi45NUMxMC4zMyw2Mi45NSwxMC4zMyw2Mi45NSwxMC4zMyw2Mi45NXoiLz4mI3hhOwkJCQkJCTwvZz4mI3hhOwkJCQkJCTxnIGlkPSJzaGFwZTM5NTItMjEiIHRyYW5zZm9ybT0idHJhbnNsYXRlKDI1LjU4NTIpIj4mI3hhOwkJCQkJCQk8dGl0bGUgaWQ9InRpdGxlMTAxMjY3Ij5wYXRoMTY8L3RpdGxlPiYjeGE7CQkJCQkJCTxwYXRoIGlkPSJwYXRoMTAxMjY5IiBpbmtzY2FwZTpjb25uZWN0b3ItY3VydmF0dXJlPSIwIiBzdHlsZT0iZmlsbDojNDc0NzRBOyIgZD0iTTguNzQsNTEuNzJjMC4xNiwwLjAyLDAuMzEsMC4wNiwwLjQ1LDAuMDcgICAgICAgICBjMC40OCwwLjAyLDEuMDUtMC4xNSwxLjIzLTAuODNjMC4wOC0wLjMyLDAuMS0wLjY0LDAtMC45OGMtMC4xMSwwLTAuMTYsMC4wOS0wLjIxLDAuMTJjLTAuMjYsMC4yMS0wLjU1LDAuMzMtMC44NiwwLjM2ICAgICAgICAgQzguNzIsNTAuNTMsOC4xLDUwLjUsNy41LDUwLjI3Yy0wLjI4LTAuMS0wLjU2LTAuMi0wLjg1LTAuMjljLTAuNTktMC4xOS0xLjIxLTAuMjgtMS44My0wLjI0ICAgICAgICAgYy0wLjg4LDAuMDctMS43MSwwLjM2LTIuNDksMC43N2MtMC44MywwLjQ1LTEuNDEsMS4xMy0xLjY5LDIuMDRjLTAuMTYsMC41NC0wLjE3LDEuMDktMC4xLDEuNjRjMC4xNywxLjI3LDAuODIsMi4xNSwyLDIuNjEgICAgICAgICBjMC4wNywwLjAyLDAuMTIsMC4wNSwwLjE5LDAuMDdjMC4xNiwwLjA5LDAuMTcsMC4xNywwLjAzLDAuM2MtMC4xMywwLjEtMC4yNywwLjItMC40MywwLjI5Yy0wLjM0LDAuMjEtMC42OSwwLjQxLTEuMDMsMC42NCAgICAgICAgIGMtMC4yNiwwLjE1LTAuMywwLjI4LTAuMjEsMC41NWMwLjEsMC4zMywwLjI5LDAuNjEsMC41NSwwLjgzYzAuMjQsMC4yMSwwLjUsMC4zNiwwLjgsMC40OGMwLjE5LDAuMDksMC4xOSwwLjE0LDAuMDEsMC4yOCAgICAgICAgIGMtMC4zMywwLjI0LTAuNjUsMC40Ny0wLjk4LDAuNzFjLTAuMzMsMC4yNC0wLjY2LDAuNTItMC45MywwLjgzYy0wLjQsMC40NS0wLjU0LDAuOTctMC40MiwxLjU1ICAgICAgICAgYzAuMTQsMC42MywwLjQzLDEuMTMsMC45LDEuNTZDMS40Nyw2NS4zLDIsNjUuNiwyLjYxLDY1Ljc1YzAuOTcsMC4yOCwxLjk3LDAuMywyLjk1LDAuMTFjMS40Mi0wLjI2LDIuNjUtMC45LDMuNjMtMS45NiAgICAgICAgIGMwLjY3LTAuNywxLjA3LTEuNTMsMS4xMS0yLjU0YzAuMDUtMS4yMS0wLjY5LTIuMjItMS44Ny0yLjUyYy0wLjMxLTAuMDctMC42Mi0wLjEyLTAuOTMtMC4xN2MtMC45NS0wLjEyLTEuOS0wLjE3LTIuODUtMC4yNCAgICAgICAgIGMtMC4zMS0wLjAyLTAuNjItMC4wNy0wLjg4LTAuMjNjLTAuMzMtMC4yLTAuNDItMC42LTAuMjEtMC44NmMwLjE1LTAuMTksMC4zNC0wLjMxLDAuNTktMC4zM2MwLjE5LTAuMDIsMC4zNi0wLjAzLDAuNTUtMC4wNSAgICAgICAgIGMxLjEyLTAuMTIsMi4wOS0wLjU3LDIuOTItMS4zM2MwLjQzLTAuNCwwLjcyLTAuOSwwLjg4LTEuNDdjMC4yMS0wLjc0LDAuMjEtMS41LDAuMDMtMi4yNkM4LjQ4LDUxLjcxLDguNSw1MS42OSw4Ljc0LDUxLjcyeiAgICAgICAgICBNNC41MSw2MC4zM2MwLjEsMC4wMSwwLjIxLDAsMC4zMSwwQzUuNTUsNjAuMzYsNi4yOSw2MC40MSw3LDYwLjZjMC4yNCwwLjA3LDAuNDUsMC4xNiwwLjY3LDAuMjYgICAgICAgICBjMC42OSwwLjM4LDAuOTUsMS4wNCwwLjg2LDEuNzVDOC40Myw2My4zOSw4LDYzLjk0LDcuMzIsNjQuM2MtMC40NCwwLjI0LTAuOTUsMC4zNi0xLjQ2LDAuNDJjLTAuMTksMC4wMS0wLjM3LDAtMC41NiwwICAgICAgICAgYy0wLjYsMC4wMS0xLjE5LTAuMDYtMS43Ni0wLjNjLTAuNC0wLjE1LTAuNzItMC4zOC0xLjAyLTAuNjljLTAuNi0wLjYtMC45LTEuNzEsMC4wMi0yLjYxQzMuMDksNjAuNiwzLjcxLDYwLjI2LDQuNTEsNjAuMzN6ICAgICAgICAgIE02LjQ4LDU0Ljk0Yy0wLjM2LDAuOTEtMS4xNiwxLjE5LTEuOTUsMS4wN2MtMC43My0wLjExLTEuMjYtMC41LTEuNjEtMS4xNmMtMC40NS0wLjg4LTAuNTctMS44LTAuMzEtMi43NSAgICAgICAgIGMwLjE5LTAuNywwLjYyLTEuMjQsMS4zOC0xLjM2YzAuOTctMC4xNywxLjg4LDAuMTcsMi4zOCwxLjE0YzAuMjUsMC40NywwLjM3LDEuMDQsMC4zNywxLjg1ICAgICAgICAgQzYuNzIsNTQuMDYsNi42NSw1NC41MSw2LjQ4LDU0Ljk0eiIvPiYjeGE7CQkJCQkJPC9nPiYjeGE7CQkJCQkJPGcgaWQ9InNoYXBlMzk1My0yMyIgdHJhbnNmb3JtPSJ0cmFuc2xhdGUoMCwtNS43NTI3NykiPiYjeGE7CQkJCQkJCTx0aXRsZSBpZD0idGl0bGUxMDEyNzIiPnBhdGgxODwvdGl0bGU+JiN4YTsJCQkJCQkJPHBhdGggaWQ9InBhdGgxMDEyNzQiIGlua3NjYXBlOmNvbm5lY3Rvci1jdXJ2YXR1cmU9IjAiIHN0eWxlPSJmaWxsOiM0NzQ3NEE7IiBkPSJNMTAuMyw1OS41MmMtMC4xNi0wLjk0LTAuNS0xLjc4LTEuMTQtMi40OSAgICAgICAgIEM4LjIxLDU1Ljk3LDcsNTUuNTIsNS42Myw1NS41MWMtMS4xOS0wLjAyLTIuMzEsMC4zMy0zLjMyLDAuOTVjLTEsMC42Mi0xLjY5LDEuNS0yLjAyLDIuNjRjLTAuMjksMS0wLjI3LDIuMDItMC4wNSwzLjA0ICAgICAgICAgYzAuNjEsMi43MywyLjcxLDMuOTEsNS4yNCwzLjczYzAuNzQtMC4wNSwxLjQ1LTAuMjksMi4xMi0wLjYyYzEtMC40NywxLjczLTEuMjEsMi4yMy0yLjE5YzAuNC0wLjgyLDAuNTctMS42OCwwLjU1LTIuNjYgICAgICAgICBDMTAuMzcsNjAuMTUsMTAuMzUsNTkuODMsMTAuMyw1OS41MnogTTcuODQsNjMuMzVjLTAuMzEsMC44My0wLjksMS4zMy0xLjc4LDEuNDVjLTAuNzYsMC4xMS0xLjQ2LTAuMDgtMi4xLTAuNTMgICAgICAgICBjLTAuNDctMC4zNS0wLjgzLTAuNzgtMS4wOS0xLjNDMi4xNiw2MS41MiwyLjA0LDYwLDIuNCw1OC40NGMwLjEyLTAuNDgsMC4zNi0wLjkxLDAuNzMtMS4yNmMwLjY0LTAuNTgsMS4zOC0wLjcyLDIuMjEtMC41NSAgICAgICAgIGMwLjc5LDAuMTcsMS40LDAuNiwxLjg4LDEuMjZzMC43MywxLjQyLDAuODYsMi4yMWMwLjA3LDAuNCwwLjA3LDAuODEsMC4wOSwxLjA3QzguMTcsNjIsOC4xLDYyLjY4LDcuODQsNjMuMzV6Ii8+JiN4YTsJCQkJCQk8L2c+JiN4YTsJCQkJCQk8ZyBpZD0ic2hhcGUzOTU0LTI1IiB0cmFuc2Zvcm09InRyYW5zbGF0ZSgzNy42MjYzLC01LjczNTUpIj4mI3hhOwkJCQkJCQk8dGl0bGUgaWQ9InRpdGxlMTAxMjc3Ij5wYXRoMjA8L3RpdGxlPiYjeGE7CQkJCQkJCTxwYXRoIGlkPSJwYXRoMTAxMjc5IiBpbmtzY2FwZTpjb25uZWN0b3ItY3VydmF0dXJlPSIwIiBzdHlsZT0iZmlsbDojNDc0NzRBOyIgZD0iTTEwLjQyLDU5LjY0ICAgICAgICAgYy0wLjE0LTEuMDEtMC41LTEuOTItMS4yMS0yLjY4Yy0wLjkzLTEuMDItMi4xNC0xLjQ1LTMuNDktMS40N2MtMS4xNi0wLjAyLTIuMjMsMC4zMS0zLjIyLDAuODggICAgICAgICBjLTEuMSwwLjY2LTEuODYsMS41OS0yLjE1LDIuODVjLTAuMzUsMS40Mi0wLjIxLDIuOCwwLjQxLDQuMTFjMC41NywxLjIxLDEuNTQsMS45OSwyLjgyLDIuMzRjMS40MSwwLjM4LDIuNzYsMC4yLDQuMDctMC40NCAgICAgICAgIGMxLjE0LTAuNTUsMS45Ni0xLjQxLDIuNDItMi41OWMwLjI4LTAuNjksMC4zOC0xLjQzLDAuNC0yLjNDMTAuNDksNjAuMTksMTAuNDUsNTkuOTEsMTAuNDIsNTkuNjR6IE04LjAzLDYzLjExICAgICAgICAgYy0wLjI3LDAuOTMtMC44NiwxLjU0LTEuODUsMS42N2MtMC43MiwwLjExLTEuNDEtMC4wNi0yLjAzLTAuNDhjLTAuNTQtMC4zNi0wLjkyLTAuODUtMS4yLTEuNDIgICAgICAgICBjLTAuMzEtMC42LTAuNDgtMS4yNC0wLjU1LTEuOWMtMC4xLTAuODEtMC4xLTEuNiwwLjA5LTIuNDFjMC4wMy0wLjE2LDAuMDgtMC4zMiwwLjE1LTAuNDdjMC40OS0xLjIxLDEuNTYtMS43NiwyLjgyLTEuNDkgICAgICAgICBjMC44NSwwLjE5LDEuNDgsMC42NiwxLjk3LDEuMzdjMC40NiwwLjY5LDAuNjksMS40NSwwLjc5LDIuMjZjMC4wNiwwLjMzLDAuMDcsMC42NywwLjA2LDAuOTcgICAgICAgICBDOC4yOCw2MS44OCw4LjIyLDYyLjUsOC4wMyw2My4xMXoiLz4mI3hhOwkJCQkJCTwvZz4mI3hhOwkJCQkJPC9nPiYjeGE7CQkJCTwvZz4mI3hhOwkJCTwvZz4mI3hhOwkJPC9nPiYjeGE7CTwvZz4mI3hhOzwvZz4mI3hhOzwvc3ZnPg==;" vertex="1" parent="bqVkadd0tKrhda9ODERW-8">
          <mxGeometry x="20" y="35" width="71.02" height="45" as="geometry" />
        </mxCell>
        <mxCell id="bqVkadd0tKrhda9ODERW-12" value="" style="group;" vertex="1" connectable="0" parent="1">
          <mxGeometry x="383" y="50" width="437" height="250" as="geometry" />
        </mxCell>
        <mxCell id="bqVkadd0tKrhda9ODERW-13" value="DMZ" style="rounded=0;whiteSpace=wrap;html=1;fillColor=#f5f5f5;strokeColor=none;fontColor=#333333;verticalAlign=top;direction=south;" vertex="1" parent="bqVkadd0tKrhda9ODERW-12">
          <mxGeometry x="-11.72" y="-3.79" width="448.72" height="257.58" as="geometry" />
        </mxCell>
        <mxCell id="bqVkadd0tKrhda9ODERW-28" style="edgeStyle=orthogonalEdgeStyle;rounded=0;orthogonalLoop=1;jettySize=auto;html=1;strokeColor=#808080;" edge="1" parent="bqVkadd0tKrhda9ODERW-12" source="bqVkadd0tKrhda9ODERW-14" target="bqVkadd0tKrhda9ODERW-11">
          <mxGeometry relative="1" as="geometry" />
        </mxCell>
        <mxCell id="bqVkadd0tKrhda9ODERW-14" value="" style="shape=image;verticalLabelPosition=bottom;labelBackgroundColor=#ffffff;verticalAlign=top;aspect=fixed;imageAspect=0;image=data:image/svg+xml,PHN2ZyB4bWxuczpkYz0iaHR0cDovL3B1cmwub3JnL2RjL2VsZW1lbnRzLzEuMS8iIHhtbG5zOmNjPSJodHRwOi8vY3JlYXRpdmVjb21tb25zLm9yZy9ucyMiIHhtbG5zOnJkZj0iaHR0cDovL3d3dy53My5vcmcvMTk5OS8wMi8yMi1yZGYtc3ludGF4LW5zIyIgeG1sbnM6c3ZnPSJodHRwOi8vd3d3LnczLm9yZy8yMDAwL3N2ZyIgeG1sbnM9Imh0dHA6Ly93d3cudzMub3JnLzIwMDAvc3ZnIiB4bWxuczpzb2RpcG9kaT0iaHR0cDovL3NvZGlwb2RpLnNvdXJjZWZvcmdlLm5ldC9EVEQvc29kaXBvZGktMC5kdGQiIHhtbG5zOmlua3NjYXBlPSJodHRwOi8vd3d3Lmlua3NjYXBlLm9yZy9uYW1lc3BhY2VzL2lua3NjYXBlIiB2ZXJzaW9uPSIxLjEiIGlkPSJzdmc4NTkwMyIgaW5rc2NhcGU6dmVyc2lvbj0iMC45Mi4zICgyNDA1NTQ2LCAyMDE4LTAzLTExKSIgc29kaXBvZGk6ZG9jbmFtZT0icmVzdC5zdmciIHg9IjBweCIgeT0iMHB4IiB2aWV3Qm94PSIwIDAgMjkuNzIwMDAxIDI5LjcyMDAwMyIgeG1sOnNwYWNlPSJwcmVzZXJ2ZSIgd2lkdGg9IjI5LjcxOTk5OSIgaGVpZ2h0PSIyOS43MjAwMDEiPjxtZXRhZGF0YSBpZD0ibWV0YWRhdGE4ODIwIj48cmRmOlJERj48Y2M6V29yayByZGY6YWJvdXQ9IiI+PGRjOmZvcm1hdD5pbWFnZS9zdmcreG1sPC9kYzpmb3JtYXQ+PGRjOnR5cGUgcmRmOnJlc291cmNlPSJodHRwOi8vcHVybC5vcmcvZGMvZGNtaXR5cGUvU3RpbGxJbWFnZSIvPjxkYzp0aXRsZS8+PC9jYzpXb3JrPjwvcmRmOlJERj48L21ldGFkYXRhPjxkZWZzIGlkPSJkZWZzODgxOCI+JiN4YTsJJiN4YTsJJiN4YTsmI3hhOwkJJiN4YTsJCSYjeGE7CQkmI3hhOwkJJiN4YTsJJiN4YTsJCQkmI3hhOwkJCSYjeGE7CQkJJiN4YTsJCQkmI3hhOwkJCSYjeGE7CQkmI3hhOwkJCSYjeGE7CQkJJiN4YTsJCQkmI3hhOwkJJiN4YTsJCQkmI3hhOwkJCSYjeGE7CQkJJiN4YTsJCSYjeGE7CQkJCSYjeGE7CQkJJiN4YTsJCQkJJiN4YTsJCQkmI3hhOwkJCQkmI3hhOwkJCQkmI3hhOwkJCQkmI3hhOwkJCSYjeGE7CQkJCSYjeGE7CQkJCSYjeGE7CQkJCSYjeGE7CQkJJiN4YTsJCQkJJiN4YTsJCQkJJiN4YTsJCQkJJiN4YTsJCQkmI3hhOwkJCQkmI3hhOwkJCQkmI3hhOwkJCQkmI3hhOwkJCSYjeGE7CQkJCQkmI3hhOwkJCQkmI3hhOwkJCQkJJiN4YTsJCQkJJiN4YTsJCQkJCSYjeGE7CQkJCSYjeGE7CQkJCQkmI3hhOwkJCQkmI3hhOwkJCQkJJiN4YTsJCQkJJiN4YTsJCQkJCSYjeGE7CQkJCSYjeGE7CQkJCQkJJiN4YTsJCQkJCSYjeGE7CQkJCQkJJiN4YTsJCQkJCSYjeGE7CQkJCQkJJiN4YTsJCQkJCTwvZGVmcz4mI3hhOzxmaWx0ZXIgaWQ9ImZpbHRlcl8yIj4mI3hhOwk8ZmVHYXVzc2lhbkJsdXIgaWQ9ImZlR2F1c3NpYW5CbHVyODU4NDEiIHN0ZERldmlhdGlvbj0iMiIvPiYjeGE7PC9maWx0ZXI+JiN4YTs8c29kaXBvZGk6bmFtZWR2aWV3IGJvcmRlcmNvbG9yPSIjNjY2NjY2IiBib3JkZXJvcGFjaXR5PSIxIiBmaXQtbWFyZ2luLWJvdHRvbT0iMCIgZml0LW1hcmdpbi1sZWZ0PSIwIiBmaXQtbWFyZ2luLXJpZ2h0PSIwIiBmaXQtbWFyZ2luLXRvcD0iMCIgZ3JpZHRvbGVyYW5jZT0iMTAiIGd1aWRldG9sZXJhbmNlPSIxMCIgaWQ9Im5hbWVkdmlldzg1OTA1IiBpbmtzY2FwZTpjdXJyZW50LWxheWVyPSJzdmc4NTkwMyIgaW5rc2NhcGU6Y3g9IjEzLjk2NzQ5NCIgaW5rc2NhcGU6Y3k9IjguODczMTQ4IiBpbmtzY2FwZTpwYWdlb3BhY2l0eT0iMCIgaW5rc2NhcGU6cGFnZXNoYWRvdz0iMiIgaW5rc2NhcGU6d2luZG93LWhlaWdodD0iMTAxNyIgaW5rc2NhcGU6d2luZG93LW1heGltaXplZD0iMSIgaW5rc2NhcGU6d2luZG93LXdpZHRoPSIxOTIwIiBpbmtzY2FwZTp3aW5kb3cteD0iLTgiIGlua3NjYXBlOndpbmRvdy15PSItOCIgaW5rc2NhcGU6em9vbT0iMTMuNzQwOTg4IiBvYmplY3R0b2xlcmFuY2U9IjEwIiBwYWdlY29sb3I9IiNmZmZmZmYiIHNob3dncmlkPSJmYWxzZSI+JiN4YTsJPC9zb2RpcG9kaTpuYW1lZHZpZXc+JiN4YTs8Y2lyY2xlIHI9IjE0Ljg2IiBjeT0iMTQuODYiIGN4PSIxNC44NiIgc3R5bGU9ImZpbGw6IzEwN2MxMCIgaWQ9ImVsbGlwc2U4NTg1NCIvPjxwYXRoIGQ9Ik0gNC41NzAwMDAxLDQuMTYwMDAwOSBDIDEuNzUwMDAwMSw2Ljg3MDAwMDkgOS4wNjM3MjA5ZS04LDEwLjY2MDAwMSA5LjA2MzcyMDllLTgsMTQuODYwMDAxIGMgMCw4LjIxIDYuNjUwMDAwMDA5MzYyNzkxLDE0Ljg2IDE0Ljg1OTk5OTkwOTM2Mjc4OSwxNC44NiA0LjIsMCA3Ljk5LC0xLjc0IDEwLjcsLTQuNTcgeiIgc3R5bGU9ImZpbGw6IzAwNGIxYyIgaW5rc2NhcGU6Y29ubmVjdG9yLWN1cnZhdHVyZT0iMCIgaWQ9InBhdGg4NTg2MiIvPjxwYXRoIGlkPSJwYXRoODU4NzIiIGlua3NjYXBlOmNvbm5lY3Rvci1jdXJ2YXR1cmU9IjAiIHN0eWxlPSJmaWxsOiNmZmZmZmYiIGQ9Im0gOS4wNDA4MjAxLDE4Ljc1OTQ5IGggLTEuMDkgbCAtMS4zMSwtMi4xOSBjIC0wLjEyLC0wLjIgLTAuMjQsLTAuMzcgLTAuMzUsLTAuNTIgLTAuMTEsLTAuMTQgLTAuMjMsLTAuMjYgLTAuMzQsLTAuMzUgLTAuMTIsLTAuMDkgLTAuMjUsLTAuMTUgLTAuMzgsLTAuMiAtMC4xNCwtMC4wNCAtMC4yOSwtMC4wNiAtMC40NiwtMC4wNiBoIC0wLjc2IHYgMy4zMiBoIC0wLjkxIHYgLTcuOCBoIDIuMzMgYyAwLjM0LDAgMC42NiwwLjA0IDAuOTQsMC4xMiAwLjI5LDAuMDkgMC41NCwwLjIyIDAuNzYsMC4zOSAwLjIxLDAuMTggMC4zNywwLjM5IDAuNDksMC42NSAwLjEyLDAuMjYgMC4xOCwwLjU3IDAuMTgsMC45MiAwLDAuMjcgLTAuMDQsMC41MiAtMC4xMiwwLjc0IC0wLjA4LDAuMjMgLTAuMiwwLjQzIC0wLjM1LDAuNjEgLTAuMTUsMC4xOCAtMC4zMywwLjMzIC0wLjU0LDAuNDYgLTAuMjEsMC4xMiAtMC40NSwwLjIyIC0wLjcyLDAuMjkgdiAwLjAyIGMgMC4xMywwLjA2IDAuMjUsMC4xMiAwLjM0LDAuMiAwLjEsMC4wNyAwLjE5LDAuMTYgMC4yOCwwLjI2IDAuMDgsMC4xIDAuMTcsMC4yMiAwLjI2LDAuMzUgMC4wOCwwLjEzIDAuMTgsMC4yOCAwLjI4LDAuNDUgeiBtIC00LjY5LC02Ljk4IHYgMi44MyBoIDEuMjUgYyAwLjIyLDAgMC40NCwtMC4wMyAwLjYzLC0wLjEgMC4xOSwtMC4wNyAwLjM2LC0wLjE3IDAuNSwtMC4zIDAuMTQsLTAuMTIgMC4yNiwtMC4yOCAwLjM0LC0wLjQ3IDAuMDgsLTAuMTkgMC4xMiwtMC40IDAuMTIsLTAuNjMgMCwtMC40MiAtMC4xNCwtMC43NCAtMC40MSwtMC45NyAtMC4yNywtMC4yNCAtMC42NiwtMC4zNiAtMS4xNywtMC4zNiB6Ii8+PHBhdGggaWQ9InBhdGg4NTg4MCIgaW5rc2NhcGU6Y29ubmVjdG9yLWN1cnZhdHVyZT0iMCIgc3R5bGU9ImZpbGw6I2ZmZmZmZiIgZD0ibSAxNC4yNDg4MSwxOC43NTk0OSBoIC00LjE0IHYgLTcuOCBoIDMuOTYgdiAwLjgyIGggLTMuMDUgdiAyLjYgaCAyLjgyIHYgMC44MiBoIC0yLjgyIHYgMi43MyBoIDMuMjMgeiIvPjxwYXRoIGlkPSJwYXRoODU4ODgiIGlua3NjYXBlOmNvbm5lY3Rvci1jdXJ2YXR1cmU9IjAiIHN0eWxlPSJmaWxsOiNmZmZmZmYiIGQ9Im0gMTUuMzgzMDIsMTguNDQxNDAxIHYgLTEuMDcgYyAwLjEyLDAuMTEgMC4yNywwLjIgMC40NCwwLjI5IDAuMTgsMC4wOSAwLjM2LDAuMTYgMC41NSwwLjIyIDAuMTksMC4wNiAwLjM4LDAuMTEgMC41NywwLjE0IDAuMTksMC4wMyAwLjM3LDAuMDUgMC41NCwwLjA1IDAuNTYsMCAwLjk4LC0wLjExIDEuMjYsLTAuMzEgMC4yNywtMC4yMSAwLjQxLC0wLjUxIDAuNDEsLTAuOSAwLC0wLjIyIC0wLjA0LC0wLjQgLTAuMTQsLTAuNTUgLTAuMDksLTAuMTYgLTAuMjIsLTAuMyAtMC4zOCwtMC40MyAtMC4xNiwtMC4xMyAtMC4zNiwtMC4yNSAtMC41OCwtMC4zNyAtMC4yMiwtMC4xMiAtMC40NiwtMC4yNCAtMC43MiwtMC4zNyAtMC4yNywtMC4xNCAtMC41MywtMC4yOCAtMC43NiwtMC40MiAtMC4yNCwtMC4xNSAtMC40NCwtMC4zIC0wLjYyLC0wLjQ3IC0wLjE3LC0wLjE3IC0wLjMxLC0wLjM3IC0wLjQxLC0wLjU4IC0wLjEsLTAuMjIgLTAuMTUsLTAuNDcgLTAuMTUsLTAuNzYgMCwtMC4zNiAwLjA4LC0wLjY3IDAuMjMsLTAuOTMgMC4xNiwtMC4yNiAwLjM3LC0wLjQ4IDAuNjIsLTAuNjUgMC4yNSwtMC4xNyAwLjU0LC0wLjMgMC44NywtMC4zOCAwLjMyLC0wLjA4IDAuNjUsLTAuMTMgMC45OSwtMC4xMyAwLjc3LDAgMS4zMywwLjEgMS42OCwwLjI4IHYgMS4wMyBjIC0wLjQ2LC0wLjMyIC0xLjA1LC0wLjQ4IC0xLjc3LC0wLjQ4IC0wLjIsMCAtMC40LDAuMDIgLTAuNiwwLjA2IC0wLjIsMC4wNSAtMC4zOCwwLjExIC0wLjUzLDAuMjEgLTAuMTYsMC4wOSAtMC4yOSwwLjIxIC0wLjM4LDAuMzYgLTAuMSwwLjE1IC0wLjE1LDAuMzMgLTAuMTUsMC41NSAwLDAuMiAwLjA0LDAuMzcgMC4xMSwwLjUxIDAuMDcsMC4xNSAwLjE4LDAuMjggMC4zMywwLjQgMC4xNCwwLjEyIDAuMzIsMC4yNCAwLjUzLDAuMzUgMC4yMSwwLjExIDAuNDUsMC4yNCAwLjcyLDAuMzcgMC4yOCwwLjE0IDAuNTUsMC4yOCAwLjgsMC40NCAwLjI1LDAuMTUgMC40NywwLjMyIDAuNjUsMC41IDAuMTksMC4xOSAwLjM0LDAuMzkgMC40NSwwLjYyIDAuMTEsMC4yMiAwLjE3LDAuNDggMC4xNywwLjc3IDAsMC4zOSAtMC4wOCwwLjcxIC0wLjIzLDAuOTggLTAuMTUsMC4yNiAtMC4zNSwwLjQ4IC0wLjYxLDAuNjUgLTAuMjUsMC4xNiAtMC41NSwwLjI5IC0wLjg4LDAuMzYgLTAuMzMsMC4wNyAtMC42OSwwLjExIC0xLjA2LDAuMTEgLTAuMTIsMCAtMC4yNywtMC4wMSAtMC40NSwtMC4wMyAtMC4xOSwtMC4wMiAtMC4zNywtMC4wNSAtMC41NiwtMC4wOSAtMC4xOSwtMC4wMyAtMC4zNywtMC4wOCAtMC41NCwtMC4xNCAtMC4xNiwtMC4wNSAtMC4zLC0wLjEyIC0wLjQsLTAuMTkgeiIvPjxwYXRoIGlkPSJwYXRoODU4OTYiIGlua3NjYXBlOmNvbm5lY3Rvci1jdXJ2YXR1cmU9IjAiIHN0eWxlPSJmaWxsOiNmZmZmZmYiIGQ9Im0gMjYuMjg5NzIsMTEuNzc5NDkgaCAtMi4yNiB2IDYuOTggaCAtMC45MSB2IC02Ljk4IGggLTIuMjUgdiAtMC44MiBoIDUuNDIgeiIvPiYjeGE7PC9zdmc+;" vertex="1" parent="bqVkadd0tKrhda9ODERW-12">
          <mxGeometry x="204" y="31.795454545454543" width="35.75757575757576" height="35.75757575757576" as="geometry" />
        </mxCell>
        <mxCell id="bqVkadd0tKrhda9ODERW-30" style="edgeStyle=orthogonalEdgeStyle;rounded=0;orthogonalLoop=1;jettySize=auto;html=1;strokeColor=#808080;" edge="1" parent="bqVkadd0tKrhda9ODERW-12" source="bqVkadd0tKrhda9ODERW-15" target="bqVkadd0tKrhda9ODERW-29">
          <mxGeometry relative="1" as="geometry" />
        </mxCell>
        <mxCell id="bqVkadd0tKrhda9ODERW-15" value="" style="shape=image;verticalLabelPosition=bottom;labelBackgroundColor=#ffffff;verticalAlign=top;aspect=fixed;imageAspect=0;image=data:image/svg+xml,PHN2ZyB4bWxuczpjYz0iaHR0cDovL2NyZWF0aXZlY29tbW9ucy5vcmcvbnMjIiB4bWxuczpkYz0iaHR0cDovL3B1cmwub3JnL2RjL2VsZW1lbnRzLzEuMS8iIHhtbG5zOmlua3NjYXBlPSJodHRwOi8vd3d3Lmlua3NjYXBlLm9yZy9uYW1lc3BhY2VzL2lua3NjYXBlIiB4bWxuczpyZGY9Imh0dHA6Ly93d3cudzMub3JnLzE5OTkvMDIvMjItcmRmLXN5bnRheC1ucyMiIHhtbG5zOnNvZGlwb2RpPSJodHRwOi8vc29kaXBvZGkuc291cmNlZm9yZ2UubmV0L0RURC9zb2RpcG9kaS0wLmR0ZCIgeG1sbnM6c3ZnPSJodHRwOi8vd3d3LnczLm9yZy8yMDAwL3N2ZyIgeG1sbnM9Imh0dHA6Ly93d3cudzMub3JnLzIwMDAvc3ZnIiB4bWxuczp4bGluaz0iaHR0cDovL3d3dy53My5vcmcvMTk5OS94bGluayIgdmVyc2lvbj0iMS4xIiBpZD0ic3ZnOTAxOTEiIGlua3NjYXBlOnZlcnNpb249IjAuOTIuMyAoMjQwNTU0NiwgMjAxOC0wMy0xMSkiIHNvZGlwb2RpOmRvY25hbWU9InNlcnZpY2VzLnN2ZyIgeD0iMHB4IiB5PSIwcHgiIHZpZXdCb3g9IjAgMCA1Ni4yNiA0NS42OCIgc3R5bGU9ImVuYWJsZS1iYWNrZ3JvdW5kOm5ldyAwIDAgNTYuMjYgNDUuNjg7IiB4bWw6c3BhY2U9InByZXNlcnZlIj4mI3hhOzxzb2RpcG9kaTpuYW1lZHZpZXcgYm9yZGVyY29sb3I9IiM2NjY2NjYiIGJvcmRlcm9wYWNpdHk9IjEiIGZpdC1tYXJnaW4tYm90dG9tPSIwIiBmaXQtbWFyZ2luLWxlZnQ9IjAiIGZpdC1tYXJnaW4tcmlnaHQ9IjAiIGZpdC1tYXJnaW4tdG9wPSIwIiBncmlkdG9sZXJhbmNlPSIxMCIgZ3VpZGV0b2xlcmFuY2U9IjEwIiBpZD0ibmFtZWR2aWV3OTAxOTMiIGlua3NjYXBlOmN1cnJlbnQtbGF5ZXI9InN2ZzkwMTkxIiBpbmtzY2FwZTpjeD0iMzIuNzA3NDM1IiBpbmtzY2FwZTpjeT0iMTIuNzc0NzU4IiBpbmtzY2FwZTpwYWdlb3BhY2l0eT0iMCIgaW5rc2NhcGU6cGFnZXNoYWRvdz0iMiIgaW5rc2NhcGU6d2luZG93LWhlaWdodD0iMTAxNyIgaW5rc2NhcGU6d2luZG93LW1heGltaXplZD0iMSIgaW5rc2NhcGU6d2luZG93LXdpZHRoPSIxOTIwIiBpbmtzY2FwZTp3aW5kb3cteD0iLTgiIGlua3NjYXBlOndpbmRvdy15PSItOCIgaW5rc2NhcGU6em9vbT0iNi44OTEyMjIyIiBvYmplY3R0b2xlcmFuY2U9IjEwIiBwYWdlY29sb3I9IiNmZmZmZmYiIHNob3dncmlkPSJmYWxzZSI+JiN4YTsJPC9zb2RpcG9kaTpuYW1lZHZpZXc+JiN4YTs8ZyBpZD0iZzkwMTg5IiB0cmFuc2Zvcm09InRyYW5zbGF0ZSgtMC43NSwtMC43NTI0KSI+JiN4YTsJPHRpdGxlIGlkPSJ0aXRsZTkwMTY5Ij5QYWdlLTE8L3RpdGxlPiYjeGE7CTxnIGlkPSJncm91cDQzNzUtMSIgdHJhbnNmb3JtPSJ0cmFuc2xhdGUoMC43NSwtMC43NSkiPiYjeGE7CQk8dGl0bGUgaWQ9InRpdGxlOTAxNzEiPlNlcnZpY2VzPC90aXRsZT4mI3hhOwkJPGcgaWQ9InNoYXBlNDM3Ni0yIj4mI3hhOwkJCTx0aXRsZSBpZD0idGl0bGU5MDE3MyI+U2hlZXQuNDM3NjwvdGl0bGU+JiN4YTsJCQk8cGF0aCBpZD0icGF0aDkwMTc1IiBpbmtzY2FwZTpjb25uZWN0b3ItY3VydmF0dXJlPSIwIiBzdHlsZT0iZmlsbDojM0Y1NzY1OyIgZD0iTTQxLjEyLDI1LjY2Yy0wLjctMy43OS0wLjctMy43OS0wLjctMy43OSAgICAgYy0wLjE0LTAuNDItMC40Mi0wLjctMC45OS0wLjg0Yy01Ljc3LTAuMjgtNS43Ny0wLjI4LTUuNzctMC4yOGMtMC4yOC0wLjQyLTAuNTYtMC45OS0wLjg1LTEuNGMyLjY4LTUuMiwyLjY4LTUuMiwyLjY4LTUuMiAgICAgYzAuMjktMC40MSwwLjE1LTAuOTgtMC4yOC0xLjI2Yy0yLjk1LTIuMzgtMi45NS0yLjM4LTIuOTUtMi4zOGMtMC4yOS0wLjQyLTAuODUtMC40Mi0xLjI4LTAuMTRjLTQuNjQsMy42NC00LjY0LDMuNjQtNC42NCwzLjY0ICAgICBjLTAuNDMtMC4yNy0wLjg0LTAuNDEtMS40MS0wLjU2Yy0xLjQxLTYuNTktMS40MS02LjU5LTEuNDEtNi41OWMtMC4xNC0wLjQyLTAuNTYtMC44NS0wLjk5LTAuODVjLTMuOTMsMC0zLjkzLDAtMy45MywwICAgICBjLTAuNDMsMC0wLjg1LDAuNDMtMC45OSwwLjg1Yy0xLjQxLDYuNTktMS40MSw2LjU5LTEuNDEsNi41OWMtMC41NywwLjE1LTAuOTgsMC4yOS0xLjQxLDAuNTZjLTQuNjQtMy42NC00LjY0LTMuNjQtNC42NC0zLjY0ICAgICBjLTAuNDMtMC4yOC0wLjk5LTAuMjgtMS4yOCwwYy0yLjk1LDIuNTItMi45NSwyLjUyLTIuOTUsMi41MmMtMC40MywwLjI4LTAuNDMsMC44NS0wLjI4LDEuMjZjMi42Nyw1LjIsMi42Nyw1LjIsMi42Nyw1LjIgICAgIGMtMC4yOCwwLjQxLTAuNTYsMC45OC0wLjg0LDEuNGMtNS43OCwwLjI4LTUuNzgsMC4yOC01Ljc4LDAuMjhjLTAuNTYsMC0wLjg0LDAuNDItMC45OCwwLjg0QzAsMjUuNjYsMCwyNS42NiwwLDI1LjY2ICAgICBjMCwwLjQyLDAuMTQsMC45OCwwLjU3LDEuMTJjNS40OSwyLjI1LDUuNDksMi4yNSw1LjQ5LDIuMjVjMC4xNCwwLjU2LDAuMTQsMS4xMiwwLjI4LDEuNjhjLTQuMzcsMy45My00LjM3LDMuOTMtNC4zNywzLjkzICAgICBjLTAuMjgsMC4yOC0wLjQyLDAuODQtMC4xNCwxLjI2YzEuOTcsMy4zNywxLjk3LDMuMzcsMS45NywzLjM3YzAuMTUsMC4yOCwwLjcxLDAuNTYsMS4xMywwLjQyYzUuNjMtMS44Miw1LjYzLTEuODIsNS42My0xLjgyICAgICBjMC40MywwLjQyLDAuODUsMC44NCwxLjI4LDEuMTJjLTAuNzEsNS43NS0wLjcxLDUuNzUtMC43MSw1Ljc1Yy0wLjE0LDAuNTYsMC4xNCwwLjk5LDAuNTYsMS4xM2MzLjY3LDEuMjYsMy42NywxLjI2LDMuNjcsMS4yNiAgICAgYzAuNDEsMC4xMywwLjk4LDAsMS4yNi0wLjI4YzMuMS01LjA2LDMuMS01LjA2LDMuMS01LjA2YzAuMjgsMCwwLjU3LDAuMTUsMC44NCwwLjE1YzAuMjgsMCwwLjU3LTAuMTUsMC44NS0wLjE1ICAgICBjMy4xLDUuMDYsMy4xLDUuMDYsMy4xLDUuMDZjMC4yOCwwLjI4LDAuODQsMC40MSwxLjI2LDAuMjhjMy42Ni0xLjI2LDMuNjYtMS4yNiwzLjY2LTEuMjZjMC40My0wLjE0LDAuNzEtMC41NywwLjU3LTEuMTMgICAgIGMtMC43MS01Ljc1LTAuNzEtNS43NS0wLjcxLTUuNzVjMC40My0wLjQyLDAuODUtMC43LDEuMjgtMS4xMmM1LjYyLDEuODIsNS42MiwxLjgyLDUuNjIsMS44MmMwLjQzLDAuMTQsMC45OS0wLjE0LDEuMTQtMC40MiAgICAgYzEuOTctMy4zNywxLjk3LTMuMzcsMS45Ny0zLjM3YzAuMjctMC40MiwwLjEzLTAuOTgtMC4xNC0xLjI2Yy00LjM3LTMuOTMtNC4zNy0zLjkzLTQuMzctMy45M2MwLjE0LTAuNTYsMC4xNC0xLjEyLDAuMjgtMS42OCAgICAgYzUuNDktMi4yNSw1LjQ5LTIuMjUsNS40OS0yLjI1QzQwLjk5LDI2LjY0LDQxLjEyLDI2LjIyLDQxLjEyLDI1LjY2eiBNMjguNzMsMjcuMzVjMCwyLjI0LTAuOTksNC4yLTIuMzksNS43NSAgICAgYy0xLjU1LDEuNC0zLjUyLDIuMzgtNS43OCwyLjM4Yy0yLjI1LDAtNC4yMi0wLjk4LTUuNzctMi4zOGMtMS40MS0xLjU1LTIuNC0zLjUxLTIuNC01Ljc1YzAtMi4yNSwwLjk5LTQuMzUsMi40LTUuNzYgICAgIGMxLjU1LTEuNTQsMy41Mi0yLjM4LDUuNzctMi4zOGMyLjI2LDAsNC4yMywwLjg0LDUuNzgsMi4zOEMyNy43NCwyMywyOC43MywyNS4xLDI4LjczLDI3LjM1eiIvPiYjeGE7CQk8L2c+JiN4YTsJCTxnIGlkPSJzaGFwZTQzNzctNCIgdHJhbnNmb3JtPSJ0cmFuc2xhdGUoMTYuNzU3NSwtMTYuMDI0OCkiPiYjeGE7CQkJPHRpdGxlIGlkPSJ0aXRsZTkwMTc4Ij5TaGVldC40Mzc3PC90aXRsZT4mI3hhOwkJCTxwYXRoIGlkPSJwYXRoOTAxODAiIGlua3NjYXBlOmNvbm5lY3Rvci1jdXJ2YXR1cmU9IjAiIHN0eWxlPSJmaWxsOiMzRjU3NjU7IiBkPSJNMCw0My4zOGMwLTIuMDksMS43MS0zLjc5LDMuOC0zLjc5ICAgICBjMi4xLDAsMy44MSwxLjcsMy44MSwzLjc5YzAsMi4xLTEuNzEsMy44LTMuODEsMy44QzEuNzEsNDcuMTgsMCw0NS40OCwwLDQzLjM4eiIvPiYjeGE7CQk8L2c+JiN4YTsJCTxnIGlkPSJzaGFwZTQzNzgtNiIgdHJhbnNmb3JtPSJ0cmFuc2xhdGUoMzUuNDY4MiwtMjMuMjA3NikiPiYjeGE7CQkJPHRpdGxlIGlkPSJ0aXRsZTkwMTgzIj5TaGVldC40Mzc4PC90aXRsZT4mI3hhOwkJCTxwYXRoIGlkPSJwYXRoOTAxODUiIGlua3NjYXBlOmNvbm5lY3Rvci1jdXJ2YXR1cmU9IjAiIHN0eWxlPSJmaWxsOiMzRjU3NjU7IiBkPSJNMTguMTksMzcuNDljMC4xNC0wLjQyLDAuMjgtMC45OCwwLjI4LTEuNTUgICAgIGMwLTAuNDEtMC4xNC0wLjk4LTAuMjgtMS40YzIuMjYtMi4xLDIuMjYtMi4xLDIuMjYtMi4xYzAuMjgtMC4xNSwwLjI4LTAuNDMsMC4yOC0wLjcxYzAtMC4xMywwLTAuNDIsMC0wLjU2ICAgICBjLTAuOTgtMS42OC0wLjk4LTEuNjgtMC45OC0xLjY4Yy0wLjI5LTAuMjktMC41Ny0wLjQzLTAuOTktMC40M2MwLDAtMC4xNSwwLTAuMjksMGMtMi44MiwwLjg1LTIuODIsMC44NS0yLjgyLDAuODUgICAgIGMtMC44NC0wLjU3LTEuNjktMS4xMi0yLjY4LTEuNDFjLTAuNTYtMi45NS0wLjU2LTIuOTUtMC41Ni0yLjk1Yy0wLjE0LTAuNDItMC41Ni0wLjg0LTAuOTktMC44NGMtMS45NywwLTEuOTcsMC0xLjk3LDAgICAgIGMtMC41NiwwLTAuODUsMC40Mi0wLjk5LDAuODRjLTAuNywyLjk1LTAuNywyLjk1LTAuNywyLjk1Yy0wLjk5LDAuMjktMS44NCwwLjg0LTIuNTQsMS41NWMtMi45Ni0wLjk5LTIuOTYtMC45OS0yLjk2LTAuOTkgICAgIGMtMC4xNCwwLTAuMTQsMC0wLjI4LDBjLTAuMjgsMC0wLjcxLDAuMTQtMC44NSwwLjQzYy0wLjk5LDEuNjgtMC45OSwxLjY4LTAuOTksMS42OEMwLDMxLjMxLDAsMzEuNiwwLDMxLjczICAgICBjMCwwLjI4LDAuMTQsMC41NiwwLjI4LDAuNzFjMi40LDIuMSwyLjQsMi4xLDIuNCwyLjFjLTAuMTQsMC40Mi0wLjI4LDAuOTktMC4yOCwxLjRjMCwwLjU3LDAuMTQsMC45OSwwLjI4LDEuNTUgICAgIGMtMi40LDIuMTEtMi40LDIuMTEtMi40LDIuMTFDMC4xNCwzOS43NCwwLDQwLjAyLDAsNDAuM2MwLDAuMTQsMCwwLjI4LDAuMTQsMC40MmMwLjk5LDEuNjksMC45OSwxLjY5LDAuOTksMS42OSAgICAgYzAuMTQsMC40MiwwLjU3LDAuNTYsMC44NSwwLjU2YzAuMTQsMCwwLjE0LDAsMC4yOCwwYzIuOTYtMC45OSwyLjk2LTAuOTksMi45Ni0wLjk5YzAuNywwLjU3LDEuNTUsMS4xMywyLjU0LDEuNDEgICAgIGMwLjcsMy4wOSwwLjcsMy4wOSwwLjcsMy4wOWMwLjE0LDAuNDIsMC40MywwLjcsMC45OSwwLjdjMS45NywwLDEuOTcsMCwxLjk3LDBjMC40MywwLDAuODUtMC4yOCwwLjk5LTAuNyAgICAgYzAuNTYtMi45NSwwLjU2LTIuOTUsMC41Ni0yLjk1YzAuOTktMC40MiwxLjg0LTAuODQsMi42OC0xLjU1YzIuODIsMC45OSwyLjgyLDAuOTksMi44MiwwLjk5YzAuMTQsMCwwLjI5LDAsMC4yOSwwICAgICBjMC40MiwwLDAuNy0wLjE0LDAuOTktMC41NmMwLjk4LTEuNjksMC45OC0xLjY5LDAuOTgtMS42OWMwLTAuMTQsMC4xNC0wLjI4LDAtMC40MmMwLjE0LTAuMjgsMC0wLjU2LTAuMjgtMC43TDE4LjE5LDM3LjQ5eiAgICAgIE0xMy41NCwzNS45NGMwLDEuNjktMS40MSwzLjA5LTMuMTEsMy4wOWMtMS42OSwwLTMuMDktMS40LTMuMDktMy4wOWMwLTEuNjgsMS40LTMuMDgsMy4wOS0zLjA4ICAgICBDMTIuMTMsMzIuODYsMTMuNTQsMzQuMjYsMTMuNTQsMzUuOTR6Ii8+JiN4YTsJCTwvZz4mI3hhOwk8L2c+JiN4YTs8L2c+JiN4YTs8L3N2Zz4=;" vertex="1" parent="bqVkadd0tKrhda9ODERW-12">
          <mxGeometry x="204" y="131.95121212121214" width="42.09090909090909" height="34.57575757575758" as="geometry" />
        </mxCell>
        <mxCell id="bqVkadd0tKrhda9ODERW-31" style="edgeStyle=orthogonalEdgeStyle;rounded=0;orthogonalLoop=1;jettySize=auto;html=1;strokeColor=#808080;" edge="1" parent="bqVkadd0tKrhda9ODERW-12" source="bqVkadd0tKrhda9ODERW-11" target="bqVkadd0tKrhda9ODERW-15">
          <mxGeometry relative="1" as="geometry" />
        </mxCell>
        <mxCell id="bqVkadd0tKrhda9ODERW-11" value="" style="shape=image;verticalLabelPosition=bottom;labelBackgroundColor=#ffffff;verticalAlign=top;aspect=fixed;imageAspect=0;image=data:image/png,iVBORw0KGgoAAAANSUhEUgAAASwAAAEJCAYAAAAuHBrwAAAAAXNSR0IArs4c6QAAAARnQU1BAACxjwv8YQUAAAAJcEhZcwAADsMAAA7DAcdvqGQAAAAYdEVYdFNvZnR3YXJlAHBhaW50Lm5ldCA0LjAuM4zml1AAAEyoSURBVHhe7V0JeBVV0n0hEIisIgiyIyJIAFlkFUVA2cVREFxHEUEEURSVTUUFURBQBDcEFxQUxIVFXHDcBx0ZBxwdnRl1VH433EFJr6/rv6e6b/sSOiEJIXkvqfN9ZxiTvF5u1z2v6nbdqphAIBAIBAKBQCAQCAQCgUAgEAgEAoFAIBAIBAKBQCAQCAQCgUAgEAgEAoFAIBAIBAKBQCAQCAQCgUAgEAgEAoFAIBCkOogo3X7qqS7eyy83DH4kEAgEyQl6/fXm7sMPf+OuWnVD8COBQCAoXXh79tR1Fi9e4F166RKzffslZlrakuxYbIlZu/bj1L8/2e3bf4j/5p/Vr7/EGjp0iTd//hJn1apTg0MIBAJB8YI2bDjEuu66LO/447OsqlWzrFjM56BBo2nyZKIzzyRq2ZKoQgUiRISKZvBvyDp1iHr1Ivy9ffHFz4THqFQpy2rcOMubMCHLu+22RsEpBQKBoGhwFizo51x99S6vV69dRvXqu4xYbJcSpF1GhQq/KAEju0oVstLTSQlQSAgWGP5MiZmVkUG2+nuzcuVsfJ6PUanSLrNJk13euHG77BtvXBGcUiAQCPKGvXnzld7y5fOMUaPmGbVqzVOi9AcbNdpEPXoQNWlCpEQn0XOCKKm/CQUqP+LvQE8xPIYSOqpZk6hTJ7Lat/8qPGdA64QT5nk33zzPe/rped7OnW2DyxUIBGUdpII24957m3mTJrUwsrJaKEFg2j179nDmzt1FN91ENGAAUfXqOUQJVH9XYGEqCnFsVzH3eSFkNHEi0R13kPLybtLXbNSt28IbOLCFt3hxC9qypWZwiwKBoKzg9y++OMJduvRd77LLPs/Oyvo8u2LFz7Njsc/NChV2mrVru85hh5FzyCHkqPDNVmLhBMT/LwnBwr+J5+RrqFyZnFq1yKlbl4wqVX7C9TLr1//cGTToc2/hws/dVasuCW5RIBCkGryPPjrMvv76a73TTpthNmw4QwnBDDXJZ+BNXXzwYKLjjyeqVy/HIrkWpUQRSQZqoQRzeF7wAlu3Jjr1VLK6dn0L98f3WK3aDLtTpxneNdfMcO66q28wJAKBoDThvfBCbXroofp0wQX1qW7d+r/HYkw1meu7I0acSePHE518si9MCRNdi0BuYUhFaiHLsSZWtSpRmzZEF19M9tixa9TPeEz02FDv3vVp/vz6tHZtffrww4xgOAUCwcFEfMOGh7xHHvnYGj36Y6NevY+Vd8FUE/hjs1KlnU7t2hSvVo3cihV5bUiHWnqi5578qUgtWInhq6u8RleFkXF1/8rb2o3xAPXYWP36fezdeuvH8ccf/9jevv34YDgFAkFxwH3iibPollsmGiedNNHIzJyoJt1Es0qVKdbIkbto9Giinj2JatTI4UWBekLnnuTlgbhvMIfnpYkw8vTT2QMzu3R5BOPJPProiWo8J9KKFRO9t99uGQy/QCDIDSJK8+bNq65CuJo/x2IhzXPPbePMnfslXX01UbduRJmZ4cQriYXwskg9ZmAOQTvySD8Bdt48cm+8cWric/j50ENr0tSpNb3FiysHj0wgKL/wvv32cHvu3Je8IUO2ZWdkbFPhyzY1obYZ6envmw0bOtSgAYd3cRXuxNXkApGMqSde1MQURlOPGYgQUo9nXIWRdNhhRE2bklmz5v+p3/MzwLNwmjXb5k2fvs1dtuzC4JEJBGUb3rvv9qYNG0a7EyeOttq2HW1UqjRaTYjRSnhGG02b3uwNG0bUoQNRxYp/fOsrJuvbu7JIjDOYOP5MbCvC28gTT3wZz4ufGf6tW3e0dfrpo+nuu0e7zz9/vvKUJR9MkFpA2OAtXJjpde+eqUKOkO7DDz9Py5cTXXABea1aUbxSJf5mR1iCf/WEyT2JhKVPLWTwyPC8+JmlpZFXuzbRwIFEs2eTvXy56y1dOlA/b69Ro0xvxIhM2AISdgPzEAiSC87jj9/hLVr0SvbAga9k16r1igopmGaLFr9Su3ZEDRv6r96VwetvcEwAPTFyTxZh6TNRsHJ4XupLh72vli0p3rYtmTVq7NDPO7tDh1e8K654Jb5ixSv2u+92CcxDICgdGIsX9/fGjh1uNm8+3ExPH743FhueXb36edaf//wtv73DlhIIU2Dc8KK04UdNCmFqMvGZ5hCz5s2Jhg4lmjCBzD597oZ9gGbt2sO9fv2Ge7feOpw2bGgSmJNAcGBQRpdGs2ZVUP/uQ2/KlOb29dd/SueeS1bjxlypAAaLhXBtxNqgheWXWsy0XYBWrVr+ToOpU8mcNeuqKPtiu1M+eGCKAsH+4W7dOl59A25yr7xyk3XMMZuU4TGV8W0yMzJeVSGey9ULkGqQEN7BOEWwhKAWLHjX2j44jMTbyFatyKhb9z+wJ5BtKzNzk3XeeZvo4Yc3OS+88KgSrRqBOQoEPrz169t7S5acYgwadIpRu/YpynCY1mWXvcnVC844g0h5UaHBBZS3d8KiEnYD5rYpqlKFqG9fQt6dM3062V27XqLt0ejQ4RTvqqtOcR56qN+3nlc1MF9BeYO7bNkz3ty5ttm3r60Ey86OxZhGWlrcrFCBTOU9RRkdKIIlLAq1YEX9ju1N2Z1RoYKn/sYJbNE22ra1vUsvte3Fi3+zV6zoFZivoKzCuvPOm+jaa1ebXbqsNg85ZLUyhtXKQB632rb9kTp3JjriCCIkDyqjAbH/Ll/DEkZSj5kSf5SDkTEsJBPHK4f3deih/rairl3JrF37VfU3sN/VZvPmq2nUqNXxW29dTZs2dQjMXZBK8GKxRuoh91JhWy/1DdXLOPTQgdb5539DZ53lP3S43oEhyNu74qEeQx7H+vXJGjOGzOOPJyM9Xca3mKjHMBQxEF+0CCPHjiVr4MB5sHdQ/a7X77FYR/VvxWBaCJIV6qFeo0Rrr6OoHjKYrSZO3KxYMTLEkwl14NRjaFStStbw4RT/+WdyVqwgo3HjULSiPicsOCPHEPaMt9TKtlXoaKm/YZuH/at/394Ti9UJpoUgWWHFYjfm+BZSlEXyg0v1rc60Bg0i98UXySOi+Jdfkn3zzWQccgj/LupzwgMn7BrMbfPqZ//5LRY7PJgWgmSFeogz8MCwDpX74QqLnzxh4EXVq0fOkiUsVgCL1n/+Q2bPnmRUqxZOrKhjCIuXgWBtVx5W3WBaCJIV6oGJYJUgWYiUWFkzZ5L7wQc5BWvPHrIffZTMvn1FsEqQIlgpBPXARLBKgFqADKyj9OhB7t/+Rt7vv/tqFcCLxyn+1VdkKzEzMjNFtEqIIlgpBPXARLBKgHrdyjzqKLKvu4480wxkal+4zz+PPXVkVqki61klQNi/GmcRrFSAemAiWCVALVj21KkU//ZbiitvKi/E9+7lxXizQQMRrBKgCFYKwaxRYwbqnKMhgYQfB4cc2lWrRma/fuS+9BKvV+m1qyjwetaPP5J92WVktmghoeFBoh5X7HE1atTY/k21aiJYyY7sdu1mIEEU3VPk27x4qScEr1u1aUPO6tXkffedr0r7gWfb5L79NtkXXoitJ+Gxos4jLBq114v9r2b79tv3HHWUCFayI/vMM2cQ8oGUByCCVbwMBat6dbLOOYfi339PnuMEkpQ/PM8jLzubnAceIEOFhlq0os4jLBpDwerWjcyzz96+Z8QIEaxkhzl58gwU0XNr1ZIJUczUE8IaPJicZ5/NNwzMC+5HH/G6l3noofKFUszUXyjUvz+ZU6Zs90aPFsFKdtgLFsygadPIrVNHJkQxUU8E9ooOOYS33fC6lfKaCgtez/riC7J69SKjUqXw2FHnFRaO+guFhg8ne+7cHd706SJYyY7400/fTJhQDRuKYBUTQ1Fp3JjsGTMorrykAxIshIYPPkhWv34iWMXIULAuv5ycxx//zFu5UrbmJDu8LVsGekuXPmIfeujP2EMY9WCFBacWFCMjg6wBA8jdsYO8vXt99SkiIHTwsuxbbiGjZk1exBfROnCi4i1sPj5q1Ovupk0zae3aasG0ECQzKBarpSbAv5CPEvVghQVn6KW2akX2nDlFWrfKC+4bb5B58slkyguSYiE6MMHmle1L09dUgnpoh4pgFQ8hJPB+7BtvpPjOncUqWPHdu8nZsoWz5UWwDpwJgjU6mAqCVIB6aPXVQ/tYBKvohEgxkcLQrRu5f/1rkdet8gKvZxkGJ5QazZuH54y6HuH+mSBY44KpIEgFQLDUN7YIVhEZipWi1aULuevWkffjj77KFDM816X4e++RPXkyF6RLPHfUtQnzphasvSJYqQURrAMjCwbEo3Ztsi+9lLyffipwgmhhwV4b9ho+/TSvk0mqQ9EpgpWigGAZVap8jD5wYvyFp163soYN4wTRkkD8f//jlAm9QVrWtApHPC+vQgXuWWBUriyClUqgpk3rG61afUz16olgFYEsWBkZ5KxdS/FiXLPKDzhP/LvvyDzlFBGsIpAFCw1WjjqKjNatRbBSCTR4cH1rxIiPqVMnMf5CMBT35s3Jvuoqin/6abG+FcwPHBoq0XIeeYTM/v3li6aQhI3HVQhPp55KxqhRIlipBLr66vr2zJmf0dChIlgFpBYIFU6QEnuKb99OnmH4alKCiH/9NdmLF/NeQ6nqUHDCxqlRI6JrrkEKyqXBVBCkAmjp0vrOkiWf0DnniGAVkCwMEIisLBYMlDcuzhSGggLndd97j8whQ8iAaAXXFnXNwj/IgnXkkUTz5pG7bNn4YCoIUgHewoWZzgMPnOF07fqoox6kbNHZP2HwEAbn1lsp/skngXyUDpBQ6m7cSJaE9AUm7NypWfMTV3lX5qOPtgqmgiCVoCbghXjNiw7PUQ9ZGHhWICqIduhA8X/9K5CNfaHXmRAqouEE0hEKVQ8r1+fy8t/4PMrTsqdMIaN+ffGyCsAghef1wPQFqQhl5BNEsPJnKAYnnkjOM8+wd5MXWEh++IHiO3Zw5ruLda6ffvJ/uR+g4mj8v//lqqNx8Isv8m1cAbjvv0/W9OlkoLNxwjUL92UgWH/9NharGpi/INWgjHxiaQiWFoH8GPW5kiZfC5qgtmxJtgoF4QFBsJAThXUk9y9/4bd26OCMTHTrkkvIOv98sv70J7LOO4/sBx9k4SkIsAXHeeklLt5nDRlC1llnkTVmDNkTJ5KtRMm56y4OA92tW8n9+GOK79rlr2e98w6ZvXv7VR2Ca466l5Kkvo79MeqzB4uBYG3dFYtJhYZUhTKaEhOs0EgrVybziCPIOvpostq0IatVKzKPPJJrSZkqvDEPO4yrE+iSKrkZdeyDRT5fpUpkHncc2bffTt4HH5D77LPk3HknWdOmkXXRRWQef3woFno9ide7atcma8YMriBaECAMtFeuZE8ux3HAChXIxHiNGEHW5Zej+Bw5Dz1E8W3b/G47w4eTWbduqY1RbvIzrlWLzMMPJ7NhQzKbNSNTib51zDH8zM2mTclUY6Y/n/uYB4MiWGUAylhKXrDwlm3RIm7T7v38M3n/93/sJTjr1pGzdCkLgYlcGTXhwwmb+PkSZHi+jAx/AkJQ69Tx/3/16mRWrcq/yy2ufN3o9nzFFRy2FQRYu7LvvZcFMIdYBTRV2GdmZrKY82RX42Oqc0Co+OellOKgzxle7yGHkNmlC1njx5N9223kKBF2t2yh+L//zeFxXD1z7A6AB6n3RkYdt7gpglUGsLdq1YmkDAwtv3I/4OKmNmwsElunn87NFty33mJDjn/5JWdxx3/5heKffUbua6/x7/FGzrn2Wg6vzJNO4m/m8DgBo851MJj7vImM+lsImzV6NMXffTeQpPzh7dlD1rx5ZHTqFHlc/bO8mPi3B5M5zgvBVtfLIfBll5Fz003k3H03uevXU1wJNT9TiBS+lPBcd+wg57nnyFZCzvdZkoKlvD51vSJYqQzj6KMnIjcljocZ8ZAPBkNjRxg4bBiv2TjLl3OxOhg2byQ2zfANGbe/2r6dwyVMCrN1a+4qw6Ej9oUlHDPqfKVBvhZ4QUqY3TffDO4kf3i7d3PLer4/fYwkoL4WJsJjhL8qpDeaNOFcMITKzssvc4cgDc5RUwLsoYHsP//J3jO8LQi40a0bb2sqqXvU5yF4xy1bbt1Vt64IVqrCGDp0IvXrR/FgDSbqgRc3tQHhzZaJ8CFY6zAaNiSjWTNep7HvuIMcNdGxEM0TAMSrfrTN+uQTXuy2lTcCrwvf8jqEijpfaZDHEt5H377kqslcEHi//kr2pElkKiHQYxR17JImriMM99q04ZcLWMfjuvVff83XrVM38JxcFeqjH6OFcjgdOvjCptcmVRiNnQL6/kriHvV5SF2LOXjw1l1t2ohgpSrsceMmItvdK6UOOomGC/I1QMCwBjJqlP927N57OU0g8RU/14hSoaTzxBP8hs668EIyu3blYnr6WFHnKyny+dFduEcPcl54Ibjq/OGpcNgeO5Ynd7LcA19Dq1YcwiPny162jOLvvMPekwZECiE9yt+gBr2l7sE65RR+kYLPh2Knj1fCxPlB6tOHrIsv3rqrd28RrFSFPXv2RLrqKvKCkiVRD7ykmWjcbOzKC8PitbNxI6cTxBFqqJBDgyfMV1+Rfc89ZA4c6G9Xwbd4wkJ41HkOJnks8aZMfau7zz3nX+h+gFDYPv98XkzXkyzq2AeLiePOeV14qYC3uHjTCZHKlcjKKR67dpH7t7+RvWABmZ07h9ddWuMeRX1NdMYZ5Nxww9u7JkwQwUpV2KtWXUX33897rEp6guTFHBMnIMIJDhe7dyd76VJe60oEPC5U/EQKgbNmDVlDh3Jmup48Uec5mOSxTE/nqg7wPAoCXL/9pz+x0OlJFnXsg0WMkx4vo21bTp3gJNZvvuGO1ImAcDkbNnDOGXLUsKaF69bPSzPqPCVNPZaEL72HH/5g19KlIlipCm/jxhO8pUvvt+vW3ZXM+wlzTIKePTk8cR97jFMicnzrg8oD4/DkmmvIVGFAdgku8GqG11ujBrmPPupf3H7gKW/FQk5XKXiGOBeLVbt2ZF90EadXcBoCrsu/PP//791LcRXiIonWhLjiiyT4fEleb2Go7Tp+9tkvKbu4itauzQjMX5CK2ByLVVbG9rcgTyXpGU6uhg252SjCQbxJzF05AYvB2ErDa1t4m5iQp1QSk0t/s7vwYAsAT90H3hDiM1HHK24mjgW//VPiCq8q/vnnOb4EAF4z/OUXfpOL9Sl9byUxjgdK2DU2Plux2MjA5AWpjM9jsSrK8FJKsMBsCJAKZe0LLyR382aeVIlgj+DnnzkfyFm4kLOt9WfBqGMXJ0PBuuce/4L2A+/LL0tHsLBGePbZFH/1Va61FbXp2kVqAhbUO3bkULskx/FAmSBYowKTF6Qyfo7FairD25YqgqUZThoVliBrmssV79wZTLGcgBggCRXbXkqqhpQ+h3v33cFV5A9PeTbYulJS14VcKN4uM24cC34UsHblvv462ddeS+axx4afjTpusjJBsM4LTF6QykhVwdLUoYnRoQOvvXiWleMtYiKcxx8na9Ag3h+oJ9/BmoD62M6SJX7pmHyK/eF3yPC3gqTRqOMVB/U18d5EJY729ddzSB0FeFq8sXrAAH5jmCohYG6KYJUxpLpg6UmYXaUKmVg0vuYain/7bTDtcgJv4pAXZZ155kH3tPSxnQULItfYEoHfIHTFhvCDdT1geL9426rCZC5hk4e4u8uWkXXCCby2pT93MK/tYFEEq4wBgpWdlraN0tIiH3gqMMeEatqU9yHmVdYlvnevvxgfbLAu6EQMz1G1qs/gv6P+FtS/RzJl/LffKJ6HMABxbD/661/JbNEi32OCfFzkSQW7EzSj/lYz/DvkhrVqRfb8+fwWMArYIhR/801eXC/o8ZOZECxb2bbyEEWwygLYw6pVaxs2QUc98FQiTyzkPylPCyVg8oPz5JPcV5CrLeQ6ThT5b7CdSHknZtu2+53I+vf2DTf4tatyvRRIhKcEjcvEBNnhUcfT5N9jmws2gzdoEJ4n6m81w79RISeux/vmm+DM+yL+1lu+Z1UAUU4FknpmjvISrVq1RLDKAn7u3Lmm0afPNmrTJuUNVF8/exLKQ0DBO2x5iQI263Jd9D598tzSo3/Gb+569+b1KPuhh8gqQPMO/Vnr2mvJRapAsN8uCrhGZ/16To7NfQ25yeeEl6QE2cG1XHklGZmZ/POoz+rrMI46yl+z+uSTSPFEWIrqGTY2mCeIVdQxU4W4dlLi7vbtS9bgwSJYZQE/jxtX05w0aRuVkQad4UTD28NRoyj+97/nuegNz8ZZtswvwpcrTwvk/YDKKzEHDfLDTNRy2rKlUIJlK0Hh2l8q7MsLnKW/bl1YPifqeJp8TgjWfff5e/h27ODKpNgag/pY+ryJRM0sJNui4F8UsI6Fe+PO0sE6Gn8uxYmxIvUlEJ8wgdypU0WwygJ+njq1pnXbbdto5Mj9TsJUYI6JqsI9FAWMK0GIFCwImfJ8kLnNJVMC0QrHoUsX3qOIuk74uziK7CkvRedL5TdW+hrsyy/nxhX5eljw9p54IqzUEHU8TT7noYeSecYZ7BHxtiTL4hIvEC6UdMbf6PNzQb2BA/P0rACsW6HInqVErzT3YBY3MQ6kBDiunpm1cKEIVlnALw89VMtdteo/NHnyfidhKjGcdB06cA5W3u/oVHj43//y3+DvebKjKuoNN3B+EnK79GeRl6RCCxaB/U1q/XsbeU7w8pSo5AWkFjgrVpDZqFG+xwT5uFh0r1+f3GeeCY6grg1bkpQH5SjPyzrtNA6LcS/WgAGcS5Wfh4ffc134hKTQqHOnGlmwOnYkeuQR8p588qLA5AWpjG9XrqzqbNz4YHzs2E+jHnoqUwuw1bOnXxwwP9H43/94Pcs84QSyZ8/2N/0GvwM4bML2GSVmOGbU+RKpJz6qpTqvvppvBxz300+5bDRq3RdELPR9QZwSUybwv6D71FOcuoEwEX+TF9jD/OkncubODY8Zdb5UZrx161+8xx5723vppQGByQtSHd6aNZl2tWrjUdvdy/XAU5nhJESS5N1371PlIRFxJShcvgbhH/oDKoHKIVgqHHSV8GD9qCATOxQslIN+9lk+Zl5wP/iAPTouZJhwjLyo78uZNYtzznQuFQsWREgJc/zXX3lfIMLhvIAwFdUtUDk0HKsyRLblChVepqlTa9Krr1YMzF1QFmDFYmfhAadqAmkUtWhwCNe2LacO+DM1UYp8aO9k39/4gNjZ999PRgEWxkF9bmTWu6tX71OiJRHx994j++qruQ58oY49ZoxfAiYi3Nvf/eDnEDO8mChMPloqEbas7um5wMQFZQlKsEanumDpSZeb7D2kpXHteK4Xn08SZ17AOhTXlC9gdVZ9brNfP9Rh4tIseQFF8PjYgXBEHS+RoTfUty9XrNhfw9UoxJV35f7735xXFvWGNJFR15AKDGz5RfWveFdlDWVNsDChw/9GgqUSDnvFCn87Sj5JnHkBdczRIUYX2Is6fyL1uTl/64EH8hesrVt5EzLe/vFn9sNQsOrX5zrw+XlveQHlYlA3H30OeWMzUjgSjq2vvyDXk6wUwSrDsCpUGB2vWDHlBIsnFLYVodGB8haw2IySM0gncK67jvfywQtBe6n4hx9yvlFUisP+gL11KMhX0NZU4YTv2pWz7rEGlhec117j3C7uSJNwjLwYHrtSJX4LiNpfhQVEDm9AuZP0mjWc/uHMns17MVFbHtdj9e/PFR3QLESfM+p6kpWEFI+KFUWwyiKMevVGe3XrEgWVDKIMIBnJEwkhDUqljBnDW27cf/zDXzxHjlIwQYsKvYjtzJnzh2dTAIYTHAv+s2ZxkmpecJ9/nnOldIZ51PGiyNfSoQO/LCiK15gIvd6FmvnI2XL+8hey5s4ls0ePpGqDXxDq6yQ0NKlXTwSrLMLo3Xu0pzwUCnbn5zaCZKWeSMhNsk46iZynnsrXmykskDaATHWEXkUSrCOOIHvCBE7OzAvu2rVkduwY1kWPOl4UcS2ooeW+8EKRvKz8gF6QFl4EwLtKWOOKuo5ko75OyspCSC6CVRZhnXfeaHQWIeVlFXRSJgvDydSggd/X8PrryV25kl/rHyi4usPmzZxZXhjBCv82M5OskSPz3NMIuCpk5eawShgKM/b8t02bkr14cbHcK0QPqRsOmp6OH++Xl1bnSBWh0tRjSCeeiGqqL1Lv3iJYZQ3utGmjaeJEooYNCzVpkomYWLh2vv4WLXjtKP7BB+T98EOObtKFASaxpcLBvFrI50X9t6B18smcoJkXnLvuytFgNOp4UeS/r12bzPPP57WowoLDQITNKCnz1Vf8YoHTHNRxMYaFuZZkYihY6kvGvvrql0SwyiDc+++/hFCSpWXLlBYsTZSCwfYVE1UKlIfjvP12kdIZuJuNbmShj10AJl6L1aULb3DOC878+Tn+Pup4UeS/T0/nNSb34YeDoxUcvGb1zTd+X8FWrcho3NjvzqyPHZwn1RgKFlp73XPPWyJYZRD2qlVdvYUL73Lq1fsqmVt+FZR6wrGnoCa0iS0yCxdy8ihvhvbnbL7gCf3pp7wpuagizp/r2DFfwbJVCIa/K8o59OecRYv8FwT7eQPKXhUy4dGc45FH/HZoxx3Hx0hlkUpk2Nrr3HOftR9++BKaNatCYOaCsgb1oF9NtdSG/VFPalQKtYYM4YqjvKk5OzvfN4moEopQy2jevMgTGZ+zVDiJsDQvYM2oqGKhP4eW/XlVNmWRCt52cruud98le/r0MGsfYxN17FSltl91b7J/sCxDPeh09aBfK2uCpSc1EyGPChNRdQFlZVwkkvrzeh8gNcJZudJPPA2OVVjicyxYKrTMC7pSRFHOoT9njx9PrvKa8tqmEzcMctGtefRoToBFuMzhZPD5qGOnKhPsd1Bg2oKyCC8Wy1QP+Y2yJliJ1BOUJ2uHDlwR1Fm9mnO3ci/MoziePXUqb5kpqheCz1nt21P8o4/844N79/obrEHU2Jo5M/QCo46RH/XnIMBodaa36bBXpYgif87zz3PTCeuMM7iwYVkUqUQm2O+wwLQFZRHlQbASqSc7ShObl17K9aTiu3eHJVucjRv9NldBpnfUMfZH/hzeWD72GO8ZZL71Fm9aRhstF1nuf/5zkUVEf87QbbtUWIgwN45MdmzYvuceMnr14jy1oghiKlIEq5ygvAlWONnhbdWrx4vj2NPnrFvHoRWnGyDLO0icjDrG/sifQwuyVq3IgkcHHnusT/x/5X3psjJFOYf+HPYCop5X/KefKP7xx9ytB4m06I5dkIKDZYkiWOUEECxl1OVGsBKJyczeVp06ZKKGlfJMuHJn8LuozxSU+hj5MepzhSEfQ4ku3hZyGJuinZqLg7Df4L5FsMoyEj2s8mrsoL73VLv/xOtOtWsvDur71l+4e0Wwyja8Ro0yVVj0BgUNPcuj0YP63lPt/hOvO9WuvTio75uQ/d+tG+3t2VMEqyzD694907rggjeob99wQTrKMITCZKS2WWre3E/fmDhRBKsswxsxItO84YY3aNQoESxhyjEULLzgQKWJWbNEsMoyvIULM+3ly3fQVVeJYAlTjqFgHXcc0bJl6Iw9PDBtQVkEzZqVYa1duzQ+fvxH5XEN5GBRr63kx6jPCQtHPY7xtm1/dFaseMNev/74wLQFZRXe4sWVrapVz8aD9wIDEB4Yc4tTFKM+JywcMY6wWSstbQOiBdn0XE6gHv5gSz348piPlR+1sCQKTV7U4Qn+P6p2otuO2bAhF9zjOulHHkkmyrkgYbVWLb+bc8JnCsLc1yf0bVaN4brAlAXlAerBDy/vgpWXQKAuFrrbcNOLRo3IxLYeCFDr1mRlZZHVrp2fvX7ssUxkn9uogjp6NNmXXkr2FVdwYqc9ZQrZl13GDR/sc88la+hQso47zv8MqI5htW3LNeGRJY/tPShzg6qqZt26ZKKtfFB/P4q576e8MMghfDYwZUF5gHrwIlgBc3hK8IS6dyfzggvIvukmspcs8TdOv/wyl2zBlhhuib9rF9e/YqJLz6+/clVP5p493JCC/wXxM/z+l1+4Kil/BhVSv/mG4p99xhuwUeLG2bSJ24XZ8+eTNXkymYMG8f5BA8KVcI2aUfdUHiiCVQ6hHvxw/fATjaGsMnGih+KkvBtszUHZFhvtwm6/ndzly7ntvPvXv3L1BW4FD3H6/Xdu+64rJBQX+Hi6jpUSNYghOtq4773HhQjRZt65/36up8Xtuf78Zy7HjL2JiULL91NOCJtV9y2CVZ5gZmQMtzIyiFKsW0phqO+L761yZT/MQsiFWlmdO5OlPCh4New1oRyMryFJi7jyylAJAlUhOGkSHWOwToZ1s4Q2XeE9lzHqe+I2dZUri2CVJyhjH261akUUhBtl1cC1F4KCdvYNN/iVSNG04quv/FAOQhWUmkl2weLKqai1hXDz+++5V2EcoeSKFX75GjQVDe67rD5P/EvNmpGRlSWCVZ6wt3//4Vgs1i2/eFKXAerJysatRMq66CIO99xVq1ioEHYluzAVFDqcjH/9NdfcQqMLrH1hcR9vLHOMRRkg22haGlHXrmQNHCiCVZ5gjh073D7vPCIVIpUFow7vAXWh6tXjll021qQ+/bTMCFRBEP/9d3JeeAG9+jj0NQ49lLIPoNZXMpHvQd0L4W3r2LEiWOUJ5sKFwx0VIhHeQmljSGFqL9EaPpzcdet8ocIbOYR7wWQuD+DQFi8I4HW98w6XTTZSsHFuFEPBmjCBrDvuEMEqT3DXrBlFDz1E1LlzONmjjCSZqYWWDbltW7Ivv5zczZv9FIJgApdnYAzwxhGtz7jWe4qHiWyj6elEc+aQvWbNS4EpC8oDnM2bT42vXPmj17GjlWoGnGPSVazISZ3ImcKitCAaqC9vKu+TSzWjXLQevxQiX3N6uufdfPNuZ+PGRwNTFpQH0JYtNa3lyztaVau+EQ+MIcpIkpF6shkZGWR26OB3kvn2W/Gq8gH6M7r//S/ZSEgNejCm0jMHAzu13JNOGkPPP98sMGVBeYIViz2dSsmjoVgpohegc999nEEu2D8g6EiIxdYhzuhPSwvHMmqsk41BhruhbLZTYL6C8gRlABXUw9+USoLF6xhqopmHHUbOzJn+TBQUCvFt28jq35/M6tVTav0yECzTicVOCkxYUJ6QsoKlQkH7qqsovn17MAUFhQH6Mrrox5hiL1xEsMo5UlWwjMqVyXn6aU5ZEBQeCA2xKRu5WonVIKLGO5kIO1XPXwSrvAKCpQw1FKxkNlo9qfgaVSgTf+MNf/YJigxn2jS/hpcKsZPZy9LPHXZqpKWJYJVXsGC1b78JHUi0YeQ2lmShNlqUWjF796b4++8H005QVDhLl3JYmDKChTyyjh1Np3NnEazyCAiWNWrUJjrxRDaMVDBaFqwTTqD4jh3BtBMUFc4dd5CJQoRJLli4NpBQmWLkSNO54AIRrPIIFqyrr95EZ5wRGkZuY0kWhoKF/1aiJSHhgcO5/HK/tLMa05QQrDZtyJwwwXSmTBHBKo+AYDlLlrxOSCYMjCK3sSQbcY286P7UU1z0TlB48KL77t1kjRiRErlYoWD16EG0cCE599xzcmDCgvIEJVhpziOPzPXGj9+hDNazAgNJZrKo6rQGCQuLBE5r2LCBzOOOC8UgaqyThRBT2Ga8Q4dv7bvvfsFaufLYwIQF5Q306qsV92ZmDlNG4aZCyy+eXEgcrV+fnBtvDKagoDCIv/su6kmRWaNGyggWbFN5g4+hr6a6hbTAfAXlEb/FYn2UUTjK44o0mGQijJepRMvq1o2c5cu5OoNg/+CtOVu3clULdAUyUqg8NmxTCeuKwGQF5Rm/x2KDldG6qSBYYChaqNPeqxc5Tz7JHWhk83Pe4M3P//kPtx5DO7FUESpN2Ka63pWByQrKM1JVsDiUQXmZ1q3Jnj2bu9oIooHmFebIkdzUVY+dHseoMU42imAJQqSCYIWT6/DDyTrxRLIw+Tp1Cn9utGlD1sUXk/vcc36ThmCilmdgDNCowpk7l8yhQ7mAHwtVrVpknnceWcOG+U1cgzeFUeOeLBTBEoTYnZ4+ODs93SUsZucylGQhJhp7VC1bcqMFZ8MGsufNI6NhQ8pW161/j1f17lNPcfjDDUuDXoLlBbhXhH/ob8glkhct4soWenwM9f+ts84i5803yb77bjIHDOCywzy2SUxKT6e96ekiWAIlWPXrD84+/HCX0KI9wliSgXrCoY07OuGgGF38++/JvvdeMho3/mNC4h7Q6r1PH3LU7+Jfflm+BMu2ubqoNXEiZ7HDm4L3xGOjyOkg//oXtwuz77mHzC5dUkOwatemvfXqiWAJVEjYufNg49hjXRgFh1e5jCUZGF5X/frcRh4dmSFE7hdfcGdkS/3MbNWK/4bFS01CvEXkNl/TppGDNl8ff+w3aPDndsqDvSlFdKZ233iDHOVNoaIoGnFAtEMRb9SIzDPOIOfmmyn+979zowrAUR6W0bEjC1YyPnOQr0t50NS6NRmdO4tgCWIxc+TIweawYS5afmkjjzKe0mQoWEccweIU//e/edLpSet+8AELEzbzcrOFoGxKeD/Kk7DnziUXnZ6jGqny0ZIbXjzuN1Lds+ePRqroBL1yJa/fGTVr+gKF+8W6FNaqmjUja8IEcl55JTjKH3Duusvf/JzEgsXPDo0n0J7/rLNEsARKsK67brB55ZUuZWX9McGTjPsTLGzTwZqV+49/kI0qBCecEHZC5kms/r8BD1J9Hq/1rb59yb71Vu7hF//ss5R4w4gmsO727ewtQoQ4nENfSbTgRz9Gfa8Yp+OOIxselQoP40j5yM4OjvIHUkaw1JcPjRtH5pw5IlgCJVjLlw8jNcmpZ89wgkcZT2kyh2BdeCHF//OfYNrlBMQrrsJEd+1asmfN4r81UY2iWrXw3sLJ2bYtWaeeSpaaDBw2LlhA7qOPsheGdSCIIo4Vx+I9BDE4PlhcCI8J70l5TujiDAGFMLlbtvALBOeBBzir37rySrLwdu+kkzg9Qd8P31NmJpnoiHzOOWRffTU56j54rSo4fhScJUtSQ7AqVyZS4ms/8siTgckKyjOMZ57p5yxf/o3XvbsRCkOSMbyu/QhWIiAC8U8/Jefhh8n605/IqF+fOyGjACAmgT5mOOnVNzm/5h8wgKxLLyV7/nyy77uPnHXrKP7WW+Tu2MHn5fUzeC0qLPN++MFv2Irw8pdf/J6Iu3f7YRv+xX+D+B3+BuKHz333HXf6wbHcDz/k7TKu8vZwrfbixWRNn07WmWdyYizWoPR1huNQsSKX2uH7Oeoovj+89XPff7/AIW4qCBbfb0ZG3Lvppp+tdeuWBiYrKM+gtWurWcuWZVk1ajyXrC2/wolaGMECMXmVULAwvPceOevXk33bbX4r9yOP5GOGgqWJZNQaNdiLMRs2JLNpU7KUKJhHH01W69ZkKVGzUOqkQwcyVWiJJqW2ClNtJXJIubCvvZbsG24ge+ZMsqZMIeuyy8geM4bTCaxBg8js3p0sFX4zIZCtWpHVsiW33zIbN/bPi/WnjIw/rkkxvEaMAQQKIe2GDXxfLKIQQ6xxBfe+P6SCYMEezbS0393evc/21qxpGJisQKBCw1jsoWRNHtWTtjCClRs8kdWERkqE++KLvIYDcbEgJiNHkoWcJKwLYetKlSr7Clkuhr9XEx4hJ8oNG0ipaNKEvR7u/6cEj9eYatbkrUT6c7mPtc/P8fcoWHfccWSdcgrnl2Htzp40iezbb+dqC3F1H1qgioJUEKzAHnfvicXaBGYqEPhQhrG6LAtWXsCk53Wj117DOgnZWC869VQWH37TBm8LYSREqWpVv+gd1oyQ84X9jGjoinAyPZ3Jm4ohYvhveGv4HYi/w9/jczgGjoVjgur4Bs6jhMpEOoYSJ0tdB94Auq+/7ifCqtCyOJFCgrVnbyzWPTBTgcCHMozyKVggQsfffqP4Dz9wlnj8o484ZQBv2dxXXuF1LOexx8hetoychQv9kO/qqznvyR4/nqzzzyfr9NPJHDKEzMGDyRw2jPOhbCyCKw/OHjuWF/c5PJw2jexbbuG3mc6DD5K7ejVvKYorwYxv3cr16uOffMLXwWEethoFi/7FCREsQUpDGUa5FKz9gQUNW3x+/91/Y/jll/wGzv3733lTsfvmm+Rs2cLrYyxsTz5JzjPPkLNxI4ee8Nw4sROEAGLxHpn6aK+PBfns7GIXo4IgVQRLXZsIlmBfGGlpq/V+wmQzYL1ehEz3xDwsQdHBeVidOnGSKY9tElF/QfEXaFrant0iWILcMNq2Xc2dSZAlHRhOsjAUrHr1RLCKCc7ixWRia04yC1bt2mS2abNnd+vWIliCnDBPO2019erFIUKyGrCBxe8TT5S+hMUAe/p03jiuxzZq3EuL+guKsLVo8OA9e089VQRLkBP2+PGrCTWS8KYrwXiSiXxd1aTNV3HAHj48KcUK1NeF1l72hRfuUbYpgiXICXv+/A2Eet8VKyadh6WJ6+I2X+vWSZuvIsJzXV7wR96Z9mSixro0qa8LHj/Nno1k316BmQoEPtwHHpjmTZjwNyM93U3Wll88udDma/Jkiv/jH8EUFBQGqCOG5h1mu3ZJK1jwrri1V6dOO9077niW7r+/dWCmAoEPmjWrQnbFir2VsexN1pZfPLnwJrNePXJuuCGYgoLCAPle2BakPelkFCyQbTAt7X5llxUDExUIcuL3WKyTEqzfkz0fi7+Bu3b123z98kswFQX5AbleqACBPDZk3ieOZdRYlybhXQU2uCQwTYFgX6hv217KgPcmm2CFEwsTrVo1/7+x1aVnT3LWrvVrPvnzUhABZMujyKF50UW8t5HHD9uLsEVIj20SMUGw7gtMUyDYF0kvWNjfd/zxPOk4lMF+vWOP5VIwsgifN5Btbw4cyPsVeSyxZ7FzZzJQcUKPbRJRBEtQICSrYEGcWKCOPNKvWjBnDlmnncY/483G7dpxqIMqBlyHKpio5Rmo3e7+85+8mdvs35/FisewYUMeP+yFNFEMMAkTR0WwBAXCHiVYyniT18Nq3pysyy/n6gXYr2e0bJmjFDI2IDtPPEEuGk5g35/rlivxwr2iTj3qYzkvv0zW9deHQgWiiCHKK7sqhMbGa3QXSsa9hCJYggIh6QULm5/R5gvVDLKzyXnxRe78HE5IlG9Rf2P260fOihXlbm2L63299RZ7oajJhfW+cGwU0SGbx0QJObrmoN6WCJYgZZF9xBG9jHr19lJm5h8ikQQMr0W3+VKCBSGKYzF59Wou32KgYJ76G56gqEPVvTvZF1/sd8vZuJHrsyNMKisCxt6UYvznn7kGvXPPPdx3EKGyXuNjoULdrVNOIUeFgSibo+8f1RoMbH5OMsHCtVjqmkg96+wmTUSwBHnDHjiwlwoT9hI6KivDAaOMqqQZChY8rIjNz+g5iPLE3L7+8MO5PjtPVlBNWBTkQ3UCFMPDZ72vv/ZLuxhGyoSNLLao24Xeirt2cdHBOMo+qxDYmjTJr3Cq7jcUKiyso/rpn/5EzuOPB0f5A8naNQfXbqnnR2gecuqpIliCvGFPndrLnDx5Lx17bGj4UUZV0tyfYPFE/vFHrm9uo84T2nxlZPxxDyhPjDZf8NDQLWfUKLIffJCcbdsojoYQwXGSGfG9e8lV9+089xx30GGxweZllGBGxdLgXnms0MpMiRgaW7BnqUQuN5JasJSHTyr0N2fMEMES5A377rt704IFRGrCh5M9CZhDsPIp4Mch0v/+R+6aNVwVFI0fzDZtwsmsJzSXIu7dm6xzz+WJjb917riDXOWJsBf2z3/6Hgy64qDA3kEMJXFcJqqK7t7tVzxFgcCtW8lFUUBUOZ09m6xrrvHrz2ODerNm4ZiE96Q8S/Pkk8lGVVMVHiJM5EaxfJZ9kawF/HA/drVqRLNmoSrrI4FpCgT7wn7gga7KQ/ks3qPHXj0hooyqpBley34EKxGoEooyNGgoaiJ3q1499rJQ7YEbqwbHDIUMddeVZ4nef+h4AwFzlPC5L7/sl0tWQsjtvUAVkvFbyMTWXiDae0URv9PtvvA5fB7HQR9CVDBV18m12zduZIHiuvJoHtqnj9+eTF9jArmufK1avoeFdA/lkThPPeW3EwvGID8kq2DxtRxyiOvdcMP3zsMPzwtMUyDYF97ChZnevfe2NKpXX8ctlpKE4SQtjGCB6CqDtu5oMvHuu+SgyQTyjxAyquPlFgE+B4QAwoZ2W40acZsvCALafKElF7flUkJi/fnPfhsv1HdHjfbbbyf7zjvJRjeepUt9Ll5MNmrAo7XYTTeRhS49o0eT1b8/We3a+cfDcVUIx22+sOak7hEdeHILKxiKK1qPQaDgFb70Eo8Ht9+HOKIpqz8E+SJZBSto7fWj16/fEG/16nqBaQoEeUNNinvwWhmvl6OMqqSpJ2xhBCs3WMBUiIda7FiEdqZN45wkWx0PtaHQvh4VDHitS50rFIcEJv6MBQWChpZe6C/Yvr1fwRMigHZhIP6/8tqwbsbChNbyaOGVcDz9//f5GbrrIO+sRw+yhg7lhhbcyOKKK/wXCGhaAa/Pdf0bLCSSVbCCdIZv98ZijQJzFAjyh5o0K8qaYEUBa1NxvHHbsYPDMVt5LPCAkJ/EwoXOymj1hTWvxFZf8MKQ81Wxot/SCxUkgtLSUeTfQRiwlQh7IPF53eYLx9UtvhDi4ZzNmnHnHQ5N0T7/rbf8Zqn5rEkVFkkuWLuU7WUF5igQ5I9yI1ggQiikN2CN6bvv/MX2Dz7gEJJbfGFdac0actC2ft48crAYHHhnFtrJDxlC1sknk6XCTPQUNJRnZUDwkJQJL+v44zmExF4+pBhAEG0VStrXX0/O3LlcW537Dz7zDL/Vw2I7an1xmIdWX2iFj1QGdO4Jrrk4IIIlKDNQ7ni5EKz8oMWB3xDiTSHE7NNP/Td427eT+9e/cj9BLHS72A6kPCFsd7GXLw+J8jdYN3NXrfLbf61fzyLILcI+/NDv3gxRglgWsyDtD8ksWOp6RLAEBUd2WtoKtPyCYCWDMWNdB2TBisjDEhQeYZsvJVg8tqVM/aXEHlZamgiWoODIbtlyBTVuzFskkk6wVEhVEh5WWYezdGm4lzCpBAtreC1a7LJatBDBEhQMZt++K0gZs5UkDSm0MRtYAO/fn9eYBAcG5HoZSEANXhZEjXtJUn8pUZMmZPXuvcvq00cES1AwmOecs4IGDCArIyMpjFkTBm0oLwvrR1hbEhQevCanaJ1/figSUWNd0tRfSmjtZY0cueu3s84SwRIUDOa1166g884jq0qV5BOsatV4sVvkqmjghf1ff+UtPkkpWN26YSP7rt8mTxbBEhQM9n33raTp08k65JCkMWiQr0V5fchPkoX3oiH+yy/kPvkkL7gnk2Dpa6GBA8lZtGi3deedbQNzFAjyh7Nx44PYBG0pbyZZDBrka6lQgbPLndtuC6agoDCIq3DaQumWqlVDkYga65KmvhYaMQKb17/31q8XD0tQMNgvvNDVveSS6WbFinvcBKMqbeqwgTcq9+1LzrPPUjyidIpgXyAUdP/2N7JRmkY3owgYNdalQdiam5W13nnmmT95mzfXCMxRINg/lCEfpYzo+yDzuFQZTiy0+VJhKv+3mnTW8OHkPP+8XwHBn5eCCKB0Derg21On8oZrHj+IPrYI6bEtZdqKQdLojYEJCgQFhxWLdVKG9ENSCRaqiXbowBuDOZRRk84aNIic1atFsPIBsvOtSy/ljjkYR4ydceSRZLRuHY5v7jEvaSYI1m2BCQoEBYcyoM7KkH5MBsHS6xtcveCcc8hGmZb+/f2JB08L9dsnTyb3jTcKXF6lrANjgFpb2P+Iag9G48b+eNWrx+WkWcCw/zEtOdp8JQiW1MASFB4QLGU8SSFY8ADYC0ChOrT5Qi3zxx7jUsD6d6B1ySXkYAPxZ5/5taGCiVtewPerwr/4119zxVFUn0BJGy34qHdvjxnjl1q+/35eB0yWvYRasPaKYAmKgqQULGzNQZsvbEL+7TdyVq3i4nfhhEQNKdQzV8KFwnZc5cCfy+UCXC7nv//lYoFmjx5+W//Ag8L4oXghGnZgozW67CRTmy8RLMEBwa5Zs7NZq9aPhAYOypBK06jD8+s2X/Cg1ARFAwnn4YfJOvtsLowXClfDhmQNGEA26rUvW0buO+/4FRH8eV2mgAYc7kcfcQkce9YsrmNvtGlD2cGWGx63rl3JueEG9kx1wT/sJUyWNl84v62ug+rUQUloESxB4bG3U6fOVufOP3J/OGVQYJSxlQTDiZerWgOHQIrum2+SjYYTxxzDBfBC4QLbtiVbhZFcn337dr8QHppLHIQaUwcTfJ1oSYbaXajb/tVXPA4IgdEgleu/J+RWcVNZVEQ94QQu3cwlcvxDMZKpaw6u187IIFLCavXrJ4IlKDz2Xn55Z2vcuB+pQ4dwEkQZW0lwf4LFtdtR/vi117jOOjZJ86QFlaeBJEnjsMN4wdmE53XrrTzRuQVWCvUljH/7LXuL9v33c10w7kWIJhSoWIqUD3W/4bM6+WSuVspNZ7Gehz2EwbGApBMs9YzonHPImDRJBEtQeNi33dbVmT3bJvXNHU6CUmIOwcqngB+8D3fbNq7iiXDQQpVPNaETJ7KBrtDt23NzVXSMtq+5huybbuJie1xcT3th8GLQeis49sEGCy9EZfduisN7UmEexAnbaBx1fcihslHldNQoMnv2zHFfPD7Iq+rYkQUdlRhQwRQCl9f1J1MBP9yDo0J63g42f/7iwAQFgoLDu+++du4dd7zv9e69hydEgoGVNMPz70ewEsEe1/r1vEjPzSV0m6+ENTkwFLJmzThlwpo2jZuxQiggYOiu7KEy6M6df7T4QkiJ0sVo2wXvBeEl6q3nRfz+t9/8dl8QQiS6fv89eRAUVBxFWWZUINW9CB94gMM8lGHmFmX6GhOJ+vDIWIeHhW47SpztBQtytKPPD8kkWDi/VaOG482c+Y17773TAxMUCAoOb/Hiysbttze3a9RYgdZLpVkuWU/SQgkW8rEgEkpkuEb75s3kLFxI1ogRnJOE4+UWARNvGdEMAiLQoIHfWRkNIdDmS4XGVr9+vMBvonsNGpvedptfChle0LPPcgnkSD71FNkqPMNaknX99WTC+0NIN2iQ31UHnXfQ5gstxRo29FuMQVwRyiYsnofiiuvs0YNry7urV1P87bf9DjoQ0QJ6hckkWNzaq0KFb5y+ffvsXrLksMAEBYLCQxnzXLxuxmvnKGMrCeoJWxjBSgSHWypc5P6EL7zAk9W59lqyL7mEQywkoUKQ2AsLzqXFIbeo8dYg9A2EV5OVxcLBTSiUh4Os+0ji+L17+23AkDuGt51KGBPPo4+f43zoqgMxO/FEstDAQt07v0C45RbO7o+r8JVFKrjHwiCZBCtInfliTyxWJzA7gaBoUMa8KNUFKy8gREMzCGfTJt/7wRqR8qLQQxCixCEkSvbC60I7LiVW3N4LhQ2xFpbg/RSUJkI5rDepY/BePogSFs1RTVWdCy8H+O1e9+6cooA2+vaqVX43HTRL9QorTdFIQsHaqa6jRWB2AkHRoIyo7AoWFrnxhhFrS+hPiLbx6tjcp1B3xUHHm3vuYa+G23NdfDGvdaFvoAWvqX177sSMLHLu2IxwUhP/jbeTCC/R5RkiBI/rzDO5c7R92WXkoN3XokXcccdFB55XX6X43//O+/843wzrZlj3wlpYMb7RFMESlEmoEKXMClZ+4DAL62C//spbXZBKwe25XnuN3Bdf5DUrrB9hi4utBIdTJdBnMDchdPPnc6Imklzddet4Pc19+WXfa/rgAz+9AgvxyLHyT3/QkWyCpa5BBEtw4FBGtAgtvyBYpWXYep2HBUvafBULkqHNF+wJZA8rLU0ES3DgUOHMIsKm2VL8Js4hWCXkYZV1JHpYpS5YWMNr2HCnUbeuCJbgwGB16bKIsrLILsWWX9qwsV/QHDyYc5YEBwbkeZV2my/9RUSNGpHVqdPOX7OyRLAEBwbjtNMWIdvdDhIuowyvpAjjNlq29DczF9PbsvIGXptTY2eNG0fZ6eml9iUE6i8iOuYY1OzaaQwcKIIlODAYEycuIrxez8xMDsGqVYsXvUWuigYWrN9/5/LS2sOJGuuSYChYxx9P1qRJO41Jk0SwBAcGa9GiJTRtGjnVq5eqcYN8/owMcm69lVMQBIUH6ogheRYlZ0pbsPT56bTTsAvhe2/p0qMCsxMIigZn3bpFaPllK8+mtD0sPn/FimT16sWblQWFR/wf/+CEVL15ujSfqT4/nX02Kkvs9B5/XDwswYHBWr++vTtp0iSjUqWfS7vlFxs4Fomx+K6+ld3XX+fcJcH+gVAQ1UjtOXN4ryIy9UtbsJAqA5ty2rZd5Tz++CBv5cqqgdkJBEXHb7FYPWXYXwUZyaVKPcmwHw8Lxyjep+u3C6KBDHmE0PbChVyaprSFShNiFdjU5MDUBIIDhzKoo5WBf51UgqU8LW7zNXo0l4ERwcobyKS3b7uNN1IbQT5dkgmWlJQRFB+UQbVSBv5NMgiWZihcqN/evz8XrcM2F34L5s/Tcg0eh+xsch98kPc+GigfnQRhYCITBGtGYGoCwYFDGVTSCRYYihbYoAE3YUA7duz9Q12o8ggWqp9+8htTrF1L1gkn8PjgbRz+jRrH0qIIluCgQBlU8gsWQh2Ua2nThuy5c8vtfkPkWDkrV5KJ5qlo85XgVYFR41haFMESHBQog2qlvqGTTrByM5yUbdtyZVFU5OSqCp9+GnbIKWvAPXFzitde48apWNPjhfUgDSXZRCqRLFhp3DdRBEtQfDAPO6yVcfjh31PVquQExpbMEwHXxiEQFuaHDfPLuzz/PLko5YIa6qjFjjpY/pxPGXC4Z9v+W9HvvuM0BbTntx94gKyLL+a9gbhvMGpckoFaRJHSQJUqEaE0dKtW1wWmJhAcOMzp01ubV165m3r10i580guWJlcIRbMGVBBt3ZonNoryuTt2cFG8VAJ7U599Rs5zz3ElUqt7d24ui7w0Lt2cnv7HfScp9fWhjjsddhgRmt3OmDErMDWB4MDhLVxY27799su9AQNmqFBjgXnSSTY2rEK80JwiFSaIJsoPW336cDMJro+uJj4K6zkvvcRZ4HG0wUeFT1Qj9XWiRMDeE4iigcqDgifIzTNef50Xzx3lJaLVPEI+a/Bgv558Eq9PJVJfH+yFlLhS374I27e4derM8GbOnGEvXtwzMDWBoHih5lR1e+7cv3hDhnyuQq4vsw891HWqVWMXH9QClqwTSF8byGEj2K4dmSNHko3GFAsXcpfo+FtvcZMHLN576FOIUFKFYVwZFCElyirrFl/oqrw/osSxbvWFtvloHoHj4bhffOGXZt62jeIqxONWX6hkitbzWJPCm77Ers4JjLrH0qa+Lm0Tjgr9HJSKrlLlx3jDhp9706d/7i5bdnZgUgLBwYMSrDRv3rwGNHhwU7tbt87OLbd8RWee6X97Bkz2ybQP0RRCCQI3gkATCHS1QbsttPlCdxy030JFgfPO4zZdWNzm3oGPPkrOxo1+A1bw1VejuWULh3EQQvuhh8i++25u3mqNGUPKW/WbXuAc6nx83iOO8GvCowEGml9UqRJ93YpR91jaxHXpN4DMI48kmj0bTWtnePXrN6WZM5vS0qXVApMSCEoO7oYNE7xx4+YoI/VZtepmqlPHX1ANjDdZJ1Yi9XXmZujRYAEfIqJCYbNLF96AbSK0HDKErDPO8Dl8eDRPP507TVunnOK3++rRg99kQphypx3kxahrTibiGkORUmGfVavW18rbnqt+Psdr3XqO9+CDc+jzz1sHZiMQJAfM9u2Hxo8+epeXmbnLqFDhV6tyZS6vnOyhYkGor784GXWeVGDi9ePZ2hkZlF2pkqX+e5fXuPEus02bRwKTEAiSF9SmTTXvmGOyvEqVsszu3a+kQYOIlCeRSt5WXtTXX5yMOk8qUF8/v+1TX0h4g2z27/+WEq8sJVhZ2VlZjQOTEAhSA3THHc3Mc89d4jVtusSoX38TdetGpMIqiJc2+twTQZi8zCFS6elEHTqQEqb/mWlpS7zBg5dkT5hwfvDoBYLUhrd8eQ/7uuu+p/btf8muUOE3o0oVsipWjJwQiT8Tlh5zPwuEfpZ6bgj9rIyMX+jSS39xFiy4I3jEAkHZgbdzZ6Y1Z04n6tSpszF06MU0fTqxx6UmgaYIVnIRz4Iz0jWrVyeaPJmsyZM32pUqdaYpUzp7Dz4ooZ+gbMNTgWF89er7vP79V+6NxZjGIYf8F/3psLcMIYeIV+kQYw5PigUKjUdq1IhbFSo8jWdk1qy50rvzzpXum2+eGTxKgaB8wjnmmJu9I480rfR0MzstzUGDz8RJJOJ18JhjbLEZuUIFLzsWM726dU2jdet/e61bHxE8JoFAAGR37NiUWrQ4yUlPP8ns3v0J6t2bsNlaQsWDT4xtGPphy0/v3j/trVnzDKpX7yT7mGO6BY9IIBBEwbzqqqE0YsSTbo0aTxpHHPEh71usUkVCxWJkDpFq0oSMo4/OVp7VeurZ80lrzJj5waMQCASFgT1nzuXeVVe5br16rgpT4ghZoiZf7p8J/2Be46PG01O/c70zznCdG29854drrqkeDLtAICgKsp95prE3a9Ywr0GDYfawYctp4kSiRo18z0AR20FEsPKnHh89ZkxsFxo79ou9GRnDvXPPHWYvXdorGHKBQFAc8N5//0RatuxFatXqReUdvKgm4UtG1ap79FoXQhwRL58YB9BT5H2dqAlWseI/MG4gTZnyorNhwy3B0AoEguIGKkXQrFkVlThpVrE6dXqZWrRIiUqoJUktWJyigKoP7dvHzXbtBoVj17t3RVq7Nj0YWoFAUBKwjz++l9e69VnKazjL6NjxQ2rXrtzmcul7VYJE1KABUc+eZDVuPNurU+csq0uXkXTmmTWDYRMIBKUN88ILZ9HJJ28109K2GnXr/oxN154SLx0qlkXx0vfE+/tU2Gc1akTZGRn/VGHzVvPcc1+hW29tFgyPQCBIJngDB1ZWoU61XbFYNWvatCfp4ouJMjLKvGCBLFg9eqBI3u/22LE9qW7dat5551VVIXSFYHgEAkGywl6xohdNmTLOrlx5nDVixDt07rmcy8XhkmIqLtBrcdL3wFQiZV14Ydxo3vxG6tNnnDV//p9J3WkwDAKBINVgb9062VuyZLtZvfr27Fhsu5WW9i8jMzPuVarEaRFaDHILRDJQixQEFuGth2axFSt+i/sAlRe13d2w4TklUrWC2xUIBKkMb+vWTHT++TUWY1oNGnQw27X7nho2ZC9FC0NusUgGasHikA8eIprEtm07W9+LN2JEbdqypSbeoAa3KxAIyhIwua3u3S/2mjS5xqhceY7Rrp1BzZolTaioRYpDvmrVuFCe0bTpRrdKlWu8Tp2usfr1axfcikAgKE9Q4pVhXXDBZq9bt0+y09I+M2rWtF0lEiWd16VFCoLpIlStXZuUmO6K16nzifKiPjGvuGJYcMkCgaA847ezzqrnde3aaM9RR7WxrrjiUxo6tMS9LS1Y7FWhLdbll5M9ZswUr3btRt7ppzfyrrwyM7hcgUAg8GEtXXqRd845s4z09Dnm0KHf00kn+SISUItLbsEpLHEMXpfSbNyYaORIMrKynvRat57l3nzzLO+tt1oElyUQCAT5w968+Qlv6tRvsmMxppGW9jPq0NtpaYVuW5b4t/DcbPQjTE839LFVSPqNvXLlN/b7758QnF4gEAgKDu/VVxt5113XSokM02jadAK1aUNUqxZ7RUURLPaqlODRUUeRdcwxL6nf8bG9nj1bmWvWtPI8T0I/gUBw4Mg+7bTG1nHHLfAOO2yRUaPGOmrdmjcW5xUq5hAptMVSImU0afKx8tQWeW3bLjJ79RoRHFogEAgOHqzLLjvWHDXq/5QI/YgO10aVKh7CRW6FpYnQ0W+LZVgZGT/SkCE/WmPGzA4OIRAIBCUDb/HiytY557TzWrY81urd+zz7kkuIjjvuj0V0EDlUo0eTOXr0E1alSsd6p59+7O+TJ0tDB4FAUHrAthhr4cI7vb59V2THYiHtGjVWeDNnrnDWrBkS/KlAIBAIBAKBQCAQCAQCgUAgEAgEAoFAIBAIBAKBQCAQCAQCgUAgEAgEAoFAIBAIBAKBQCAQCAQCgUAgEAgEAoFAIBAIBAKBQCAQCAQ5EIv9P22Pp2fs2tC4AAAAAElFTkSuQmCC;" vertex="1" parent="bqVkadd0tKrhda9ODERW-12">
          <mxGeometry x="27" y="98.48" width="115.47" height="101.52" as="geometry" />
        </mxCell>
        <mxCell id="bqVkadd0tKrhda9ODERW-27" style="edgeStyle=orthogonalEdgeStyle;rounded=0;orthogonalLoop=1;jettySize=auto;html=1;strokeColor=#808080;" edge="1" parent="bqVkadd0tKrhda9ODERW-12" source="bqVkadd0tKrhda9ODERW-6" target="bqVkadd0tKrhda9ODERW-14">
          <mxGeometry relative="1" as="geometry" />
        </mxCell>
        <mxCell id="bqVkadd0tKrhda9ODERW-6" value="Micro Servises" style="shape=image;verticalLabelPosition=bottom;labelBackgroundColor=#ffffff;verticalAlign=top;aspect=fixed;imageAspect=0;image=data:image/svg+xml,PHN2ZyB4bWxuczpkYz0iaHR0cDovL3B1cmwub3JnL2RjL2VsZW1lbnRzLzEuMS8iIHhtbG5zOmNjPSJodHRwOi8vY3JlYXRpdmVjb21tb25zLm9yZy9ucyMiIHhtbG5zOnJkZj0iaHR0cDovL3d3dy53My5vcmcvMTk5OS8wMi8yMi1yZGYtc3ludGF4LW5zIyIgeG1sbnM6c3ZnPSJodHRwOi8vd3d3LnczLm9yZy8yMDAwL3N2ZyIgeG1sbnM9Imh0dHA6Ly93d3cudzMub3JnLzIwMDAvc3ZnIiB4bWxuczp4bGluaz0iaHR0cDovL3d3dy53My5vcmcvMTk5OS94bGluayIgeG1sbnM6c29kaXBvZGk9Imh0dHA6Ly9zb2RpcG9kaS5zb3VyY2Vmb3JnZS5uZXQvRFREL3NvZGlwb2RpLTAuZHRkIiB4bWxuczppbmtzY2FwZT0iaHR0cDovL3d3dy5pbmtzY2FwZS5vcmcvbmFtZXNwYWNlcy9pbmtzY2FwZSIgdmVyc2lvbj0iMS4xIiBpZD0iTGF5ZXJfMSIgeD0iMHB4IiB5PSIwcHgiIHZpZXdCb3g9IjAgMCA0OS4yNTk5OTggNTYuNzU5OTk4IiB4bWw6c3BhY2U9InByZXNlcnZlIiBzb2RpcG9kaTpkb2NuYW1lPSJtaWNyb3NlcnZpY2VzLnN2ZyIgd2lkdGg9IjQ5LjI1OTk5OCIgaGVpZ2h0PSI1Ni43NTk5OTgiIGlua3NjYXBlOnZlcnNpb249IjAuOTIuMyAoMjQwNTU0NiwgMjAxOC0wMy0xMSkiPjxtZXRhZGF0YSBpZD0ibWV0YWRhdGEyNjU1MiI+PHJkZjpSREY+PGNjOldvcmsgcmRmOmFib3V0PSIiPjxkYzpmb3JtYXQ+aW1hZ2Uvc3ZnK3htbDwvZGM6Zm9ybWF0PjxkYzp0eXBlIHJkZjpyZXNvdXJjZT0iaHR0cDovL3B1cmwub3JnL2RjL2RjbWl0eXBlL1N0aWxsSW1hZ2UiLz48ZGM6dGl0bGUvPjwvY2M6V29yaz48L3JkZjpSREY+PC9tZXRhZGF0YT48ZGVmcyBpZD0iZGVmczI2NTUwIi8+PHNvZGlwb2RpOm5hbWVkdmlldyBwYWdlY29sb3I9IiNmZmZmZmYiIGJvcmRlcmNvbG9yPSIjNjY2NjY2IiBib3JkZXJvcGFjaXR5PSIxIiBvYmplY3R0b2xlcmFuY2U9IjEwIiBncmlkdG9sZXJhbmNlPSIxMCIgZ3VpZGV0b2xlcmFuY2U9IjEwIiBpbmtzY2FwZTpwYWdlb3BhY2l0eT0iMCIgaW5rc2NhcGU6cGFnZXNoYWRvdz0iMiIgaW5rc2NhcGU6d2luZG93LXdpZHRoPSIxOTIwIiBpbmtzY2FwZTp3aW5kb3ctaGVpZ2h0PSIxMDE3IiBpZD0ibmFtZWR2aWV3MjY1NDgiIHNob3dncmlkPSJmYWxzZSIgZml0LW1hcmdpbi10b3A9IjAiIGZpdC1tYXJnaW4tbGVmdD0iMCIgZml0LW1hcmdpbi1yaWdodD0iMCIgZml0LW1hcmdpbi1ib3R0b209IjAiIGlua3NjYXBlOnpvb209IjUuODI4Mjc0MSIgaW5rc2NhcGU6Y3g9IjIzLjA0MTIxMSIgaW5rc2NhcGU6Y3k9IjE3Ljk0Njg1NiIgaW5rc2NhcGU6d2luZG93LXg9Ii04IiBpbmtzY2FwZTp3aW5kb3cteT0iLTgiIGlua3NjYXBlOndpbmRvdy1tYXhpbWl6ZWQ9IjEiIGlua3NjYXBlOmN1cnJlbnQtbGF5ZXI9IkxheWVyXzEiLz4mI3hhOyYjeGE7PGcgaWQ9ImcyNjU0NSIgdHJhbnNmb3JtPSJ0cmFuc2xhdGUoLTYyLjM5LC05Mi4xNCkiPiYjeGE7CTxkZWZzIGlkPSJkZWZzMjY1MTAiPiYjeGE7CQk8cmVjdCBpZD0iU1ZHSURfM18iIHg9IjYyLjM4OTk5OSIgeT0iOTIuMTM5OTk5IiB3aWR0aD0iNTEiIGhlaWdodD0iNTkuNSIvPiYjeGE7CTwvZGVmcz4mI3hhOwk8Y2xpcFBhdGggaWQ9IlNWR0lEXzRfIj4mI3hhOwkJPHVzZSB4bGluazpocmVmPSIjU1ZHSURfM18iIHN0eWxlPSJvdmVyZmxvdzp2aXNpYmxlIiBpZD0idXNlMjY1MTIiIHg9IjAiIHk9IjAiIHdpZHRoPSIxMDAlIiBoZWlnaHQ9IjEwMCUiLz4mI3hhOwk8L2NsaXBQYXRoPiYjeGE7CTxnIGNsaXAtcGF0aD0idXJsKCNTVkdJRF80XykiIGlkPSJnMjY1NDMiPiYjeGE7CQk8ZGVmcyBpZD0iZGVmczI2NTE2Ij4mI3hhOwkJCTxyZWN0IGlkPSJTVkdJRF81XyIgeD0iNjIuMzg5OTk5IiB5PSI5Mi4xMzk5OTkiIHdpZHRoPSI1MSIgaGVpZ2h0PSI1OS41Ii8+JiN4YTsJCTwvZGVmcz4mI3hhOwkJPGNsaXBQYXRoIGlkPSJTVkdJRF82XyI+JiN4YTsJCQk8dXNlIHhsaW5rOmhyZWY9IiNTVkdJRF81XyIgc3R5bGU9Im92ZXJmbG93OnZpc2libGUiIGlkPSJ1c2UyNjUxOCIgeD0iMCIgeT0iMCIgd2lkdGg9IjEwMCUiIGhlaWdodD0iMTAwJSIvPiYjeGE7CQk8L2NsaXBQYXRoPiYjeGE7CQk8cGF0aCBzdHlsZT0iZmlsbDojOTdjMWQ0IiBkPSJtIDg3LjA0LDEyMy4yMiAyLjIyLDExLjIxIGMgMC4wOCwwLjQxIC0wLjE4LDAuOCAtMC41OSwwLjg4IC0wLjQxLDAuMDggLTAuOCwtMC4xOCAtMC44OCwtMC41OSBsIC0yLjIyLC0xMS4yMSBjIC0wLjA4LC0wLjQxIDAuMTgsLTAuOCAwLjU5LC0wLjg4IDAuNCwtMC4wOCAwLjgsMC4xOSAwLjg4LDAuNTkgeiIgY2xpcC1wYXRoPSJ1cmwoI1NWR0lEXzZfKSIgaWQ9InBhdGgyNjUyMSIgaW5rc2NhcGU6Y29ubmVjdG9yLWN1cnZhdHVyZT0iMCIvPiYjeGE7CQk8cGF0aCBzdHlsZT0iZmlsbDojOTdjMWQ0IiBkPSJtIDEwMi43NSwxMTUuMSB2IDguNjMgYyAwLDAuNDEgLTAuMzQsMC43NSAtMC43NSwwLjc1IC0wLjQxLDAgLTAuNzUsLTAuMzMgLTAuNzUsLTAuNzUgdiAtOC42MyBjIDAsLTAuNDEgMC4zNCwtMC43NSAwLjc1LC0wLjc1IDAuNDEsMCAwLjc1LDAuMzMgMC43NSwwLjc1IHoiIGNsaXAtcGF0aD0idXJsKCNTVkdJRF82XykiIGlkPSJwYXRoMjY1MjMiIGlua3NjYXBlOmNvbm5lY3Rvci1jdXJ2YXR1cmU9IjAiLz4mI3hhOwkJPHBhdGggc3R5bGU9ImZpbGw6Izk3YzFkNCIgZD0ibSA5MS4zMywxMTkuMDcgNi43MSw2Ljc3IGMgMC4yOSwwLjI5IDAuMjksMC43NyAwLDEuMDYgLTAuMjksMC4yOSAtMC43NywwLjI5IC0xLjA2LC0wLjAxIGwgLTYuNzEsLTYuNzcgYyAtMC4yOSwtMC4yOSAtMC4yOSwtMC43NyAwLC0xLjA2IDAuMjksLTAuMjkgMC43NywtMC4yOSAxLjA2LDAuMDEgeiIgY2xpcC1wYXRoPSJ1cmwoI1NWR0lEXzZfKSIgaWQ9InBhdGgyNjUyNSIgaW5rc2NhcGU6Y29ubmVjdG9yLWN1cnZhdHVyZT0iMCIvPiYjeGE7CQk8cGF0aCBzdHlsZT0iZmlsbDojOTdjMWQ0IiBkPSJtIDc3LjE3LDEyOC4xOSA1Ljk5LDkuNzcgYyAwLjIyLDAuMzUgMC4xMSwwLjgxIC0wLjI1LDEuMDMgLTAuMzUsMC4yMiAtMC44MSwwLjExIC0xLjAzLC0wLjI1IGwgLTUuOTksLTkuNzcgYyAtMC4yMiwtMC4zNSAtMC4xMSwtMC44MSAwLjI1LC0xLjAzIDAuMzYsLTAuMjEgMC44MiwtMC4xIDEuMDMsMC4yNSB6IiBjbGlwLXBhdGg9InVybCgjU1ZHSURfNl8pIiBpZD0icGF0aDI2NTI3IiBpbmtzY2FwZTpjb25uZWN0b3ItY3VydmF0dXJlPSIwIi8+JiN4YTsJCTxwb2x5Z29uIHN0eWxlPSJmaWxsOiMwMDc4ZDciIHBvaW50cz0iODAuOTEsMTA2Ljk1IDc2LjY1LDk5LjU3IDgwLjg1LDkyLjIgODkuMzYsOTIuMTQgOTMuNjcsOTkuNTEgODkuNDIsMTA2Ljg5ICIgY2xpcC1wYXRoPSJ1cmwoI1NWR0lEXzZfKSIgaWQ9InBvbHlnb24yNjUyOSIvPiYjeGE7CQk8cG9seWdvbiBzdHlsZT0iZmlsbDojMDA3OGQ3IiBwb2ludHM9IjY2LjcxLDExNS4xNiA2Mi4zOSwxMDcuODQgNjYuNjUsMTAwLjQxIDc1LjE2LDEwMC40MSA3OS40MSwxMDcuNzIgNzUuMjIsMTE1LjE2ICIgY2xpcC1wYXRoPSJ1cmwoI1NWR0lEXzZfKSIgaWQ9InBvbHlnb24yNjUzMSIvPiYjeGE7CQk8cG9seWdvbiBzdHlsZT0iZmlsbDojMDA3OGQ3IiBwb2ludHM9Ijk1LjE3LDExNS4xNiA5MC44NiwxMDcuODQgOTUuMTEsMTAwLjQxIDEwMy42MiwxMDAuNDEgMTA3Ljg4LDEwNy43MiAxMDMuNjgsMTE1LjE2ICIgY2xpcC1wYXRoPSJ1cmwoI1NWR0lEXzZfKSIgaWQ9InBvbHlnb24yNjUzMyIvPiYjeGE7CQk8cG9seWdvbiBzdHlsZT0iZmlsbDojMDA3OGQ3IiBwb2ludHM9IjY2LjcxLDEzMS42NCA2Mi4zOSwxMjQuMzMgNjYuNjUsMTE2LjkgNzUuMTYsMTE2LjkgNzkuNDEsMTI0LjIxIDc1LjIyLDEzMS42NCAiIGNsaXAtcGF0aD0idXJsKCNTVkdJRF82XykiIGlkPSJwb2x5Z29uMjY1MzUiLz4mI3hhOwkJPHBvbHlnb24gc3R5bGU9ImZpbGw6IzAwNzhkNyIgcG9pbnRzPSI4MC45MSwxMjMuNDMgNzYuNjUsMTE2LjA2IDgwLjg1LDEwOC42OCA4OS4zNiwxMDguNjIgOTMuNjcsMTE2IDg5LjQyLDEyMy4zNyAiIGNsaXAtcGF0aD0idXJsKCNTVkdJRF82XykiIGlkPSJwb2x5Z29uMjY1MzciLz4mI3hhOwkJPHBvbHlnb24gc3R5bGU9ImZpbGw6IzAwYTk5ZCIgcG9pbnRzPSI4NC42OCwxNDguOSA4MC4zNywxNDEuNTMgODQuNjIsMTM0LjE2IDkzLjEzLDEzNC4xIDk3LjM5LDE0MS40NyA5My4xOSwxNDguODQgIiBjbGlwLXBhdGg9InVybCgjU1ZHSURfNl8pIiBpZD0icG9seWdvbjI2NTM5Ii8+JiN4YTsJCTxwb2x5Z29uIHN0eWxlPSJmaWxsOiNmMTVhMjQiIHBvaW50cz0iOTguODksMTM2LjkyIDk0LjYzLDEyOS41NCA5OC44MywxMjIuMTcgMTA3LjM0LDEyMi4xMSAxMTEuNjUsMTI5LjQ4IDEwNy40LDEzNi44NiAiIGNsaXAtcGF0aD0idXJsKCNTVkdJRF82XykiIGlkPSJwb2x5Z29uMjY1NDEiLz4mI3hhOwk8L2c+JiN4YTs8L2c+JiN4YTs8L3N2Zz4=;" vertex="1" parent="bqVkadd0tKrhda9ODERW-12">
          <mxGeometry x="357" y="20.696969696969695" width="49.81818181818182" height="57.95454545454545" as="geometry" />
        </mxCell>
        <mxCell id="bqVkadd0tKrhda9ODERW-29" value="" style="shape=image;verticalLabelPosition=bottom;labelBackgroundColor=#ffffff;verticalAlign=top;aspect=fixed;imageAspect=0;image=data:image/svg+xml,PHN2ZyB4bWxuczpjYz0iaHR0cDovL2NyZWF0aXZlY29tbW9ucy5vcmcvbnMjIiB4bWxuczpkYz0iaHR0cDovL3B1cmwub3JnL2RjL2VsZW1lbnRzLzEuMS8iIHhtbG5zOmlua3NjYXBlPSJodHRwOi8vd3d3Lmlua3NjYXBlLm9yZy9uYW1lc3BhY2VzL2lua3NjYXBlIiB4bWxuczpyZGY9Imh0dHA6Ly93d3cudzMub3JnLzE5OTkvMDIvMjItcmRmLXN5bnRheC1ucyMiIHhtbG5zOnNvZGlwb2RpPSJodHRwOi8vc29kaXBvZGkuc291cmNlZm9yZ2UubmV0L0RURC9zb2RpcG9kaS0wLmR0ZCIgeG1sbnM6c3ZnPSJodHRwOi8vd3d3LnczLm9yZy8yMDAwL3N2ZyIgeG1sbnM9Imh0dHA6Ly93d3cudzMub3JnLzIwMDAvc3ZnIiB4bWxuczp4bGluaz0iaHR0cDovL3d3dy53My5vcmcvMTk5OS94bGluayIgdmVyc2lvbj0iMS4xIiBpZD0ic3ZnMTgxNTczIiBpbmtzY2FwZTp2ZXJzaW9uPSIwLjkyLjMgKDI0MDU1NDYsIDIwMTgtMDMtMTEpIiBzb2RpcG9kaTpkb2NuYW1lPSJqc29uLnN2ZyIgeD0iMHB4IiB5PSIwcHgiIHZpZXdCb3g9IjAgMCA3Ni41IDc1LjYzIiBzdHlsZT0iZW5hYmxlLWJhY2tncm91bmQ6bmV3IDAgMCA3Ni41IDc1LjYzOyIgeG1sOnNwYWNlPSJwcmVzZXJ2ZSI+JiN4YTs8c29kaXBvZGk6bmFtZWR2aWV3IGJvcmRlcmNvbG9yPSIjNjY2NjY2IiBib3JkZXJvcGFjaXR5PSIxIiBmaXQtbWFyZ2luLWJvdHRvbT0iMCIgZml0LW1hcmdpbi1sZWZ0PSIwIiBmaXQtbWFyZ2luLXJpZ2h0PSIwIiBmaXQtbWFyZ2luLXRvcD0iMCIgZ3JpZHRvbGVyYW5jZT0iMTAiIGd1aWRldG9sZXJhbmNlPSIxMCIgaWQ9Im5hbWVkdmlldzE4MTU3NSIgaW5rc2NhcGU6Y3VycmVudC1sYXllcj0ic3ZnMTgxNTczIiBpbmtzY2FwZTpjeD0iNTEiIGlua3NjYXBlOmN5PSI1MC40MjEyNjciIGlua3NjYXBlOnBhZ2VvcGFjaXR5PSIwIiBpbmtzY2FwZTpwYWdlc2hhZG93PSIyIiBpbmtzY2FwZTp3aW5kb3ctaGVpZ2h0PSIxMDE3IiBpbmtzY2FwZTp3aW5kb3ctbWF4aW1pemVkPSIxIiBpbmtzY2FwZTp3aW5kb3ctd2lkdGg9IjE5MjAiIGlua3NjYXBlOndpbmRvdy14PSItOCIgaW5rc2NhcGU6d2luZG93LXk9Ii04IiBpbmtzY2FwZTp6b29tPSI4LjU5Nzk5NjkiIG9iamVjdHRvbGVyYW5jZT0iMTAiIHBhZ2Vjb2xvcj0iI2ZmZmZmZiIgc2hvd2dyaWQ9ImZhbHNlIj4mI3hhOwk8L3NvZGlwb2RpOm5hbWVkdmlldz4mI3hhOzxnIGlkPSJnMTgxNTcxIj4mI3hhOwk8dGl0bGUgaWQ9InRpdGxlMTgxNTEyIj5QYWdlLTE8L3RpdGxlPiYjeGE7CTxnIGlkPSJncm91cDEwNzctMSI+JiN4YTsJCTx0aXRsZSBpZD0idGl0bGUxODE1MTQiPkpTT048L3RpdGxlPiYjeGE7CQk8ZyBpZD0ic2hhcGUxMDc4LTIiPiYjeGE7CQkJPHRpdGxlIGlkPSJ0aXRsZTE4MTUxNiI+U2hlZXQuMTA3ODwvdGl0bGU+JiN4YTsJCQk8cGF0aCBpZD0icGF0aDE4MTUxOCIgaW5rc2NhcGU6Y29ubmVjdG9yLWN1cnZhdHVyZT0iMCIgc3R5bGU9ImZpbGw6Izk3NzdBODsiIGQ9Ik0wLDM3LjgxQzAsMTYuOTQsMTcuMTMsMCwzOC4yNSwwICAgICBDNTkuNDIsMCw3Ni41LDE2Ljk0LDc2LjUsMzcuODFjMCwyMC45My0xNy4wOCwzNy44Mi0zOC4yNSwzNy44MkMxNy4xMyw3NS42MywwLDU4Ljc0LDAsMzcuODF6Ii8+JiN4YTsJCTwvZz4mI3hhOwkJPGcgaWQ9Imdyb3VwMTA3OS00IiB0cmFuc2Zvcm09InRyYW5zbGF0ZSgxNS42NTM0LC0xNy4zOTk4KSI+JiN4YTsJCQk8dGl0bGUgaWQ9InRpdGxlMTgxNTIxIj5TaGVldC4xMDc5PC90aXRsZT4mI3hhOwkJCTxnIGlkPSJncm91cDEwODAtNSIgdHJhbnNmb3JtPSJ0cmFuc2xhdGUoNi43NDUzLC0xNi40NDE5KSI+JiN4YTsJCQkJPHRpdGxlIGlkPSJ0aXRsZTE4MTUyMyI+U2hlZXQuMTA4MDwvdGl0bGU+JiN4YTsJCQkJPGcgaWQ9InNoYXBlMTA4MS02Ij4mI3hhOwkJCQkJPHRpdGxlIGlkPSJ0aXRsZTE4MTUyNSI+U2hlZXQuMTA4MTwvdGl0bGU+JiN4YTsJCQkJCTxwYXRoIGlkPSJwYXRoMTgxNTI3IiBpbmtzY2FwZTpjb25uZWN0b3ItY3VydmF0dXJlPSIwIiBzdHlsZT0iZmlsbDojRkZGRkZGOyIgZD0iTTYuMSw1OS43OFY1NC45YzAtMC42NywwLjU0LTEuMjIsMS4yMi0xLjIyICAgICAgIGMwLjY3LDAsMS4yMi0wLjU1LDEuMjItMS4yMmMwLTAuNjctMC41NS0xLjIyLTEuMjItMS4yMmMtMi4wMiwwLTMuNjYsMS42NC0zLjY2LDMuNjZ2NC44OGMwLDEuMzQtMS4xLDIuNDQtMi40NCwyLjQ0ICAgICAgIEMwLjU1LDYyLjIyLDAsNjIuNzYsMCw2My40M2MwLDAuNjgsMC41NSwxLjIyLDEuMjIsMS4yMmMxLjM0LDAsMi40NCwxLjEsMi40NCwyLjQ0djQuODhjMCwyLjAyLDEuNjQsMy42NiwzLjY2LDMuNjYgICAgICAgYzAuNjcsMCwxLjIyLTAuNTUsMS4yMi0xLjIycy0wLjU1LTEuMjItMS4yMi0xLjIyYy0wLjY4LDAtMS4yMi0wLjU1LTEuMjItMS4yMnYtNC44OGMwLTEuNDYtMC42Ni0yLjc2LTEuNjktMy42NiAgICAgICBDNS40NCw2Mi41NCw2LjEsNjEuMjQsNi4xLDU5Ljc4eiIvPiYjeGE7CQkJCTwvZz4mI3hhOwkJCQk8ZyBpZD0ic2hhcGUxMDgyLTgiIHRyYW5zZm9ybT0idHJhbnNsYXRlKDE0LjAyMjMsLTE0LjYzMikiPiYjeGE7CQkJCQk8dGl0bGUgaWQ9InRpdGxlMTgxNTMwIj5TaGVldC4xMDgyPC90aXRsZT4mI3hhOwkJCQkJPGNpcmNsZSBpZD0iZWxsaXBzZTE4MTUzMiIgc3R5bGU9ImZpbGw6I0ZGRkZGRjsiIGN4PSIxLjgzIiBjeT0iNzMuOCIgcj0iMS44MyIvPiYjeGE7CQkJCTwvZz4mI3hhOwkJCQk8ZyBpZD0ic2hhcGUxMDgzLTEwIiB0cmFuc2Zvcm09InRyYW5zbGF0ZSgyMy4xNjczKSI+JiN4YTsJCQkJCTx0aXRsZSBpZD0idGl0bGUxODE1MzUiPlNoZWV0LjEwODM8L3RpdGxlPiYjeGE7CQkJCQk8cGF0aCBpZD0icGF0aDE4MTUzNyIgaW5rc2NhcGU6Y29ubmVjdG9yLWN1cnZhdHVyZT0iMCIgc3R5bGU9ImZpbGw6I0ZGRkZGRjsiIGQ9Ik03LjMyLDYyLjIyYy0xLjM1LDAtMi40NC0xLjEtMi40NC0yLjQ0VjU0LjkgICAgICAgYzAtMi4wMi0xLjY0LTMuNjYtMy42Ni0zLjY2QzAuNTUsNTEuMjQsMCw1MS43OSwwLDUyLjQ2YzAsMC42NywwLjU1LDEuMjIsMS4yMiwxLjIyczEuMjIsMC41NSwxLjIyLDEuMjJ2NC44OCAgICAgICBjMCwxLjQ2LDAuNjYsMi43NiwxLjY4LDMuNjVjLTEuMDIsMC45LTEuNjgsMi4yLTEuNjgsMy42NnY0Ljg4YzAsMC42Ny0wLjU1LDEuMjItMS4yMiwxLjIyUzAsNzMuNzQsMCw3NC40MSAgICAgICBzMC41NSwxLjIyLDEuMjIsMS4yMmMyLjAyLDAsMy42Ni0xLjY0LDMuNjYtMy42NnYtNC44OGMwLTEuMzQsMS4wOS0yLjQ0LDIuNDQtMi40NGMwLjY3LDAsMS4yMi0wLjU0LDEuMjItMS4yMiAgICAgICBDOC41NCw2Mi43Niw3Ljk5LDYyLjIyLDcuMzIsNjIuMjJ6Ii8+JiN4YTsJCQkJPC9nPiYjeGE7CQkJCTxnIGlkPSJzaGFwZTEwODQtMTIiIHRyYW5zZm9ybT0idHJhbnNsYXRlKDE0LjYzMiwtMy42NTc5OSkiPiYjeGE7CQkJCQk8dGl0bGUgaWQ9InRpdGxlMTgxNTQwIj5TaGVldC4xMDg0PC90aXRsZT4mI3hhOwkJCQkJPHBhdGggaWQ9InBhdGgxODE1NDIiIGlua3NjYXBlOmNvbm5lY3Rvci1jdXJ2YXR1cmU9IjAiIHN0eWxlPSJmaWxsOiNGRkZGRkY7IiBkPSJNMS4yMiw2OS41M0MwLjU1LDY5LjUzLDAsNzAuMDgsMCw3MC43NXYzLjY2ICAgICAgIGMwLDAuNjcsMC41NSwxLjIyLDEuMjIsMS4yMnMxLjIyLTAuNTUsMS4yMi0xLjIydi0zLjY2QzIuNDQsNzAuMDgsMS44OSw2OS41MywxLjIyLDY5LjUzeiIvPiYjeGE7CQkJCTwvZz4mI3hhOwkJCTwvZz4mI3hhOwkJCTxnIGlkPSJncm91cDEwODUtMTQiPiYjeGE7CQkJCTx0aXRsZSBpZD0idGl0bGUxODE1NDYiPlNoZWV0LjEwODU8L3RpdGxlPiYjeGE7CQkJCTxnIGlkPSJzaGFwZTEwODYtMTUiPiYjeGE7CQkJCQk8dGl0bGUgaWQ9InRpdGxlMTgxNTQ4Ij5TaGVldC4xMDg2PC90aXRsZT4mI3hhOwkJCQkJPHBhdGggaWQ9InBhdGgxODE1NTAiIGlua3NjYXBlOmNvbm5lY3Rvci1jdXJ2YXR1cmU9IjAiIHN0eWxlPSJmaWxsOiNGRkZGRkY7IiBkPSJNOC4yNCw2MS44djEwLjQ5YzAsMC42My0wLjEyLDEuMTYtMC4zNSwxLjU5ICAgICAgIGMtMC4yMywwLjQ0LTAuNTQsMC43OC0wLjkzLDEuMDVjLTAuMzksMC4yNi0wLjg0LDAuNDQtMS4zNCwwLjU0Yy0wLjUxLDAuMTEtMS4wMywwLjE2LTEuNTYsMC4xNmMtMC4yNywwLTAuNTktMC4wMy0wLjk1LTAuMDggICAgICAgQzIuNzYsNzUuNDksMi4zOCw3NS40MSwyLDc1LjI5cy0wLjc1LTAuMjUtMS4xLTAuMzljLTAuMzYtMC4xNS0wLjY2LTAuMzEtMC45LTAuNWwwLjkzLTEuNDdjMC4xMiwwLjA4LDAuMywwLjE3LDAuNTIsMC4yNiAgICAgICBjMC4yMywwLjA5LDAuNDgsMC4xOCwwLjc0LDAuMjVjMC4yNywwLjA4LDAuNTUsMC4xNSwwLjg0LDAuMjFjMC4zLDAuMDcsMC41NywwLjEsMC44MiwwLjFjMC42NSwwLDEuMTYtMC4xMywxLjU1LTAuMzggICAgICAgYzAuMzgtMC4yNSwwLjU4LTAuNjcsMC42MS0xLjI3VjYxLjhIOC4yNHoiLz4mI3hhOwkJCQk8L2c+JiN4YTsJCQkJPGcgaWQ9InNoYXBlMTA4Ny0xNyIgdHJhbnNmb3JtPSJ0cmFuc2xhdGUoMTEuMzI0NywtMC4wMTg3MDUyKSI+JiN4YTsJCQkJCTx0aXRsZSBpZD0idGl0bGUxODE1NTMiPlNoZWV0LjEwODc8L3RpdGxlPiYjeGE7CQkJCQk8cGF0aCBpZD0icGF0aDE4MTU1NSIgaW5rc2NhcGU6Y29ubmVjdG9yLWN1cnZhdHVyZT0iMCIgc3R5bGU9ImZpbGw6I0ZGRkZGRjsiIGQ9Ik03LjgyLDcxLjg3YzAsMC40OC0wLjEsMC45NS0wLjMsMS40MSAgICAgICBjLTAuMiwwLjQ2LTAuNDksMC44Ni0wLjg1LDEuMjFjLTAuMzcsMC4zNC0wLjgyLDAuNjItMS4zNSwwLjgzYy0wLjU0LDAuMjEtMS4xNSwwLjMxLTEuODMsMC4zMWMtMC4yOSwwLTAuNTktMC4wMi0wLjktMC4wNSAgICAgICBjLTAuMzItMC4wMy0wLjYzLTAuMDgtMC45NS0wLjE1Yy0wLjMxLTAuMDgtMC42MS0wLjE4LTAuOS0wLjNDMC40NSw3NSwwLjIxLDc0Ljg0LDAsNzQuNjZsMC4zOC0xLjU3ICAgICAgIGMwLjE3LDAuMSwwLjM5LDAuMTksMC42NSwwLjI4czAuNTMsMC4xOCwwLjgxLDAuMjZzMC41NiwwLjE0LDAuODQsMC4xOXMwLjU1LDAuMDcsMC43OSwwLjA3YzAuNzQsMCwxLjMxLTAuMTcsMS43MS0wLjUyICAgICAgIGMwLjM5LTAuMzUsMC41OS0wLjg2LDAuNTktMS41NGMwLTAuNDItMC4xNC0wLjc3LTAuNDItMS4wNmMtMC4yOC0wLjI5LTAuNjMtMC41Ni0xLjA1LTAuOGMtMC40Mi0wLjIzLTAuODctMC40Ny0xLjM2LTAuNzEgICAgICAgQzIuNDUsNjkuMDIsMiw2OC43NCwxLjU3LDY4LjQycy0wLjc4LTAuNy0xLjA2LTEuMTRzLTAuNDItMC45OS0wLjQyLTEuNjRjMC0wLjYsMC4xMS0xLjEzLDAuMzMtMS41OXMwLjUxLTAuODYsMC44OS0xLjE4ICAgICAgIGMwLjM3LTAuMzIsMC44LTAuNTcsMS4yOS0wLjc0YzAuNS0wLjE3LDEuMDItMC4yNiwxLjU2LTAuMjZjMC41NiwwLDEuMTMsMC4wNiwxLjcsMC4xNnMxLjA0LDAuMjcsMS4zOSwwLjUgICAgICAgQzcuMTgsNjIuNjksNy4wOSw2Mi44Niw3LDYzLjA1Yy0wLjEsMC4xOS0wLjE5LDAuMzctMC4yOCwwLjUzYy0wLjA4LDAuMTctMC4xNiwwLjMtMC4yMiwwLjQxYy0wLjA2LDAuMTEtMC4wOSwwLjE3LTAuMTEsMC4xOSAgICAgICBjLTAuMDctMC4wNC0wLjE1LTAuMDktMC4yNC0wLjE1Yy0wLjEtMC4wNi0wLjIzLTAuMTItMC40LTAuMThjLTAuMTctMC4wNi0wLjM5LTAuMTEtMC42Ny0wLjEzQzQuOCw2My42OSw0LjQ0LDYzLjcsNCw2My43NCAgICAgICBjLTAuMjUsMC4wMi0wLjQ4LDAuMDktMC43LDAuMjFjLTAuMjIsMC4xMS0wLjQxLDAuMjYtMC41OCwwLjQzYy0wLjE3LDAuMTctMC4zMSwwLjM2LTAuNCwwLjU3Yy0wLjEsMC4yMi0wLjE1LDAuNDItMC4xNSwwLjYxICAgICAgIGMwLDAuNDksMC4xNCwwLjg4LDAuNDIsMS4xOHMwLjYzLDAuNTYsMS4wNCwwLjc5YzAuNDEsMC4yMiwwLjg3LDAuNDQsMS4zNSwwLjY2YzAuNDksMC4yMSwwLjk0LDAuNDcsMS4zNywwLjc3ICAgICAgIGMwLjQyLDAuMzEsMC43NiwwLjY5LDEuMDUsMS4xNEM3LjY4LDcwLjU2LDcuODIsNzEuMTUsNy44Miw3MS44N3oiLz4mI3hhOwkJCQk8L2c+JiN4YTsJCQkJPGcgaWQ9InNoYXBlMTA4OC0xOSIgdHJhbnNmb3JtPSJ0cmFuc2xhdGUoMjEuMTU0MykiPiYjeGE7CQkJCQk8dGl0bGUgaWQ9InRpdGxlMTgxNTU4Ij5TaGVldC4xMDg4PC90aXRsZT4mI3hhOwkJCQkJPHBhdGggaWQ9InBhdGgxODE1NjAiIGlua3NjYXBlOmNvbm5lY3Rvci1jdXJ2YXR1cmU9IjAiIHN0eWxlPSJmaWxsOiNGRkZGRkY7IiBkPSJNMTEuMjIsNjguNzRjMCwxLjEzLTAuMTUsMi4xMy0wLjQzLDMgICAgICAgYy0wLjI5LDAuODYtMC42OSwxLjU4LTEuMTksMi4xNWMtMC41MSwwLjU3LTEuMSwxLjAxLTEuNzcsMS4zYy0wLjY4LDAuMjktMS40MiwwLjQ0LTIuMjIsMC40NGMtMC44MSwwLTEuNTUtMC4xNS0yLjIyLTAuNDQgICAgICAgYy0wLjY4LTAuMjktMS4yNy0wLjcyLTEuNzctMS4zYy0wLjUxLTAuNTctMC45MS0xLjI5LTEuMTktMi4xNUMwLjE0LDcwLjg3LDAsNjkuODcsMCw2OC43NGMwLTEuMTMsMC4xNC0yLjEzLDAuNDMtMi45OCAgICAgICBjMC4yOC0wLjg2LDAuNjgtMS41OCwxLjE5LTIuMTVjMC41LTAuNTcsMS4wOS0xLjAxLDEuNzctMS4zMWMwLjY3LTAuMywxLjQxLTAuNDQsMi4yMi0wLjQ0YzAuOCwwLDEuNTQsMC4xNCwyLjIyLDAuNDQgICAgICAgYzAuNjcsMC4zLDEuMjYsMC43NCwxLjc3LDEuMzFjMC41LDAuNTcsMC45LDEuMjksMS4xOSwyLjE1QzExLjA3LDY2LjYxLDExLjIyLDY3LjYxLDExLjIyLDY4Ljc0eiBNNS41NSw3My44NCAgICAgICBjMC40NSwwLDAuODgtMC4wOSwxLjI5LTAuMjdjMC40MS0wLjE3LDAuNzctMC40NiwxLjEtMC44NmMwLjMyLTAuNCwwLjU3LTAuOTMsMC43NS0xLjU4YzAuMTktMC42NiwwLjI4LTEuNDUsMC4zLTIuMzkgICAgICAgYy0wLjAyLTAuOTEtMC4xMS0xLjY5LTAuMjktMi4zM2MtMC4xNy0wLjYzLTAuNDItMS4xNi0wLjczLTEuNThjLTAuMzEtMC40MS0wLjY2LTAuNzEtMS4wNi0wLjg5ICAgICAgIGMtMC4zOS0wLjE4LTAuODEtMC4yOC0xLjI1LTAuMjhjLTAuNDUsMC0wLjg4LDAuMDktMS4yOSwwLjI2cy0wLjc3LDAuNDYtMS4wOSwwLjg3Yy0wLjMyLDAuNC0wLjU4LDAuOTMtMC43NiwxLjU4ICAgICAgIGMtMC4xOCwwLjY0LTAuMjgsMS40My0wLjI5LDIuMzdjMC4wMSwwLjkyLDAuMSwxLjY5LDAuMjgsMi4zNGMwLjE4LDAuNjUsMC40MiwxLjE3LDAuNzMsMS41OHMwLjY3LDAuNzEsMS4wNiwwLjkgICAgICAgQzQuNyw3My43NSw1LjExLDczLjg0LDUuNTUsNzMuODR6Ii8+JiN4YTsJCQkJPC9nPiYjeGE7CQkJCTxnIGlkPSJzaGFwZTEwODktMjEiIHRyYW5zZm9ybT0idHJhbnNsYXRlKDM1LjQ1NzEsLTAuMDkwODU0MSkiPiYjeGE7CQkJCQk8dGl0bGUgaWQ9InRpdGxlMTgxNTYzIj5TaGVldC4xMDg5PC90aXRsZT4mI3hhOwkJCQkJPHBhdGggaWQ9InBhdGgxODE1NjUiIGlua3NjYXBlOmNvbm5lY3Rvci1jdXJ2YXR1cmU9IjAiIHN0eWxlPSJmaWxsOiNGRkZGRkY7IiBkPSJNOS43NCw2Mi4xN3YxMy40Nkg3LjUxbC01LjI4LTkuMjh2OS4yOEgwICAgICAgIFY2Mi4xN2gyLjIzbDUuMjgsOS4yN3YtOS4yN0w5Ljc0LDYyLjE3eiIvPiYjeGE7CQkJCTwvZz4mI3hhOwkJCTwvZz4mI3hhOwkJPC9nPiYjeGE7CTwvZz4mI3hhOzwvZz4mI3hhOzwvc3ZnPg==;" vertex="1" parent="bqVkadd0tKrhda9ODERW-12">
          <mxGeometry x="360" y="123.48" width="52.19" height="51.52" as="geometry" />
        </mxCell>
        <mxCell id="bqVkadd0tKrhda9ODERW-32" style="edgeStyle=orthogonalEdgeStyle;rounded=0;orthogonalLoop=1;jettySize=auto;html=1;exitX=0.25;exitY=1;exitDx=0;exitDy=0;entryX=0.5;entryY=1;entryDx=0;entryDy=0;strokeColor=#808080;" edge="1" parent="bqVkadd0tKrhda9ODERW-12" source="bqVkadd0tKrhda9ODERW-15" target="bqVkadd0tKrhda9ODERW-15">
          <mxGeometry relative="1" as="geometry" />
        </mxCell>
        <mxCell id="bqVkadd0tKrhda9ODERW-61" style="edgeStyle=orthogonalEdgeStyle;rounded=0;orthogonalLoop=1;jettySize=auto;html=1;exitX=1;exitY=0.25;exitDx=0;exitDy=0;entryX=1;entryY=0.75;entryDx=0;entryDy=0;strokeColor=#808080;" edge="1" parent="bqVkadd0tKrhda9ODERW-12" source="bqVkadd0tKrhda9ODERW-6" target="bqVkadd0tKrhda9ODERW-6">
          <mxGeometry relative="1" as="geometry" />
        </mxCell>
        <mxCell id="bqVkadd0tKrhda9ODERW-18" value="&lt;br&gt;" style="text;html=1;align=center;verticalAlign=middle;resizable=0;points=[];autosize=1;" vertex="1" parent="1">
          <mxGeometry x="330" y="330" width="20" height="20" as="geometry" />
        </mxCell>
        <mxCell id="bqVkadd0tKrhda9ODERW-85" style="edgeStyle=orthogonalEdgeStyle;rounded=0;orthogonalLoop=1;jettySize=auto;html=1;entryX=0.5;entryY=1;entryDx=0;entryDy=0;strokeColor=#808080;" edge="1" parent="1" source="bqVkadd0tKrhda9ODERW-50" target="bqVkadd0tKrhda9ODERW-53">
          <mxGeometry relative="1" as="geometry" />
        </mxCell>
        <mxCell id="bqVkadd0tKrhda9ODERW-50" value="" style="shape=image;verticalLabelPosition=bottom;labelBackgroundColor=#ffffff;verticalAlign=top;aspect=fixed;imageAspect=0;image=data:image/svg+xml,PHN2ZyB4bWxuczpjYz0iaHR0cDovL2NyZWF0aXZlY29tbW9ucy5vcmcvbnMjIiB4bWxuczpkYz0iaHR0cDovL3B1cmwub3JnL2RjL2VsZW1lbnRzLzEuMS8iIHhtbG5zOmlua3NjYXBlPSJodHRwOi8vd3d3Lmlua3NjYXBlLm9yZy9uYW1lc3BhY2VzL2lua3NjYXBlIiB4bWxuczpyZGY9Imh0dHA6Ly93d3cudzMub3JnLzE5OTkvMDIvMjItcmRmLXN5bnRheC1ucyMiIHhtbG5zOnNvZGlwb2RpPSJodHRwOi8vc29kaXBvZGkuc291cmNlZm9yZ2UubmV0L0RURC9zb2RpcG9kaS0wLmR0ZCIgeG1sbnM6c3ZnPSJodHRwOi8vd3d3LnczLm9yZy8yMDAwL3N2ZyIgeG1sbnM9Imh0dHA6Ly93d3cudzMub3JnLzIwMDAvc3ZnIiB4bWxuczp4bGluaz0iaHR0cDovL3d3dy53My5vcmcvMTk5OS94bGluayIgdmVyc2lvbj0iMS4xIiBpZD0ic3ZnODIzMDkiIGlua3NjYXBlOnZlcnNpb249IjAuOTIuMyAoMjQwNTU0NiwgMjAxOC0wMy0xMSkiIHNvZGlwb2RpOmRvY25hbWU9Im9yYWNsZV9kYXRhYmFzZS5zdmciIHg9IjBweCIgeT0iMHB4IiB2aWV3Qm94PSIwIDAgMzAuNjIgMzQuOTMiIHN0eWxlPSJlbmFibGUtYmFja2dyb3VuZDpuZXcgMCAwIDMwLjYyIDM0LjkzOyIgeG1sOnNwYWNlPSJwcmVzZXJ2ZSI+JiN4YTs8c29kaXBvZGk6bmFtZWR2aWV3IGJvcmRlcmNvbG9yPSIjNjY2NjY2IiBib3JkZXJvcGFjaXR5PSIxIiBmaXQtbWFyZ2luLWJvdHRvbT0iMCIgZml0LW1hcmdpbi1sZWZ0PSIwIiBmaXQtbWFyZ2luLXJpZ2h0PSIwIiBmaXQtbWFyZ2luLXRvcD0iMCIgZ3JpZHRvbGVyYW5jZT0iMTAiIGd1aWRldG9sZXJhbmNlPSIxMCIgaWQ9Im5hbWVkdmlldzgyMzExIiBpbmtzY2FwZTpjdXJyZW50LWxheWVyPSJzdmc4MjMwOSIgaW5rc2NhcGU6Y3g9IjIwLjQxMzUzMyIgaW5rc2NhcGU6Y3k9IjIzLjI4Njg2NiIgaW5rc2NhcGU6cGFnZW9wYWNpdHk9IjAiIGlua3NjYXBlOnBhZ2VzaGFkb3c9IjIiIGlua3NjYXBlOndpbmRvdy1oZWlnaHQ9IjEwMTciIGlua3NjYXBlOndpbmRvdy1tYXhpbWl6ZWQ9IjEiIGlua3NjYXBlOndpbmRvdy13aWR0aD0iMTkyMCIgaW5rc2NhcGU6d2luZG93LXg9Ii04IiBpbmtzY2FwZTp3aW5kb3cteT0iLTgiIGlua3NjYXBlOnpvb209IjE2LjgyODE1NiIgb2JqZWN0dG9sZXJhbmNlPSIxMCIgcGFnZWNvbG9yPSIjZmZmZmZmIiBzaG93Z3JpZD0iZmFsc2UiPiYjeGE7CTwvc29kaXBvZGk6bmFtZWR2aWV3PiYjeGE7PGcgaWQ9Imc4MjMwNyIgdHJhbnNmb3JtPSJ0cmFuc2xhdGUoLTEuODU0NTc4LC0xLjg1MTA1KSI+JiN4YTsJPHRpdGxlIGlkPSJ0aXRsZTgyMjcyIj5QYWdlLTE8L3RpdGxlPiYjeGE7CTxnIGlkPSJncm91cDQzODktMSIgdHJhbnNmb3JtPSJ0cmFuc2xhdGUoMS44NTQ1NSwtMS44NTQ1NSkiPiYjeGE7CQk8dGl0bGUgaWQ9InRpdGxlODIyNzQiPk9yYWNsZSBEYXRhYmFzZTwvdGl0bGU+JiN4YTsJCTxnIGlkPSJzaGFwZTQzOTAtMiIgdHJhbnNmb3JtPSJ0cmFuc2xhdGUoMCwtMC4xMTA1NDMpIj4mI3hhOwkJCTx0aXRsZSBpZD0idGl0bGU4MjI3NiI+U2hlZXQuNDM5MDwvdGl0bGU+JiN4YTsJCQk8cGF0aCBpZD0icGF0aDgyMjc4IiBpbmtzY2FwZTpjb25uZWN0b3ItY3VydmF0dXJlPSIwIiBzdHlsZT0iZmlsbDojRUIyMjI3OyIgZD0iTTE1LjI1LDkuMjRDNi44NSw5LjI0LDAsOC4wMiwwLDYuNDd2MjkuNDEgICAgIGMwLDEuNTQsNi44NSwyLjc2LDE1LjI1LDIuNzZjOC40MSwwLDE1LjI2LTEuMjIsMTUuMjYtMi43NlY2LjQ3QzMwLjYyLDguMDIsMjMuNzcsOS4yNCwxNS4yNSw5LjI0eiIvPiYjeGE7CQk8L2c+JiN4YTsJCTxnIGlkPSJzaGFwZTQzOTEtNCI+JiN4YTsJCQk8dGl0bGUgaWQ9InRpdGxlODIyODEiPlNoZWV0LjQzOTE8L3RpdGxlPiYjeGE7CQkJPHBhdGggaWQ9InBhdGg4MjI4MyIgaW5rc2NhcGU6Y29ubmVjdG9yLWN1cnZhdHVyZT0iMCIgc3R5bGU9ImZpbGw6I0Q4MjMyODsiIGQ9Ik0wLDYuNDd2MjkuNDFjMCwxLjU0LDYuODUsMi43NiwxNS4yNSwyLjc2VjkuMjQgICAgIEM2Ljg1LDkuMTMsMCw3LjkxLDAsNi40N3oiLz4mI3hhOwkJPC9nPiYjeGE7CQk8ZyBpZD0ic2hhcGU0MzkyLTYiIHRyYW5zZm9ybT0idHJhbnNsYXRlKDI4LjUyLC0xLjQzNzA2KSI+JiN4YTsJCQk8dGl0bGUgaWQ9InRpdGxlODIyODYiPlNoZWV0LjQzOTI8L3RpdGxlPiYjeGE7CQkJPHBhdGggaWQ9InBhdGg4MjI4OCIgaW5rc2NhcGU6Y29ubmVjdG9yLWN1cnZhdHVyZT0iMCIgc3R5bGU9ImZpbGw6I0Q4MjMyODsiIGQ9Ik0wLDkuMjR2MjkuNGMxLjMzLTAuNDQsMi4xLTAuODgsMi4xLTEuMzNWNy45MSAgICAgQzIuMSw4LjM1LDEuMzMsOC45LDAsOS4yNHoiLz4mI3hhOwkJPC9nPiYjeGE7CQk8ZyBpZD0ic2hhcGU0MzkzLTgiIHRyYW5zZm9ybT0idHJhbnNsYXRlKDAuMTEwNTQzLC0yOS40MDQ0KSI+JiN4YTsJCQk8dGl0bGUgaWQ9InRpdGxlODIyOTEiPlNoZWV0LjQzOTM8L3RpdGxlPiYjeGE7CQkJPHBhdGggaWQ9InBhdGg4MjI5MyIgaW5rc2NhcGU6Y29ubmVjdG9yLWN1cnZhdHVyZT0iMCIgc3R5bGU9ImZpbGw6I0I5MjMyNzsiIGQ9Ik0zMC41MSwzNS44OGMwLDEuNTQtNi44NSwyLjc2LTE1LjI2LDIuNzYgICAgIEM2Ljg1LDM4LjY0LDAsMzcuNDIsMCwzNS44OGMwLTEuNTUsNi44NS0yLjc3LDE1LjI1LTIuNzdDMjMuNjYsMzMuMTEsMzAuNTEsMzQuMzMsMzAuNTEsMzUuODh6Ii8+JiN4YTsJCTwvZz4mI3hhOwkJPGcgaWQ9InNoYXBlNDM5NC0xMCIgdHJhbnNmb3JtPSJ0cmFuc2xhdGUoMCwtOC43MzI4OCkiPiYjeGE7CQkJPHRpdGxlIGlkPSJ0aXRsZTgyMjk2Ij5TaGVldC40Mzk0PC90aXRsZT4mI3hhOwkJCTxwYXRoIGlkPSJwYXRoODIyOTgiIGlua3NjYXBlOmNvbm5lY3Rvci1jdXJ2YXR1cmU9IjAiIHN0eWxlPSJmaWxsOiM5QTFDMjE7IiBkPSJNMCwzMy42N2MwLDEuNTQsNi44NSwyLjc2LDE1LjI1LDIuNzYgICAgIGM4LjQxLDAsMTUuMjYtMS4yMiwxNS4yNi0yLjc2djIuMjFjMCwxLjU0LTYuODUsMi43Ni0xNS4yNiwyLjc2QzYuODUsMzguNjQsMCwzNy40MiwwLDM1Ljg4VjMzLjY3eiIvPiYjeGE7CQk8L2c+JiN4YTsJCTxnIGlkPSJzaGFwZTQzOTUtMTIiIHRyYW5zZm9ybT0idHJhbnNsYXRlKDAuMTEwNTQzLC0xOC40NjA2KSI+JiN4YTsJCQk8dGl0bGUgaWQ9InRpdGxlODIzMDEiPlNoZWV0LjQzOTU8L3RpdGxlPiYjeGE7CQkJPHBhdGggaWQ9InBhdGg4MjMwMyIgaW5rc2NhcGU6Y29ubmVjdG9yLWN1cnZhdHVyZT0iMCIgc3R5bGU9ImZpbGw6IzlBMUMyMTsiIGQ9Ik0zMC41MSwzMy42N2MwLDEuNTQtNi44NSwyLjc2LTE1LjI2LDIuNzYgICAgIEM2Ljg1LDM2LjQzLDAsMzUuMjEsMCwzMy42N3YyLjIxYzAsMS41NCw2Ljg1LDIuNzYsMTUuMjUsMi43NmM4LjQxLDAsMTUuMjYtMS4yMiwxNS4yNi0yLjc2VjMzLjY3eiIvPiYjeGE7CQk8L2c+JiN4YTsJPC9nPiYjeGE7PC9nPiYjeGE7PC9zdmc+;" vertex="1" parent="1">
          <mxGeometry x="819.5" y="930" width="31" height="35" as="geometry" />
        </mxCell>
        <mxCell id="bqVkadd0tKrhda9ODERW-54" style="edgeStyle=orthogonalEdgeStyle;rounded=0;orthogonalLoop=1;jettySize=auto;html=1;strokeColor=#808080;entryX=0;entryY=0.5;entryDx=0;entryDy=0;" edge="1" parent="1" source="bqVkadd0tKrhda9ODERW-51" target="bqVkadd0tKrhda9ODERW-53">
          <mxGeometry relative="1" as="geometry" />
        </mxCell>
        <mxCell id="bqVkadd0tKrhda9ODERW-51" value="" style="shape=image;verticalLabelPosition=bottom;labelBackgroundColor=#ffffff;verticalAlign=top;aspect=fixed;imageAspect=0;image=data:image/svg+xml,PHN2ZyB4bWxuczpjYz0iaHR0cDovL2NyZWF0aXZlY29tbW9ucy5vcmcvbnMjIiB4bWxuczpkYz0iaHR0cDovL3B1cmwub3JnL2RjL2VsZW1lbnRzLzEuMS8iIHhtbG5zOmlua3NjYXBlPSJodHRwOi8vd3d3Lmlua3NjYXBlLm9yZy9uYW1lc3BhY2VzL2lua3NjYXBlIiB4bWxuczpyZGY9Imh0dHA6Ly93d3cudzMub3JnLzE5OTkvMDIvMjItcmRmLXN5bnRheC1ucyMiIHhtbG5zOnNvZGlwb2RpPSJodHRwOi8vc29kaXBvZGkuc291cmNlZm9yZ2UubmV0L0RURC9zb2RpcG9kaS0wLmR0ZCIgeG1sbnM6c3ZnPSJodHRwOi8vd3d3LnczLm9yZy8yMDAwL3N2ZyIgeG1sbnM9Imh0dHA6Ly93d3cudzMub3JnLzIwMDAvc3ZnIiB4bWxuczp4bGluaz0iaHR0cDovL3d3dy53My5vcmcvMTk5OS94bGluayIgdmVyc2lvbj0iMS4xIiBpZD0ic3ZnODIzMDkiIGlua3NjYXBlOnZlcnNpb249IjAuOTIuMyAoMjQwNTU0NiwgMjAxOC0wMy0xMSkiIHNvZGlwb2RpOmRvY25hbWU9Im9yYWNsZV9kYXRhYmFzZS5zdmciIHg9IjBweCIgeT0iMHB4IiB2aWV3Qm94PSIwIDAgMzAuNjIgMzQuOTMiIHN0eWxlPSJlbmFibGUtYmFja2dyb3VuZDpuZXcgMCAwIDMwLjYyIDM0LjkzOyIgeG1sOnNwYWNlPSJwcmVzZXJ2ZSI+JiN4YTs8c29kaXBvZGk6bmFtZWR2aWV3IGJvcmRlcmNvbG9yPSIjNjY2NjY2IiBib3JkZXJvcGFjaXR5PSIxIiBmaXQtbWFyZ2luLWJvdHRvbT0iMCIgZml0LW1hcmdpbi1sZWZ0PSIwIiBmaXQtbWFyZ2luLXJpZ2h0PSIwIiBmaXQtbWFyZ2luLXRvcD0iMCIgZ3JpZHRvbGVyYW5jZT0iMTAiIGd1aWRldG9sZXJhbmNlPSIxMCIgaWQ9Im5hbWVkdmlldzgyMzExIiBpbmtzY2FwZTpjdXJyZW50LWxheWVyPSJzdmc4MjMwOSIgaW5rc2NhcGU6Y3g9IjIwLjQxMzUzMyIgaW5rc2NhcGU6Y3k9IjIzLjI4Njg2NiIgaW5rc2NhcGU6cGFnZW9wYWNpdHk9IjAiIGlua3NjYXBlOnBhZ2VzaGFkb3c9IjIiIGlua3NjYXBlOndpbmRvdy1oZWlnaHQ9IjEwMTciIGlua3NjYXBlOndpbmRvdy1tYXhpbWl6ZWQ9IjEiIGlua3NjYXBlOndpbmRvdy13aWR0aD0iMTkyMCIgaW5rc2NhcGU6d2luZG93LXg9Ii04IiBpbmtzY2FwZTp3aW5kb3cteT0iLTgiIGlua3NjYXBlOnpvb209IjE2LjgyODE1NiIgb2JqZWN0dG9sZXJhbmNlPSIxMCIgcGFnZWNvbG9yPSIjZmZmZmZmIiBzaG93Z3JpZD0iZmFsc2UiPiYjeGE7CTwvc29kaXBvZGk6bmFtZWR2aWV3PiYjeGE7PGcgaWQ9Imc4MjMwNyIgdHJhbnNmb3JtPSJ0cmFuc2xhdGUoLTEuODU0NTc4LC0xLjg1MTA1KSI+JiN4YTsJPHRpdGxlIGlkPSJ0aXRsZTgyMjcyIj5QYWdlLTE8L3RpdGxlPiYjeGE7CTxnIGlkPSJncm91cDQzODktMSIgdHJhbnNmb3JtPSJ0cmFuc2xhdGUoMS44NTQ1NSwtMS44NTQ1NSkiPiYjeGE7CQk8dGl0bGUgaWQ9InRpdGxlODIyNzQiPk9yYWNsZSBEYXRhYmFzZTwvdGl0bGU+JiN4YTsJCTxnIGlkPSJzaGFwZTQzOTAtMiIgdHJhbnNmb3JtPSJ0cmFuc2xhdGUoMCwtMC4xMTA1NDMpIj4mI3hhOwkJCTx0aXRsZSBpZD0idGl0bGU4MjI3NiI+U2hlZXQuNDM5MDwvdGl0bGU+JiN4YTsJCQk8cGF0aCBpZD0icGF0aDgyMjc4IiBpbmtzY2FwZTpjb25uZWN0b3ItY3VydmF0dXJlPSIwIiBzdHlsZT0iZmlsbDojRUIyMjI3OyIgZD0iTTE1LjI1LDkuMjRDNi44NSw5LjI0LDAsOC4wMiwwLDYuNDd2MjkuNDEgICAgIGMwLDEuNTQsNi44NSwyLjc2LDE1LjI1LDIuNzZjOC40MSwwLDE1LjI2LTEuMjIsMTUuMjYtMi43NlY2LjQ3QzMwLjYyLDguMDIsMjMuNzcsOS4yNCwxNS4yNSw5LjI0eiIvPiYjeGE7CQk8L2c+JiN4YTsJCTxnIGlkPSJzaGFwZTQzOTEtNCI+JiN4YTsJCQk8dGl0bGUgaWQ9InRpdGxlODIyODEiPlNoZWV0LjQzOTE8L3RpdGxlPiYjeGE7CQkJPHBhdGggaWQ9InBhdGg4MjI4MyIgaW5rc2NhcGU6Y29ubmVjdG9yLWN1cnZhdHVyZT0iMCIgc3R5bGU9ImZpbGw6I0Q4MjMyODsiIGQ9Ik0wLDYuNDd2MjkuNDFjMCwxLjU0LDYuODUsMi43NiwxNS4yNSwyLjc2VjkuMjQgICAgIEM2Ljg1LDkuMTMsMCw3LjkxLDAsNi40N3oiLz4mI3hhOwkJPC9nPiYjeGE7CQk8ZyBpZD0ic2hhcGU0MzkyLTYiIHRyYW5zZm9ybT0idHJhbnNsYXRlKDI4LjUyLC0xLjQzNzA2KSI+JiN4YTsJCQk8dGl0bGUgaWQ9InRpdGxlODIyODYiPlNoZWV0LjQzOTI8L3RpdGxlPiYjeGE7CQkJPHBhdGggaWQ9InBhdGg4MjI4OCIgaW5rc2NhcGU6Y29ubmVjdG9yLWN1cnZhdHVyZT0iMCIgc3R5bGU9ImZpbGw6I0Q4MjMyODsiIGQ9Ik0wLDkuMjR2MjkuNGMxLjMzLTAuNDQsMi4xLTAuODgsMi4xLTEuMzNWNy45MSAgICAgQzIuMSw4LjM1LDEuMzMsOC45LDAsOS4yNHoiLz4mI3hhOwkJPC9nPiYjeGE7CQk8ZyBpZD0ic2hhcGU0MzkzLTgiIHRyYW5zZm9ybT0idHJhbnNsYXRlKDAuMTEwNTQzLC0yOS40MDQ0KSI+JiN4YTsJCQk8dGl0bGUgaWQ9InRpdGxlODIyOTEiPlNoZWV0LjQzOTM8L3RpdGxlPiYjeGE7CQkJPHBhdGggaWQ9InBhdGg4MjI5MyIgaW5rc2NhcGU6Y29ubmVjdG9yLWN1cnZhdHVyZT0iMCIgc3R5bGU9ImZpbGw6I0I5MjMyNzsiIGQ9Ik0zMC41MSwzNS44OGMwLDEuNTQtNi44NSwyLjc2LTE1LjI2LDIuNzYgICAgIEM2Ljg1LDM4LjY0LDAsMzcuNDIsMCwzNS44OGMwLTEuNTUsNi44NS0yLjc3LDE1LjI1LTIuNzdDMjMuNjYsMzMuMTEsMzAuNTEsMzQuMzMsMzAuNTEsMzUuODh6Ii8+JiN4YTsJCTwvZz4mI3hhOwkJPGcgaWQ9InNoYXBlNDM5NC0xMCIgdHJhbnNmb3JtPSJ0cmFuc2xhdGUoMCwtOC43MzI4OCkiPiYjeGE7CQkJPHRpdGxlIGlkPSJ0aXRsZTgyMjk2Ij5TaGVldC40Mzk0PC90aXRsZT4mI3hhOwkJCTxwYXRoIGlkPSJwYXRoODIyOTgiIGlua3NjYXBlOmNvbm5lY3Rvci1jdXJ2YXR1cmU9IjAiIHN0eWxlPSJmaWxsOiM5QTFDMjE7IiBkPSJNMCwzMy42N2MwLDEuNTQsNi44NSwyLjc2LDE1LjI1LDIuNzYgICAgIGM4LjQxLDAsMTUuMjYtMS4yMiwxNS4yNi0yLjc2djIuMjFjMCwxLjU0LTYuODUsMi43Ni0xNS4yNiwyLjc2QzYuODUsMzguNjQsMCwzNy40MiwwLDM1Ljg4VjMzLjY3eiIvPiYjeGE7CQk8L2c+JiN4YTsJCTxnIGlkPSJzaGFwZTQzOTUtMTIiIHRyYW5zZm9ybT0idHJhbnNsYXRlKDAuMTEwNTQzLC0xOC40NjA2KSI+JiN4YTsJCQk8dGl0bGUgaWQ9InRpdGxlODIzMDEiPlNoZWV0LjQzOTU8L3RpdGxlPiYjeGE7CQkJPHBhdGggaWQ9InBhdGg4MjMwMyIgaW5rc2NhcGU6Y29ubmVjdG9yLWN1cnZhdHVyZT0iMCIgc3R5bGU9ImZpbGw6IzlBMUMyMTsiIGQ9Ik0zMC41MSwzMy42N2MwLDEuNTQtNi44NSwyLjc2LTE1LjI2LDIuNzYgICAgIEM2Ljg1LDM2LjQzLDAsMzUuMjEsMCwzMy42N3YyLjIxYzAsMS41NCw2Ljg1LDIuNzYsMTUuMjUsMi43NmM4LjQxLDAsMTUuMjYtMS4yMiwxNS4yNi0yLjc2VjMzLjY3eiIvPiYjeGE7CQk8L2c+JiN4YTsJPC9nPiYjeGE7PC9nPiYjeGE7PC9zdmc+;" vertex="1" parent="1">
          <mxGeometry x="590" y="860" width="31" height="35" as="geometry" />
        </mxCell>
        <mxCell id="bqVkadd0tKrhda9ODERW-84" style="edgeStyle=orthogonalEdgeStyle;rounded=0;orthogonalLoop=1;jettySize=auto;html=1;strokeColor=#808080;" edge="1" parent="1" source="bqVkadd0tKrhda9ODERW-53">
          <mxGeometry relative="1" as="geometry">
            <mxPoint x="1060" y="640" as="targetPoint" />
          </mxGeometry>
        </mxCell>
        <mxCell id="bqVkadd0tKrhda9ODERW-53" value="SINCRONIZAÇÃO" style="shape=image;verticalLabelPosition=bottom;labelBackgroundColor=#ffffff;verticalAlign=top;aspect=fixed;imageAspect=0;image=data:image/svg+xml,PHN2ZyB4bWxuczpjYz0iaHR0cDovL2NyZWF0aXZlY29tbW9ucy5vcmcvbnMjIiB4bWxuczpkYz0iaHR0cDovL3B1cmwub3JnL2RjL2VsZW1lbnRzLzEuMS8iIHhtbG5zOmlua3NjYXBlPSJodHRwOi8vd3d3Lmlua3NjYXBlLm9yZy9uYW1lc3BhY2VzL2lua3NjYXBlIiB4bWxuczpyZGY9Imh0dHA6Ly93d3cudzMub3JnLzE5OTkvMDIvMjItcmRmLXN5bnRheC1ucyMiIHhtbG5zOnNvZGlwb2RpPSJodHRwOi8vc29kaXBvZGkuc291cmNlZm9yZ2UubmV0L0RURC9zb2RpcG9kaS0wLmR0ZCIgeG1sbnM6c3ZnPSJodHRwOi8vd3d3LnczLm9yZy8yMDAwL3N2ZyIgeG1sbnM9Imh0dHA6Ly93d3cudzMub3JnLzIwMDAvc3ZnIiB4bWxuczp4bGluaz0iaHR0cDovL3d3dy53My5vcmcvMTk5OS94bGluayIgdmVyc2lvbj0iMS4xIiBpZD0ic3ZnOTgxNTYiIGlua3NjYXBlOnZlcnNpb249IjAuOTIuMyAoMjQwNTU0NiwgMjAxOC0wMy0xMSkiIHNvZGlwb2RpOmRvY25hbWU9ImRhdGFfc3luY2hyb25pemF0aW9uLnN2ZyIgeD0iMHB4IiB5PSIwcHgiIHZpZXdCb3g9IjAgMCA1MS41IDMxLjc5IiBzdHlsZT0iZW5hYmxlLWJhY2tncm91bmQ6bmV3IDAgMCA1MS41IDMxLjc5OyIgeG1sOnNwYWNlPSJwcmVzZXJ2ZSI+JiN4YTs8c29kaXBvZGk6bmFtZWR2aWV3IGJvcmRlcmNvbG9yPSIjNjY2NjY2IiBib3JkZXJvcGFjaXR5PSIxIiBmaXQtbWFyZ2luLWJvdHRvbT0iMCIgZml0LW1hcmdpbi1sZWZ0PSIwIiBmaXQtbWFyZ2luLXJpZ2h0PSIwIiBmaXQtbWFyZ2luLXRvcD0iMCIgZ3JpZHRvbGVyYW5jZT0iMTAiIGd1aWRldG9sZXJhbmNlPSIxMCIgaWQ9Im5hbWVkdmlldzk4MTU4IiBpbmtzY2FwZTpjdXJyZW50LWxheWVyPSJzdmc5ODE1NiIgaW5rc2NhcGU6Y3g9IjM0LjMzNTg4OSIgaW5rc2NhcGU6Y3k9IjIxLjE5MjM0NSIgaW5rc2NhcGU6cGFnZW9wYWNpdHk9IjAiIGlua3NjYXBlOnBhZ2VzaGFkb3c9IjIiIGlua3NjYXBlOndpbmRvdy1oZWlnaHQ9IjEwMTciIGlua3NjYXBlOndpbmRvdy1tYXhpbWl6ZWQ9IjEiIGlua3NjYXBlOndpbmRvdy13aWR0aD0iMTkyMCIgaW5rc2NhcGU6d2luZG93LXg9Ii04IiBpbmtzY2FwZTp3aW5kb3cteT0iLTgiIGlua3NjYXBlOnpvb209IjIwLjQ1MzU2MiIgb2JqZWN0dG9sZXJhbmNlPSIxMCIgcGFnZWNvbG9yPSIjZmZmZmZmIiBzaG93Z3JpZD0iZmFsc2UiPiYjeGE7CTwvc29kaXBvZGk6bmFtZWR2aWV3PiYjeGE7PGcgaWQ9Imc5ODE1NCIgdHJhbnNmb3JtPSJ0cmFuc2xhdGUoMCwtMC4wMDQzKSI+JiN4YTsJPHRpdGxlIGlkPSJ0aXRsZTk4MTE5Ij5QYWdlLTE8L3RpdGxlPiYjeGE7CTxnIGlkPSJncm91cDM4NjQtMSI+JiN4YTsJCTx0aXRsZSBpZD0idGl0bGU5ODEyMSI+RGF0YSBTeW5jaHJvbml6YXRpb248L3RpdGxlPiYjeGE7CQk8ZyBpZD0ic2hhcGUzODY1LTIiIHRyYW5zZm9ybT0idHJhbnNsYXRlKDAsLTcuODY1NykiPiYjeGE7CQkJPHRpdGxlIGlkPSJ0aXRsZTk4MTIzIj5TaGVldC4zODY1PC90aXRsZT4mI3hhOwkJCTxwYXRoIGlkPSJwYXRoOTgxMjUiIGlua3NjYXBlOmNvbm5lY3Rvci1jdXJ2YXR1cmU9IjAiIHN0eWxlPSJmaWxsOiMzRjU3NjU7IiBkPSJNMjIuODMsMTAuNDVjLTIuNDItMS44My02LjEzLTIuNTItMTAuNTgtMi41OCAgICAgYy0yLjk5LDAtNS42OSwwLjQtNy43OSwxLjEyYy0xLjA4LDAuMzctMi4wMiwwLjgtMi44NCwxLjQ2QzAuODMsMTEuMDYsMCwxMi4xMSwwLDEzLjUxYzAsMTEuOTQsMCwxMS45NCwwLDExLjk0ICAgICBjMCwxLjMzLDAuNjYsMi40NSwxLjQ2LDMuMTljMi40MSwyLjIxLDYuMjUsMy4wOSwxMC43OSwzLjE1YzEuMTEsMCwyLjI1LTAuMDYsMy4yOC0wLjJjMCwwLDUuNTMtMC45OSw3LjQyLTIuODkgICAgIGMwLjA1LDAsMC4wNSwwLDAuMDUsMGMwLjc5LTAuNzUsMS40NS0xLjg2LDEuNDUtMy4xOWMwLDAsMCwwLDAtNi40NGwwLDBjMC01LjU2LDAtNS41NiwwLTUuNTYgICAgIEMyNC40NSwxMi4xMSwyMy42MywxMS4wNiwyMi44MywxMC40NXogTTEyLjI1LDEwLjEyYzUuNDgsMCw5Ljk3LDEuNTIsOS45NywzLjM5YzAsMS44OC00LjQ5LDMuNC05Ljk3LDMuNCAgICAgYy01LjUzLDAtOS45OS0xLjUyLTkuOTktMy40QzIuMjYsMTEuNjQsNi43MiwxMC4xMiwxMi4yNSwxMC4xMnogTTIuMjYsMTUuODVjMC4yNSwwLjIyLDAuNTUsMC40MywwLjg3LDAuNjEgICAgIGMyLjA3LDEuMTMsNS4zMiwxLjc2LDkuMTIsMS43OWMyLjgzLDAsNS40NC0wLjM5LDcuNC0xLjA3YzEtMC4zMywxLjgyLTAuNzUsMi41MS0xLjI2YzAuMDEtMC4wMywwLjA0LTAuMDYsMC4wNi0wLjA3ICAgICBjMCwyLjQ0LDAsMi40NCwwLDIuNDRjMCwwLjY1LDAsMC42NSwwLDAuNjVjLTIuMzUsMC45OC01LjQxLDEuNDgtNS40MSwxLjQ4Yy0xLjM3LDAuMjQtMi45NywwLjQtNC42NCwwLjQgICAgIGMtNS4zNSwwLTkuNzEtMS40NS05LjkxLTMuMjNDMi4yNiwxNS44NSwyLjI2LDE1Ljg1LDIuMjYsMTUuODV6IE0yLjI2LDIxLjk5YzAtMS40NiwwLTIuMDIsMC0yLjIyYzAuMjcsMC4yMywwLjU3LDAuNCwwLjg3LDAuNjEgICAgIGMyLjA3LDEuMTEsNS4zMSwxLjczLDkuMDQsMS43M2MxLjM0LDAsMi42My0wLjEzLDMuODEtMC4yNGMyLjY3LTAuMjQsNS4yLTEuMDYsNi4yNC0xLjQzYzAsMi43NSwwLDIuNzUsMCwyLjc1ICAgICBjLTQuOSwxLjQzLTYuNTcsMS41My02LjU3LDEuNTNjLTEuMDgsMC4xNC0yLjI3LDAuMjItMy40OCwwLjIyYy01LjA1LDAtOS4yMi0xLjI3LTkuOTEtMi44OUMyLjI2LDIxLjk5LDIuMjYsMjEuOTksMi4yNiwyMS45OXogICAgICBNMTIuMjUsMjkuNTZjLTUuNTMsMC05Ljk5LTEuODQtOS45OS00LjExYzAtMC41OSwwLTEuMDgsMC0xLjQ4YzAuMjUsMC4xOSwwLjUxLDAuMzQsMC43OSwwLjVjMi4wNiwxLjE0LDUuMzUsMS43OCw5LjEyLDEuNzggICAgIGMxLjIxLDAsMi4zNi0wLjA5LDMuNDUtMC4yYzIuNTYtMC4zMiw1LjIzLTEuMDYsNi42LTEuNDdjMCwyLjA1LDAsMi4wNSwwLDIuMDVjLTAuMTMsMC4zNC0wLjUyLDAuOTItMS43NCwxLjU3ICAgICBjLTMuMDUsMC45My00LjkxLDEuMTMtNC45MSwxLjEzQzE0LjU0LDI5LjQ5LDEzLjM4LDI5LjU2LDEyLjI1LDI5LjU2eiIvPiYjeGE7CQk8L2c+JiN4YTsJCTxnIGlkPSJzaGFwZTM4NjYtNCIgdHJhbnNmb3JtPSJ0cmFuc2xhdGUoMjcuMDUzMiwtNy44NjU3KSI+JiN4YTsJCQk8dGl0bGUgaWQ9InRpdGxlOTgxMjgiPlNoZWV0LjM4NjY8L3RpdGxlPiYjeGE7CQkJPHBhdGggaWQ9InBhdGg5ODEzMCIgaW5rc2NhcGU6Y29ubmVjdG9yLWN1cnZhdHVyZT0iMCIgc3R5bGU9ImZpbGw6IzNGNTc2NTsiIGQ9Ik0yMi44MywxMC40NWMtMi40Mi0xLjgzLTYuMTMtMi41Mi0xMC41OC0yLjU4ICAgICBjLTIuOTksMC01LjY5LDAuNC03Ljc5LDEuMTJjLTEuMDgsMC4zNy0yLjAyLDAuOC0yLjg0LDEuNDZDMC44MywxMS4wNiwwLDEyLjExLDAsMTMuNTFjMCwxMS45NCwwLDExLjk0LDAsMTEuOTQgICAgIGMwLDEuMzMsMC42NiwyLjQ1LDEuNDYsMy4xOWMyLjQxLDIuMjEsNi4yNSwzLjA5LDEwLjc5LDMuMTVjMS4xMSwwLDIuMjUtMC4wNiwzLjI4LTAuMmMwLDAsNS41My0wLjk5LDcuNDItMi44OSAgICAgYzAuMDUsMCwwLjA1LDAsMC4wNSwwYzAuNzktMC43NSwxLjQ1LTEuODYsMS40NS0zLjE5YzAsMCwwLDAsMC02LjQ0bDAsMGMwLTUuNTYsMC01LjU2LDAtNS41NiAgICAgQzI0LjQ1LDEyLjExLDIzLjYzLDExLjA2LDIyLjgzLDEwLjQ1eiBNMTIuMjUsMTAuMTJjNS40OCwwLDkuOTcsMS41Miw5Ljk3LDMuMzljMCwxLjg4LTQuNDksMy40LTkuOTcsMy40ICAgICBjLTUuNTMsMC05Ljk5LTEuNTItOS45OS0zLjRDMi4yNiwxMS42NCw2LjcyLDEwLjEyLDEyLjI1LDEwLjEyeiBNMi4yNiwxNS44NWMwLjI1LDAuMjIsMC41NSwwLjQzLDAuODcsMC42MSAgICAgYzIuMDcsMS4xMyw1LjMyLDEuNzYsOS4xMiwxLjc5YzIuODMsMCw1LjQ0LTAuMzksNy40LTEuMDdjMS0wLjMzLDEuODItMC43NSwyLjUxLTEuMjZjMC4wMS0wLjAzLDAuMDQtMC4wNiwwLjA2LTAuMDcgICAgIGMwLDIuNDQsMCwyLjQ0LDAsMi40NGMwLDAuNjUsMCwwLjY1LDAsMC42NWMtMi4zNSwwLjk4LTUuNDEsMS40OC01LjQxLDEuNDhjLTEuMzcsMC4yNC0yLjk3LDAuNC00LjY0LDAuNCAgICAgYy01LjM1LDAtOS43MS0xLjQ1LTkuOTEtMy4yM0MyLjI2LDE1Ljg1LDIuMjYsMTUuODUsMi4yNiwxNS44NXogTTIuMjYsMjEuOTljMC0xLjQ2LDAtMi4wMiwwLTIuMjJjMC4yNywwLjIzLDAuNTcsMC40LDAuODcsMC42MSAgICAgYzIuMDcsMS4xMSw1LjMxLDEuNzMsOS4wNCwxLjczYzEuMzQsMCwyLjYzLTAuMTMsMy44MS0wLjI0YzIuNjctMC4yNCw1LjItMS4wNiw2LjI0LTEuNDNjMCwyLjc1LDAsMi43NSwwLDIuNzUgICAgIGMtNC45LDEuNDMtNi41NywxLjUzLTYuNTcsMS41M2MtMS4wOCwwLjE0LTIuMjcsMC4yMi0zLjQ4LDAuMjJjLTUuMDUsMC05LjIyLTEuMjctOS45MS0yLjg5QzIuMjYsMjEuOTksMi4yNiwyMS45OSwyLjI2LDIxLjk5eiAgICAgIE0xMi4yNSwyOS41NmMtNS41MywwLTkuOTktMS44NC05Ljk5LTQuMTFjMC0wLjU5LDAtMS4wOCwwLTEuNDhjMC4yNSwwLjE5LDAuNTEsMC4zNCwwLjc5LDAuNWMyLjA2LDEuMTQsNS4zNSwxLjc4LDkuMTIsMS43OCAgICAgYzEuMjEsMCwyLjM2LTAuMDksMy40NS0wLjJjMi41Ni0wLjMyLDUuMjMtMS4wNiw2LjYtMS40N2MwLDIuMDUsMCwyLjA1LDAsMi4wNWMtMC4xMywwLjM0LTAuNTIsMC45Mi0xLjc0LDEuNTcgICAgIGMtMy4wNSwwLjkzLTQuOTEsMS4xMy00LjkxLDEuMTNDMTQuNTQsMjkuNDksMTMuMzgsMjkuNTYsMTIuMjUsMjkuNTZ6Ii8+JiN4YTsJCTwvZz4mI3hhOwkJPGcgaWQ9InNoYXBlMzg2Ny02IiB0cmFuc2Zvcm09InRyYW5zbGF0ZSgxNC4zODI3LC0xNC4yMjMxKSI+JiN4YTsJCQk8dGl0bGUgaWQ9InRpdGxlOTgxMzMiPlNoZWV0LjM4Njc8L3RpdGxlPiYjeGE7CQkJPHBhdGggaWQ9InBhdGg5ODEzNSIgaW5rc2NhcGU6Y29ubmVjdG9yLWN1cnZhdHVyZT0iMCIgc3R5bGU9ImZpbGw6IzdGQkEwMDsiIGQ9Ik0wLDI3LjgzYzAtMi4xOSw0Ljk0LTMuOTcsMTEuMDMtMy45NyAgICAgczExLjAyLDEuNzgsMTEuMDIsMy45N3MtNC45MywzLjk2LTExLjAyLDMuOTZTMCwzMC4wMiwwLDI3LjgzeiIvPiYjeGE7CQk8L2c+JiN4YTsJCTxnIGlkPSJzaGFwZTM4NjgtOCIgdHJhbnNmb3JtPSJ0cmFuc2xhdGUoMTQuMzgyNywtMS4zMDMxOSkiPiYjeGE7CQkJPHRpdGxlIGlkPSJ0aXRsZTk4MTM4Ij5TaGVldC4zODY4PC90aXRsZT4mI3hhOwkJCTxwYXRoIGlkPSJwYXRoOTgxNDAiIGlua3NjYXBlOmNvbm5lY3Rvci1jdXJ2YXR1cmU9IjAiIHN0eWxlPSJmaWxsOiM3RkJBMDA7IiBkPSJNMCwyNy44M2MwLTIuMTksNC45NC0zLjk3LDExLjAzLTMuOTcgICAgIHMxMS4wMiwxLjc4LDExLjAyLDMuOTdzLTQuOTMsMy45Ni0xMS4wMiwzLjk2UzAsMzAuMDIsMCwyNy44M3oiLz4mI3hhOwkJPC9nPiYjeGE7CQk8ZyBpZD0ic2hhcGUzODY5LTEwIiB0cmFuc2Zvcm09InRyYW5zbGF0ZSgxNC41MTk3LC00LjM3OTM3KSI+JiN4YTsJCQk8dGl0bGUgaWQ9InRpdGxlOTgxNDMiPlNoZWV0LjM4Njk8L3RpdGxlPiYjeGE7CQkJPHBhdGggaWQ9InBhdGg5ODE0NSIgaW5rc2NhcGU6Y29ubmVjdG9yLWN1cnZhdHVyZT0iMCIgc3R5bGU9ImZpbGw6IzdGQkEwMDsiIGQ9Ik0wLDE4LjE5djEzLjZoMjIuNTN2LTEzLjZIMHoiLz4mI3hhOwkJPC9nPiYjeGE7CQk8ZyBpZD0ic2hhcGUzODcwLTEyIiB0cmFuc2Zvcm09InRyYW5zbGF0ZSgxMy45NTk0KSI+JiN4YTsJCQk8dGl0bGUgaWQ9InRpdGxlOTgxNDgiPlNoZWV0LjM4NzA8L3RpdGxlPiYjeGE7CQkJPHBhdGggaWQ9InBhdGg5ODE1MCIgaW5rc2NhcGU6Y29ubmVjdG9yLWN1cnZhdHVyZT0iMCIgc3R5bGU9ImZpbGw6IzNGNTc2NTsiIGQ9Ik0yMi45LDEwLjM5Yy0yLjQzLTEuODQtNi4xNS0yLjUyLTEwLjYyLTIuNTkgICAgIGMtMi45OSwwLTUuNywwLjQtNy44MSwxLjEyQzMuMzksOS4zLDIuNDUsOS43MywxLjYzLDEwLjM5QzAuODMsMTEsMCwxMi4wNSwwLDEzLjQ2YzAsMTEuOTcsMCwxMS45NywwLDExLjk3ICAgICBjMCwxLjM0LDAuNjYsMi40NiwxLjQ2LDMuMmMyLjQxLDIuMjIsNi4yNywzLjEsMTAuODIsMy4xNmMxLjExLDAsMi4yNi0wLjA2LDMuMjktMC4yYzAsMCw1LjU1LTEsNy40NS0yLjljMC4wNCwwLDAuMDQsMCwwLjA0LDAgICAgIGMwLjgtMC43NCwxLjQ2LTEuODcsMS40Ni0zLjJjMCwwLDAsMCwwLTYuNDZsMCwwYzAtNS41NywwLTUuNTcsMC01LjU3QzI0LjUyLDEyLjA1LDIzLjcsMTEsMjIuOSwxMC4zOXogTTEyLjI4LDEwLjA1ICAgICBjNS41LDAsMTAuMDEsMS41MywxMC4wMSwzLjQxYzAsMS44OS00LjUxLDMuNDEtMTAuMDEsMy40MWMtNS41MywwLTEwLjAyLTEuNTItMTAuMDItMy40MUMyLjI2LDExLjU4LDYuNzUsMTAuMDUsMTIuMjgsMTAuMDV6ICAgICAgTTIuMjYsMTUuODFjMC4yNiwwLjIxLDAuNTYsMC40MywwLjg4LDAuNmMyLjA3LDEuMTQsNS4zNCwxLjc3LDkuMTQsMS44YzIuODQsMCw1LjQ2LTAuMzksNy40Mi0xLjA3ICAgICBjMS4wMS0wLjM0LDEuODMtMC43NiwyLjUyLTEuMjdjMC4wMS0wLjAyLDAuMDQtMC4wNSwwLjA3LTAuMDZjMCwyLjQ0LDAsMi40NCwwLDIuNDRjMCwwLjY1LDAsMC42NSwwLDAuNjUgICAgIGMtMi4zNiwwLjk4LTUuNDMsMS40OC01LjQzLDEuNDhjLTEuMzgsMC4yNS0yLjk4LDAuNDEtNC42NiwwLjQxYy01LjM2LDAtOS43My0xLjQ2LTkuOTQtMy4yNEMyLjI2LDE1LjgxLDIuMjYsMTUuODEsMi4yNiwxNS44MXogICAgICBNMi4yNiwyMS45NmMwLTEuNDcsMC0yLjAyLDAtMi4yM2MwLjI3LDAuMjQsMC41NywwLjQxLDAuODgsMC42MWMyLjA3LDEuMTIsNS4zMiwxLjc0LDkuMDYsMS43NGMxLjM0LDAsMi42NC0wLjEzLDMuODItMC4yNCAgICAgYzIuNjgtMC4yNCw1LjIyLTEuMDYsNi4yNy0xLjQzYzAsMi43NiwwLDIuNzYsMCwyLjc2Yy00LjkyLDEuNDMtNi42LDEuNTMtNi42LDEuNTNjLTEuMDgsMC4xNC0yLjI3LDAuMjItMy40OSwwLjIyICAgICBjLTUuMDYsMC05LjI1LTEuMjctOS45NC0yLjlDMi4yNiwyMS45NiwyLjI2LDIxLjk2LDIuMjYsMjEuOTZ6IE0xMi4yOCwyOS41NWMtNS41MywwLTEwLjAyLTEuODUtMTAuMDItNC4xMiAgICAgYzAtMC41OSwwLTEuMDgsMC0xLjQ4YzAuMjYsMC4xOSwwLjUyLDAuMzMsMC44LDAuNWMyLjA2LDEuMTUsNS4zNiwxLjc4LDkuMTQsMS43OGMxLjIyLDAsMi4zNy0wLjA4LDMuNDctMC4yICAgICBjMi41Ni0wLjMxLDUuMjQtMS4wNiw2LjYyLTEuNDdjMCwyLjA2LDAsMi4wNiwwLDIuMDZjLTAuMTQsMC4zNC0wLjUzLDAuOTItMS43NSwxLjU3Yy0zLjA2LDAuOTMtNC45MywxLjEzLTQuOTMsMS4xMyAgICAgQzE0LjU4LDI5LjQ4LDEzLjQyLDI5LjU1LDEyLjI4LDI5LjU1eiIvPiYjeGE7CQk8L2c+JiN4YTsJPC9nPiYjeGE7PC9nPiYjeGE7PC9zdmc+;" vertex="1" parent="1">
          <mxGeometry x="799" y="680" width="72" height="44.31" as="geometry" />
        </mxCell>
        <mxCell id="bqVkadd0tKrhda9ODERW-64" style="edgeStyle=orthogonalEdgeStyle;rounded=0;orthogonalLoop=1;jettySize=auto;html=1;strokeColor=#808080;" edge="1" parent="1" source="bqVkadd0tKrhda9ODERW-63">
          <mxGeometry relative="1" as="geometry">
            <mxPoint x="370" y="215.4999999999999" as="targetPoint" />
          </mxGeometry>
        </mxCell>
        <mxCell id="bqVkadd0tKrhda9ODERW-66" style="edgeStyle=orthogonalEdgeStyle;rounded=0;orthogonalLoop=1;jettySize=auto;html=1;entryX=1;entryY=0.5;entryDx=0;entryDy=0;strokeColor=#808080;" edge="1" parent="1" source="bqVkadd0tKrhda9ODERW-63" target="AcxdMaKK0mU5kZiv2lnr-4">
          <mxGeometry relative="1" as="geometry" />
        </mxCell>
        <mxCell id="bqVkadd0tKrhda9ODERW-63" value="AUTH0 2.0&lt;br&gt;" style="aspect=fixed;html=1;perimeter=none;align=center;shadow=0;dashed=0;image;fontSize=12;image=img/lib/mscae/KeyVault.svg;spacingTop=3;rotation=-1;" vertex="1" parent="1">
          <mxGeometry x="169.99999999999994" y="175.25" width="72.45" height="80.5" as="geometry" />
        </mxCell>
        <mxCell id="bqVkadd0tKrhda9ODERW-65" style="edgeStyle=orthogonalEdgeStyle;rounded=0;orthogonalLoop=1;jettySize=auto;html=1;entryX=0.7;entryY=0;entryDx=0;entryDy=0;entryPerimeter=0;strokeColor=#808080;" edge="1" parent="1" source="bqVkadd0tKrhda9ODERW-13" target="bqVkadd0tKrhda9ODERW-63">
          <mxGeometry relative="1" as="geometry">
            <Array as="points">
              <mxPoint x="220" y="155" />
            </Array>
          </mxGeometry>
        </mxCell>
        <mxCell id="bqVkadd0tKrhda9ODERW-75" style="edgeStyle=orthogonalEdgeStyle;rounded=0;orthogonalLoop=1;jettySize=auto;html=1;strokeColor=#808080;" edge="1" parent="1" source="bqVkadd0tKrhda9ODERW-70" target="bqVkadd0tKrhda9ODERW-13">
          <mxGeometry relative="1" as="geometry" />
        </mxCell>
        <mxCell id="bqVkadd0tKrhda9ODERW-77" style="edgeStyle=orthogonalEdgeStyle;rounded=0;orthogonalLoop=1;jettySize=auto;html=1;strokeColor=#808080;" edge="1" parent="1" source="bqVkadd0tKrhda9ODERW-70" target="bqVkadd0tKrhda9ODERW-3">
          <mxGeometry relative="1" as="geometry" />
        </mxCell>
        <mxCell id="bqVkadd0tKrhda9ODERW-70" value="AUTH0 2.0&lt;br&gt;" style="aspect=fixed;html=1;perimeter=none;align=center;shadow=0;dashed=0;image;fontSize=12;image=img/lib/mscae/KeyVault.svg;spacingTop=3;rotation=-1;" vertex="1" parent="1">
          <mxGeometry x="559.41" y="430" width="72.45" height="80.5" as="geometry" />
        </mxCell>
        <mxCell id="bqVkadd0tKrhda9ODERW-72" style="edgeStyle=orthogonalEdgeStyle;rounded=0;orthogonalLoop=1;jettySize=auto;html=1;strokeColor=#808080;" edge="1" parent="1" source="bqVkadd0tKrhda9ODERW-13" target="bqVkadd0tKrhda9ODERW-70">
          <mxGeometry relative="1" as="geometry" />
        </mxCell>
        <mxCell id="bqVkadd0tKrhda9ODERW-79" style="edgeStyle=orthogonalEdgeStyle;rounded=0;orthogonalLoop=1;jettySize=auto;html=1;strokeColor=#808080;" edge="1" parent="1" source="AcxdMaKK0mU5kZiv2lnr-4" target="bqVkadd0tKrhda9ODERW-63">
          <mxGeometry relative="1" as="geometry" />
        </mxCell>
      </root>
    </mxGraphModel>
  </diagram>
</mxfile>
